<svg xmlns="http://www.w3.org/2000/svg" width="32" height="32" viewBox="0 0 32 32" shape-rendering="crispEdges"><rect x="24" y="0" width="1" height="1" fill="#ffffff"/><rect x="22" y="2" width="1" height="1" fill="#ffffff"/><rect x="26" y="2" width="1" height="1" fill="#ffffff"/><rect x="2" y="4" width="1" height="1" fill="#ffffff"/><rect x="9" y="4" width="1" height="1" fill="#ffffff"/><rect x="13" y="4" width="1" height="1" fill="#ffffff"/><rect x="17" y="4" width="1" height="1" fill="#ffffff"/><rect x="24" y="4" width="1" height="1" fill="#ffffff"/><rect x="31" y="4" width="1" height="1" fill="#ffffff"/><rect x="7" y="6" width="5" height="1" fill="#ffffff"/><rect x="15" y="6" width="1" height="1" fill="#ffffff"/><rect x="22" y="6" width="1" height="1" fill="#ffffff"/><rect x="26" y="6" width="1" height="1" fill="#ffffff"/><rect x="6" y="7" width="1" height="1" fill="#ffffff"/><rect x="8" y="7" width="3" height="1" fill="#a19d95"/><rect x="2" y="8" width="1" height="1" fill="#ffffff"/><rect x="5" y="8" width="1" height="1" fill="#ffffff"/><rect x="6" y="8" width="1" height="1" fill="#e9e8e7"/><rect x="7" y="8" width="1" height="1" fill="#554632"/><rect x="8" y="8" width="1" height="1" fill="#6d512f"/><rect x="9" y="8" width="1" height="1" fill="#7c6549"/><rect x="10" y="8" width="1" height="1" fill="#3e2d18"/><rect x="11" y="8" width="1" height="1" fill="#554632"/><rect x="17" y="8" width="1" height="1" fill="#ffffff"/><rect x="20" y="8" width="1" height="1" fill="#ffffff"/><rect x="24" y="8" width="1" height="1" fill="#ffffff"/><rect x="6" y="9" width="1" height="1" fill="#7c6549"/><rect x="7" y="9" width="1" height="2" fill="#6d512f"/><rect x="8" y="9" width="1" height="1" fill="#7c6549"/><rect x="9" y="9" width="1" height="1" fill="#6d512f"/><rect x="10" y="9" width="1" height="3" fill="#7c6549"/><rect x="11" y="9" width="1" height="1" fill="#3e2d18"/><rect x="12" y="9" width="1" height="1" fill="#a19d95"/><rect x="13" y="9" width="1" height="1" fill="#ffffff"/><rect x="0" y="10" width="1" height="1" fill="#ffffff"/><rect x="4" y="10" width="1" height="2" fill="#e9e8e7"/><rect x="5" y="10" width="1" height="1" fill="#7c6549"/><rect x="6" y="10" width="1" height="1" fill="#6d512f"/><rect x="8" y="10" width="2" height="1" fill="#3e2d18"/><rect x="11" y="10" width="2" height="1" fill="#554632"/><rect x="15" y="10" width="1" height="1" fill="#ffffff"/><rect x="22" y="10" width="1" height="1" fill="#ffffff"/><rect x="29" y="10" width="1" height="1" fill="#ffffff"/><rect x="3" y="11" width="1" height="1" fill="#ffffff"/><rect x="5" y="11" width="3" height="1" fill="#554632"/><rect x="8" y="11" width="2" height="1" fill="#7c6549"/><rect x="11" y="11" width="1" height="1" fill="#554632"/><rect x="12" y="11" width="1" height="2" fill="#3e2d18"/><rect x="13" y="11" width="1" height="1" fill="#e9e8e7"/><rect x="14" y="11" width="1" height="1" fill="#ffffff"/><rect x="2" y="12" width="1" height="1" fill="#ffffff"/><rect x="6" y="12" width="1" height="1" fill="#a19d95"/><rect x="7" y="12" width="1" height="1" fill="#3e2d18"/><rect x="8" y="12" width="2" height="1" fill="#6d512f"/><rect x="10" y="12" width="1" height="1" fill="#3e2d18"/><rect x="11" y="12" width="1" height="2" fill="#6d512f"/><rect x="13" y="12" width="1" height="1" fill="#7c6549"/><rect x="14" y="12" width="2" height="1" fill="#e9e8e7"/><rect x="16" y="12" width="2" height="1" fill="#ffffff"/><rect x="20" y="12" width="1" height="1" fill="#ffffff"/><rect x="24" y="12" width="1" height="1" fill="#ffffff"/><rect x="31" y="12" width="1" height="1" fill="#ffffff"/><rect x="6" y="13" width="1" height="1" fill="#ffffff"/><rect x="7" y="13" width="1" height="3" fill="#a19d95"/><rect x="8" y="13" width="1" height="2" fill="#3e2d18"/><rect x="9" y="13" width="2" height="1" fill="#554632"/><rect x="12" y="13" width="1" height="2" fill="#554632"/><rect x="13" y="13" width="1" height="1" fill="#3e2d18"/><rect x="14" y="13" width="2" height="1" fill="#554632"/><rect x="16" y="13" width="1" height="1" fill="#a19d95"/><rect x="17" y="13" width="1" height="1" fill="#e9e8e7"/><rect x="18" y="13" width="1" height="1" fill="#ffffff"/><rect x="0" y="14" width="1" height="1" fill="#ffffff"/><rect x="9" y="14" width="2" height="2" fill="#7c6549"/><rect x="11" y="14" width="1" height="1" fill="#554632"/><rect x="13" y="14" width="3" height="1" fill="#7c6549"/><rect x="16" y="14" width="1" height="1" fill="#554632"/><rect x="17" y="14" width="1" height="1" fill="#3e2d18"/><rect x="18" y="14" width="1" height="1" fill="#a19d95"/><rect x="19" y="14" width="1" height="1" fill="#ffffff"/><rect x="22" y="14" width="1" height="1" fill="#ffffff"/><rect x="26" y="14" width="1" height="1" fill="#ffffff"/><rect x="6" y="15" width="1" height="1" fill="#ffffff"/><rect x="8" y="15" width="1" height="1" fill="#554632"/><rect x="11" y="15" width="1" height="1" fill="#6d512f"/><rect x="12" y="15" width="1" height="2" fill="#7c6549"/><rect x="13" y="15" width="3" height="1" fill="#6d512f"/><rect x="16" y="15" width="1" height="1" fill="#7c6549"/><rect x="17" y="15" width="1" height="1" fill="#6d512f"/><rect x="18" y="15" width="1" height="1" fill="#3e2d18"/><rect x="19" y="15" width="1" height="1" fill="#a19d95"/><rect x="20" y="15" width="1" height="1" fill="#ffffff"/><rect x="2" y="16" width="1" height="1" fill="#ffffff"/><rect x="7" y="16" width="3" height="1" fill="#7c6549"/><rect x="10" y="16" width="1" height="2" fill="#554632"/><rect x="11" y="16" width="1" height="2" fill="#7c6549"/><rect x="13" y="16" width="1" height="1" fill="#7c6549"/><rect x="14" y="16" width="1" height="2" fill="#6d512f"/><rect x="15" y="16" width="3" height="1" fill="#554632"/><rect x="18" y="16" width="1" height="1" fill="#6d512f"/><rect x="19" y="16" width="1" height="1" fill="#3e2d18"/><rect x="20" y="16" width="1" height="1" fill="#e9e8e7"/><rect x="21" y="16" width="1" height="1" fill="#ffffff"/><rect x="24" y="16" width="1" height="1" fill="#ffffff"/><rect x="7" y="17" width="2" height="1" fill="#7c6549"/><rect x="9" y="17" width="1" height="1" fill="#6d512f"/><rect x="12" y="17" width="1" height="1" fill="#6d512f"/><rect x="13" y="17" width="1" height="1" fill="#554632"/><rect x="15" y="17" width="2" height="1" fill="#7c6549"/><rect x="17" y="17" width="1" height="1" fill="#554632"/><rect x="18" y="17" width="1" height="1" fill="#7c6549"/><rect x="19" y="17" width="1" height="1" fill="#6d512f"/><rect x="20" y="17" width="1" height="1" fill="#554632"/><rect x="7" y="18" width="1" height="2" fill="#554632"/><rect x="8" y="18" width="1" height="2" fill="#6d512f"/><rect x="9" y="18" width="1" height="3" fill="#7c6549"/><rect x="10" y="18" width="1" height="2" fill="#6d512f"/><rect x="11" y="18" width="1" height="1" fill="#554632"/><rect x="12" y="18" width="1" height="2" fill="#7c6549"/><rect x="13" y="18" width="1" height="2" fill="#6d512f"/><rect x="14" y="18" width="2" height="1" fill="#7c6549"/><rect x="16" y="18" width="2" height="1" fill="#6d512f"/><rect x="18" y="18" width="1" height="1" fill="#3e2d18"/><rect x="19" y="18" width="1" height="2" fill="#554632"/><rect x="20" y="18" width="1" height="1" fill="#3e2d18"/><rect x="21" y="18" width="1" height="1" fill="#a19d95"/><rect x="22" y="18" width="1" height="1" fill="#ffffff"/><rect x="11" y="19" width="1" height="1" fill="#3e2d18"/><rect x="14" y="19" width="1" height="3" fill="#554632"/><rect x="15" y="19" width="1" height="1" fill="#6d512f"/><rect x="16" y="19" width="1" height="1" fill="#3e2d18"/><rect x="17" y="19" width="1" height="1" fill="#554632"/><rect x="18" y="19" width="1" height="1" fill="#6d512f"/><rect x="20" y="19" width="1" height="1" fill="#554632"/><rect x="21" y="19" width="1" height="2" fill="#3e2d18"/><rect x="22" y="19" width="1" height="1" fill="#e9e8e7"/><rect x="6" y="20" width="1" height="1" fill="#ffffff"/><rect x="7" y="20" width="1" height="1" fill="#a19d95"/><rect x="8" y="20" width="1" height="2" fill="#3e2d18"/><rect x="10" y="20" width="1" height="2" fill="#7c6549"/><rect x="11" y="20" width="1" height="1" fill="#554632"/><rect x="12" y="20" width="1" height="2" fill="#3e2d18"/><rect x="13" y="20" width="1" height="1" fill="#7c6549"/><rect x="15" y="20" width="1" height="1" fill="#3e2d18"/><rect x="16" y="20" width="1" height="1" fill="#554632"/><rect x="17" y="20" width="1" height="1" fill="#7c6549"/><rect x="18" y="20" width="1" height="3" fill="#554632"/><rect x="19" y="20" width="1" height="1" fill="#7c6549"/><rect x="20" y="20" width="1" height="1" fill="#6d512f"/><rect x="22" y="20" width="1" height="1" fill="#a19d95"/><rect x="23" y="20" width="1" height="1" fill="#ffffff"/><rect x="7" y="21" width="1" height="1" fill="#e9e8e7"/><rect x="9" y="21" width="1" height="1" fill="#6d512f"/><rect x="11" y="21" width="1" height="1" fill="#7c6549"/><rect x="13" y="21" width="1" height="2" fill="#3e2d18"/><rect x="15" y="21" width="1" height="1" fill="#6d512f"/><rect x="16" y="21" width="1" height="1" fill="#7c6549"/><rect x="17" y="21" width="1" height="1" fill="#554632"/><rect x="19" y="21" width="1" height="2" fill="#554632"/><rect x="20" y="21" width="1" height="1" fill="#3e2d18"/><rect x="21" y="21" width="1" height="1" fill="#6d512f"/><rect x="22" y="21" width="1" height="2" fill="#3e2d18"/><rect x="23" y="21" width="1" height="1" fill="#e9e8e7"/><rect x="24" y="21" width="1" height="1" fill="#ffffff"/><rect x="7" y="22" width="1" height="1" fill="#ffffff"/><rect x="8" y="22" width="1" height="1" fill="#a19d95"/><rect x="9" y="22" width="1" height="1" fill="#3e2d18"/><rect x="10" y="22" width="3" height="1" fill="#6d512f"/><rect x="14" y="22" width="3" height="1" fill="#3e2d18"/><rect x="17" y="22" width="1" height="1" fill="#6d512f"/><rect x="20" y="22" width="1" height="1" fill="#6d512f"/><rect x="21" y="22" width="1" height="2" fill="#554632"/><rect x="23" y="22" width="1" height="1" fill="#7c6549"/><rect x="9" y="23" width="1" height="1" fill="#7c6549"/><rect x="10" y="23" width="1" height="1" fill="#3e2d18"/><rect x="11" y="23" width="2" height="1" fill="#554632"/><rect x="13" y="23" width="2" height="1" fill="#6d512f"/><rect x="15" y="23" width="6" height="1" fill="#3e2d18"/><rect x="22" y="23" width="1" height="1" fill="#6d512f"/><rect x="23" y="23" width="1" height="3" fill="#3e2d18"/><rect x="24" y="23" width="1" height="1" fill="#a19d95"/><rect x="10" y="24" width="1" height="1" fill="#7c6549"/><rect x="11" y="24" width="3" height="1" fill="#3e2d18"/><rect x="14" y="24" width="2" height="1" fill="#6d512f"/><rect x="16" y="24" width="2" height="1" fill="#554632"/><rect x="18" y="24" width="5" height="1" fill="#3e2d18"/><rect x="24" y="24" width="1" height="1" fill="#e9e8e7"/><rect x="25" y="24" width="1" height="1" fill="#ffffff"/><rect x="2" y="25" width="1" height="1" fill="#ffffff"/><rect x="6" y="25" width="2" height="1" fill="#ffffff"/><rect x="9" y="25" width="2" height="1" fill="#ffffff"/><rect x="11" y="25" width="1" height="1" fill="#a19d95"/><rect x="12" y="25" width="4" height="1" fill="#3e2d18"/><rect x="16" y="25" width="1" height="1" fill="#554632"/><rect x="17" y="25" width="4" height="1" fill="#3e2d18"/><rect x="21" y="25" width="1" height="1" fill="#554632"/><rect x="22" y="25" width="1" height="1" fill="#3e2d18"/><rect x="24" y="25" width="1" height="2" fill="#554632"/><rect x="25" y="25" width="1" height="1" fill="#e9e8e7"/><rect x="5" y="26" width="1" height="1" fill="#ffffff"/><rect x="6" y="26" width="1" height="1" fill="#a19d95"/><rect x="7" y="26" width="1" height="1" fill="#e9e8e7"/><rect x="8" y="26" width="1" height="1" fill="#ffffff"/><rect x="10" y="26" width="2" height="1" fill="#ffffff"/><rect x="12" y="26" width="1" height="1" fill="#a19d95"/><rect x="13" y="26" width="3" height="1" fill="#3e2d18"/><rect x="16" y="26" width="1" height="1" fill="#6d512f"/><rect x="17" y="26" width="2" height="1" fill="#3e2d18"/><rect x="19" y="26" width="1" height="1" fill="#7c6549"/><rect x="20" y="26" width="1" height="1" fill="#554632"/><rect x="21" y="26" width="1" height="1" fill="#3e2d18"/><rect x="22" y="26" width="1" height="1" fill="#554632"/><rect x="23" y="26" width="1" height="1" fill="#6d512f"/><rect x="25" y="26" width="1" height="1" fill="#554632"/><rect x="26" y="26" width="1" height="1" fill="#e9e8e7"/><rect x="0" y="27" width="1" height="1" fill="#ffffff"/><rect x="4" y="27" width="1" height="1" fill="#ffffff"/><rect x="5" y="27" width="1" height="2" fill="#a19d95"/><rect x="6" y="27" width="1" height="1" fill="#6d512f"/><rect x="7" y="27" width="1" height="2" fill="#3e2d18"/><rect x="8" y="27" width="2" height="1" fill="#e9e8e7"/><rect x="10" y="27" width="2" height="1" fill="#7c6549"/><rect x="12" y="27" width="1" height="2" fill="#6d512f"/><rect x="13" y="27" width="1" height="2" fill="#3e2d18"/><rect x="14" y="27" width="2" height="1" fill="#7c6549"/><rect x="16" y="27" width="1" height="3" fill="#3e2d18"/><rect x="17" y="27" width="1" height="1" fill="#a19d95"/><rect x="18" y="27" width="2" height="1" fill="#ffffff"/><rect x="21" y="27" width="1" height="1" fill="#a19d95"/><rect x="22" y="27" width="4" height="1" fill="#3e2d18"/><rect x="26" y="27" width="1" height="1" fill="#a19d95"/><rect x="27" y="27" width="1" height="1" fill="#ffffff"/><rect x="29" y="27" width="1" height="1" fill="#ffffff"/><rect x="6" y="28" width="1" height="1" fill="#554632"/><rect x="8" y="28" width="1" height="1" fill="#a19d95"/><rect x="9" y="28" width="1" height="1" fill="#7c6549"/><rect x="10" y="28" width="1" height="2" fill="#3e2d18"/><rect x="11" y="28" width="1" height="1" fill="#6d512f"/><rect x="14" y="28" width="1" height="1" fill="#3e2d18"/><rect x="15" y="28" width="1" height="2" fill="#6d512f"/><rect x="17" y="28" width="1" height="1" fill="#7c6549"/><rect x="18" y="28" width="2" height="1" fill="#e9e8e7"/><rect x="21" y="28" width="1" height="1" fill="#ffffff"/><rect x="22" y="28" width="1" height="1" fill="#e9e8e7"/><rect x="23" y="28" width="3" height="1" fill="#7c6549"/><rect x="26" y="28" width="1" height="1" fill="#e9e8e7"/><rect x="2" y="29" width="1" height="1" fill="#ffffff"/><rect x="5" y="29" width="1" height="1" fill="#ffffff"/><rect x="6" y="29" width="3" height="1" fill="#e9e8e7"/><rect x="9" y="29" width="1" height="1" fill="#a19d95"/><rect x="11" y="29" width="2" height="1" fill="#3e2d18"/><rect x="13" y="29" width="2" height="1" fill="#6d512f"/><rect x="17" y="29" width="1" height="1" fill="#3e2d18"/><rect x="18" y="29" width="1" height="2" fill="#a19d95"/><rect x="19" y="29" width="2" height="1" fill="#7c6549"/><rect x="21" y="29" width="1" height="1" fill="#e9e8e7"/><rect x="23" y="29" width="3" height="1" fill="#ffffff"/><rect x="31" y="29" width="1" height="1" fill="#ffffff"/><rect x="6" y="30" width="1" height="1" fill="#ffffff"/><rect x="10" y="30" width="2" height="1" fill="#e9e8e7"/><rect x="12" y="30" width="1" height="1" fill="#a19d95"/><rect x="13" y="30" width="2" height="1" fill="#3e2d18"/><rect x="15" y="30" width="1" height="1" fill="#554632"/><rect x="16" y="30" width="1" height="1" fill="#7c6549"/><rect x="17" y="30" width="1" height="1" fill="#a19d95"/><rect x="19" y="30" width="1" height="1" fill="#554632"/><rect x="20" y="30" width="1" height="1" fill="#3e2d18"/><rect x="21" y="30" width="1" height="1" fill="#a19d95"/><rect x="22" y="30" width="1" height="1" fill="#e9e8e7"/><rect x="10" y="31" width="2" height="1" fill="#ffffff"/><rect x="13" y="31" width="2" height="1" fill="#a19d95"/><rect x="16" y="31" width="1" height="1" fill="#ffffff"/><rect x="17" y="31" width="4" height="1" fill="#e9e8e7"/><rect x="21" y="31" width="2" height="1" fill="#ffffff"/></svg>