<svg xmlns="http://www.w3.org/2000/svg" width="32" height="32" viewBox="0 0 32 32" shape-rendering="crispEdges"><rect x="2" y="1" width="1" height="1" fill="#ffffff"/><rect x="9" y="1" width="1" height="1" fill="#ffffff"/><rect x="16" y="1" width="1" height="1" fill="#ffffff"/><rect x="23" y="1" width="1" height="1" fill="#ffffff"/><rect x="27" y="1" width="1" height="1" fill="#ffffff"/><rect x="11" y="3" width="1" height="1" fill="#ffffff"/><rect x="18" y="3" width="1" height="1" fill="#ffffff"/><rect x="9" y="5" width="1" height="1" fill="#ffffff"/><rect x="7" y="6" width="2" height="1" fill="#ffffff"/><rect x="27" y="6" width="1" height="1" fill="#ffffff"/><rect x="5" y="7" width="2" height="1" fill="#ffffff"/><rect x="7" y="7" width="1" height="1" fill="#b0b0ae"/><rect x="8" y="7" width="1" height="1" fill="#f1f2f2"/><rect x="9" y="7" width="2" height="1" fill="#827769"/><rect x="4" y="8" width="1" height="1" fill="#ffffff"/><rect x="5" y="8" width="2" height="1" fill="#b0b0ae"/><rect x="7" y="8" width="1" height="1" fill="#51412b"/><rect x="8" y="8" width="1" height="1" fill="#685a48"/><rect x="9" y="8" width="1" height="1" fill="#7c603e"/><rect x="10" y="8" width="1" height="1" fill="#51412b"/><rect x="11" y="8" width="1" height="2" fill="#f1f2f2"/><rect x="12" y="8" width="1" height="1" fill="#ffffff"/><rect x="18" y="8" width="1" height="1" fill="#ffffff"/><rect x="3" y="9" width="1" height="1" fill="#ffffff"/><rect x="4" y="9" width="1" height="1" fill="#f1f2f2"/><rect x="5" y="9" width="1" height="1" fill="#51412b"/><rect x="6" y="9" width="1" height="1" fill="#685a48"/><rect x="7" y="9" width="3" height="1" fill="#827769"/><rect x="10" y="9" width="1" height="1" fill="#685a48"/><rect x="3" y="10" width="1" height="2" fill="#b0b0ae"/><rect x="4" y="10" width="1" height="1" fill="#685a48"/><rect x="5" y="10" width="1" height="1" fill="#b0b0ae"/><rect x="6" y="10" width="3" height="1" fill="#827769"/><rect x="9" y="10" width="1" height="1" fill="#685a48"/><rect x="10" y="10" width="1" height="1" fill="#827769"/><rect x="16" y="10" width="1" height="1" fill="#ffffff"/><rect x="20" y="10" width="1" height="1" fill="#ffffff"/><rect x="23" y="10" width="1" height="1" fill="#ffffff"/><rect x="27" y="10" width="1" height="1" fill="#ffffff"/><rect x="2" y="11" width="1" height="1" fill="#ffffff"/><rect x="4" y="11" width="1" height="1" fill="#51412b"/><rect x="5" y="11" width="1" height="1" fill="#827769"/><rect x="6" y="11" width="1" height="1" fill="#51412b"/><rect x="7" y="11" width="1" height="1" fill="#7c603e"/><rect x="8" y="11" width="2" height="1" fill="#827769"/><rect x="10" y="11" width="1" height="1" fill="#51412b"/><rect x="11" y="11" width="1" height="1" fill="#b0b0ae"/><rect x="12" y="11" width="1" height="1" fill="#ffffff"/><rect x="2" y="12" width="1" height="1" fill="#b0b0ae"/><rect x="3" y="12" width="1" height="1" fill="#827769"/><rect x="4" y="12" width="1" height="1" fill="#b0b0ae"/><rect x="5" y="12" width="1" height="1" fill="#51412b"/><rect x="6" y="12" width="2" height="1" fill="#827769"/><rect x="8" y="12" width="3" height="1" fill="#7c603e"/><rect x="11" y="12" width="1" height="2" fill="#685a48"/><rect x="14" y="12" width="1" height="1" fill="#ffffff"/><rect x="18" y="12" width="1" height="1" fill="#ffffff"/><rect x="25" y="12" width="1" height="1" fill="#ffffff"/><rect x="2" y="13" width="1" height="1" fill="#685a48"/><rect x="3" y="13" width="1" height="1" fill="#51412b"/><rect x="4" y="13" width="1" height="3" fill="#685a48"/><rect x="5" y="13" width="5" height="2" fill="#7c603e"/><rect x="10" y="13" width="1" height="7" fill="#51412b"/><rect x="12" y="13" width="1" height="3" fill="#ffffff"/><rect x="19" y="13" width="1" height="1" fill="#ffffff"/><rect x="2" y="14" width="1" height="1" fill="#b0b0ae"/><rect x="3" y="14" width="1" height="1" fill="#827769"/><rect x="11" y="14" width="1" height="1" fill="#827769"/><rect x="16" y="14" width="1" height="1" fill="#ffffff"/><rect x="18" y="14" width="1" height="1" fill="#f1f2f2"/><rect x="19" y="14" width="1" height="1" fill="#b0b0ae"/><rect x="21" y="14" width="1" height="1" fill="#ffffff"/><rect x="27" y="14" width="1" height="1" fill="#ffffff"/><rect x="30" y="14" width="1" height="1" fill="#ffffff"/><rect x="2" y="15" width="1" height="1" fill="#ffffff"/><rect x="5" y="15" width="4" height="1" fill="#7c603e"/><rect x="9" y="15" width="1" height="3" fill="#685a48"/><rect x="11" y="15" width="1" height="1" fill="#b0b0ae"/><rect x="16" y="15" width="1" height="1" fill="#b0b0ae"/><rect x="17" y="15" width="1" height="1" fill="#685a48"/><rect x="18" y="15" width="1" height="1" fill="#827769"/><rect x="19" y="15" width="1" height="2" fill="#51412b"/><rect x="20" y="15" width="2" height="1" fill="#b0b0ae"/><rect x="23" y="15" width="1" height="1" fill="#ffffff"/><rect x="0" y="16" width="1" height="1" fill="#ffffff"/><rect x="3" y="16" width="1" height="1" fill="#f1f2f2"/><rect x="4" y="16" width="1" height="1" fill="#51412b"/><rect x="5" y="16" width="3" height="1" fill="#7c603e"/><rect x="8" y="16" width="1" height="1" fill="#685a48"/><rect x="11" y="16" width="1" height="2" fill="#f1f2f2"/><rect x="14" y="16" width="1" height="1" fill="#ffffff"/><rect x="16" y="16" width="1" height="1" fill="#685a48"/><rect x="17" y="16" width="1" height="1" fill="#51412b"/><rect x="18" y="16" width="1" height="1" fill="#685a48"/><rect x="20" y="16" width="1" height="2" fill="#827769"/><rect x="21" y="16" width="1" height="1" fill="#51412b"/><rect x="22" y="16" width="2" height="1" fill="#b0b0ae"/><rect x="3" y="17" width="1" height="1" fill="#ffffff"/><rect x="4" y="17" width="1" height="1" fill="#827769"/><rect x="5" y="17" width="1" height="1" fill="#685a48"/><rect x="6" y="17" width="3" height="1" fill="#7c603e"/><rect x="12" y="17" width="1" height="3" fill="#ffffff"/><rect x="16" y="17" width="1" height="1" fill="#827769"/><rect x="17" y="17" width="1" height="2" fill="#685a48"/><rect x="18" y="17" width="1" height="1" fill="#b0b0ae"/><rect x="19" y="17" width="1" height="1" fill="#827769"/><rect x="21" y="17" width="3" height="1" fill="#685a48"/><rect x="24" y="17" width="1" height="1" fill="#ffffff"/><rect x="4" y="18" width="1" height="1" fill="#f1f2f2"/><rect x="5" y="18" width="1" height="1" fill="#51412b"/><rect x="6" y="18" width="2" height="1" fill="#7c603e"/><rect x="8" y="18" width="1" height="1" fill="#685a48"/><rect x="9" y="18" width="1" height="4" fill="#7c603e"/><rect x="11" y="18" width="1" height="1" fill="#b0b0ae"/><rect x="18" y="18" width="1" height="1" fill="#685a48"/><rect x="19" y="18" width="1" height="2" fill="#7c603e"/><rect x="20" y="18" width="1" height="1" fill="#51412b"/><rect x="21" y="18" width="2" height="1" fill="#827769"/><rect x="23" y="18" width="1" height="1" fill="#685a48"/><rect x="24" y="18" width="1" height="1" fill="#b0b0ae"/><rect x="25" y="18" width="1" height="1" fill="#f1f2f2"/><rect x="27" y="18" width="1" height="1" fill="#ffffff"/><rect x="4" y="19" width="1" height="1" fill="#ffffff"/><rect x="5" y="19" width="1" height="1" fill="#827769"/><rect x="6" y="19" width="1" height="2" fill="#51412b"/><rect x="7" y="19" width="1" height="1" fill="#7c603e"/><rect x="8" y="19" width="1" height="1" fill="#51412b"/><rect x="11" y="19" width="1" height="1" fill="#827769"/><rect x="15" y="19" width="1" height="3" fill="#ffffff"/><rect x="16" y="19" width="1" height="1" fill="#b0b0ae"/><rect x="17" y="19" width="1" height="1" fill="#51412b"/><rect x="18" y="19" width="1" height="1" fill="#827769"/><rect x="20" y="19" width="1" height="1" fill="#827769"/><rect x="21" y="19" width="1" height="2" fill="#7c603e"/><rect x="22" y="19" width="1" height="1" fill="#685a48"/><rect x="23" y="19" width="1" height="1" fill="#b0b0ae"/><rect x="24" y="19" width="1" height="1" fill="#51412b"/><rect x="25" y="19" width="1" height="1" fill="#b0b0ae"/><rect x="26" y="19" width="1" height="1" fill="#ffffff"/><rect x="0" y="20" width="1" height="1" fill="#ffffff"/><rect x="7" y="20" width="1" height="2" fill="#51412b"/><rect x="8" y="20" width="1" height="3" fill="#7c603e"/><rect x="10" y="20" width="1" height="4" fill="#7c603e"/><rect x="11" y="20" width="1" height="2" fill="#51412b"/><rect x="12" y="20" width="1" height="1" fill="#f1f2f2"/><rect x="16" y="20" width="1" height="1" fill="#827769"/><rect x="17" y="20" width="2" height="1" fill="#7c603e"/><rect x="19" y="20" width="1" height="1" fill="#685a48"/><rect x="20" y="20" width="1" height="1" fill="#7c603e"/><rect x="22" y="20" width="1" height="1" fill="#51412b"/><rect x="23" y="20" width="2" height="1" fill="#827769"/><rect x="25" y="20" width="1" height="1" fill="#f1f2f2"/><rect x="5" y="21" width="1" height="1" fill="#ffffff"/><rect x="6" y="21" width="1" height="1" fill="#b0b0ae"/><rect x="12" y="21" width="1" height="1" fill="#827769"/><rect x="13" y="21" width="1" height="1" fill="#ffffff"/><rect x="16" y="21" width="1" height="1" fill="#b0b0ae"/><rect x="17" y="21" width="1" height="2" fill="#51412b"/><rect x="18" y="21" width="1" height="1" fill="#7c603e"/><rect x="19" y="21" width="1" height="1" fill="#51412b"/><rect x="20" y="21" width="1" height="1" fill="#685a48"/><rect x="21" y="21" width="1" height="1" fill="#51412b"/><rect x="22" y="21" width="1" height="2" fill="#685a48"/><rect x="23" y="21" width="1" height="2" fill="#51412b"/><rect x="25" y="21" width="1" height="1" fill="#ffffff"/><rect x="2" y="22" width="1" height="1" fill="#ffffff"/><rect x="6" y="22" width="1" height="1" fill="#ffffff"/><rect x="7" y="22" width="1" height="1" fill="#685a48"/><rect x="9" y="22" width="1" height="1" fill="#685a48"/><rect x="11" y="22" width="1" height="1" fill="#7c603e"/><rect x="12" y="22" width="1" height="2" fill="#51412b"/><rect x="16" y="22" width="1" height="1" fill="#f1f2f2"/><rect x="18" y="22" width="1" height="3" fill="#51412b"/><rect x="19" y="22" width="1" height="1" fill="#685a48"/><rect x="20" y="22" width="2" height="1" fill="#7c603e"/><rect x="24" y="22" width="1" height="1" fill="#f1f2f2"/><rect x="7" y="23" width="1" height="1" fill="#b0b0ae"/><rect x="8" y="23" width="1" height="2" fill="#51412b"/><rect x="9" y="23" width="1" height="1" fill="#7c603e"/><rect x="11" y="23" width="1" height="2" fill="#51412b"/><rect x="16" y="23" width="1" height="1" fill="#ffffff"/><rect x="17" y="23" width="1" height="1" fill="#827769"/><rect x="19" y="23" width="2" height="1" fill="#7c603e"/><rect x="21" y="23" width="1" height="1" fill="#685a48"/><rect x="22" y="23" width="1" height="3" fill="#51412b"/><rect x="23" y="23" width="1" height="1" fill="#685a48"/><rect x="0" y="24" width="1" height="1" fill="#ffffff"/><rect x="7" y="24" width="1" height="1" fill="#f1f2f2"/><rect x="9" y="24" width="2" height="1" fill="#51412b"/><rect x="12" y="24" width="1" height="1" fill="#827769"/><rect x="17" y="24" width="1" height="1" fill="#b0b0ae"/><rect x="19" y="24" width="1" height="3" fill="#7c603e"/><rect x="20" y="24" width="1" height="1" fill="#685a48"/><rect x="21" y="24" width="1" height="1" fill="#7c603e"/><rect x="23" y="24" width="1" height="1" fill="#827769"/><rect x="24" y="24" width="1" height="2" fill="#ffffff"/><rect x="7" y="25" width="1" height="1" fill="#ffffff"/><rect x="8" y="25" width="1" height="1" fill="#f1f2f2"/><rect x="9" y="25" width="1" height="1" fill="#685a48"/><rect x="10" y="25" width="1" height="1" fill="#51412b"/><rect x="11" y="25" width="1" height="1" fill="#827769"/><rect x="16" y="25" width="1" height="1" fill="#ffffff"/><rect x="17" y="25" width="1" height="1" fill="#827769"/><rect x="18" y="25" width="1" height="1" fill="#685a48"/><rect x="20" y="25" width="1" height="2" fill="#7c603e"/><rect x="21" y="25" width="1" height="1" fill="#685a48"/><rect x="23" y="25" width="1" height="1" fill="#b0b0ae"/><rect x="8" y="26" width="2" height="1" fill="#ffffff"/><rect x="11" y="26" width="1" height="1" fill="#ffffff"/><rect x="17" y="26" width="1" height="2" fill="#685a48"/><rect x="18" y="26" width="1" height="1" fill="#7c603e"/><rect x="21" y="26" width="1" height="2" fill="#51412b"/><rect x="22" y="26" width="1" height="1" fill="#685a48"/><rect x="23" y="26" width="1" height="2" fill="#ffffff"/><rect x="27" y="26" width="1" height="1" fill="#ffffff"/><rect x="16" y="27" width="1" height="1" fill="#b0b0ae"/><rect x="18" y="27" width="1" height="1" fill="#827769"/><rect x="19" y="27" width="2" height="1" fill="#685a48"/><rect x="22" y="27" width="1" height="1" fill="#f1f2f2"/><rect x="15" y="28" width="1" height="1" fill="#ffffff"/><rect x="16" y="28" width="1" height="1" fill="#827769"/><rect x="17" y="28" width="3" height="2" fill="#7c603e"/><rect x="20" y="28" width="1" height="4" fill="#51412b"/><rect x="21" y="28" width="1" height="1" fill="#685a48"/><rect x="22" y="28" width="1" height="3" fill="#ffffff"/><rect x="0" y="29" width="1" height="1" fill="#ffffff"/><rect x="7" y="29" width="1" height="1" fill="#ffffff"/><rect x="11" y="29" width="1" height="1" fill="#ffffff"/><rect x="14" y="29" width="1" height="1" fill="#ffffff"/><rect x="15" y="29" width="1" height="3" fill="#f1f2f2"/><rect x="16" y="29" width="1" height="2" fill="#685a48"/><rect x="21" y="29" width="1" height="1" fill="#827769"/><rect x="17" y="30" width="1" height="2" fill="#7c603e"/><rect x="18" y="30" width="2" height="1" fill="#685a48"/><rect x="21" y="30" width="1" height="1" fill="#b0b0ae"/><rect x="2" y="31" width="1" height="1" fill="#ffffff"/><rect x="9" y="31" width="1" height="1" fill="#ffffff"/><rect x="16" y="31" width="1" height="1" fill="#51412b"/><rect x="18" y="31" width="1" height="1" fill="#685a48"/><rect x="19" y="31" width="1" height="1" fill="#51412b"/><rect x="21" y="31" width="1" height="1" fill="#f1f2f2"/><rect x="27" y="31" width="1" height="1" fill="#ffffff"/></svg>