<svg xmlns="http://www.w3.org/2000/svg" width="32" height="32" viewBox="0 0 32 32" shape-rendering="crispEdges"><rect x="8" y="2" width="1" height="1" fill="#fefdfd"/><rect x="17" y="2" width="4" height="1" fill="#fefdfd"/><rect x="16" y="3" width="1" height="1" fill="#fefdfd"/><rect x="17" y="3" width="1" height="1" fill="#ead5c3"/><rect x="18" y="3" width="1" height="1" fill="#a88e70"/><rect x="19" y="3" width="1" height="1" fill="#ead5c3"/><rect x="20" y="3" width="1" height="1" fill="#a88e70"/><rect x="21" y="3" width="1" height="1" fill="#ead5c3"/><rect x="22" y="3" width="1" height="1" fill="#fefdfd"/><rect x="6" y="4" width="1" height="1" fill="#fefdfd"/><rect x="10" y="4" width="1" height="1" fill="#fefdfd"/><rect x="14" y="4" width="1" height="1" fill="#fefdfd"/><rect x="16" y="4" width="1" height="2" fill="#7e6444"/><rect x="17" y="4" width="1" height="1" fill="#463623"/><rect x="18" y="4" width="1" height="1" fill="#7e6444"/><rect x="19" y="4" width="1" height="1" fill="#91714d"/><rect x="20" y="4" width="1" height="1" fill="#754b25"/><rect x="21" y="4" width="1" height="1" fill="#463623"/><rect x="22" y="4" width="1" height="1" fill="#91714d"/><rect x="28" y="4" width="1" height="1" fill="#fefdfd"/><rect x="14" y="5" width="1" height="1" fill="#ead5c3"/><rect x="15" y="5" width="1" height="1" fill="#7e6444"/><rect x="17" y="5" width="4" height="1" fill="#a88e70"/><rect x="21" y="5" width="1" height="3" fill="#91714d"/><rect x="22" y="5" width="1" height="1" fill="#463623"/><rect x="23" y="5" width="1" height="1" fill="#a88e70"/><rect x="1" y="6" width="1" height="1" fill="#fefdfd"/><rect x="8" y="6" width="1" height="1" fill="#fefdfd"/><rect x="11" y="6" width="3" height="1" fill="#fefdfd"/><rect x="14" y="6" width="1" height="2" fill="#7e6444"/><rect x="15" y="6" width="1" height="1" fill="#91714d"/><rect x="16" y="6" width="1" height="1" fill="#a88e70"/><rect x="17" y="6" width="4" height="1" fill="#91714d"/><rect x="22" y="6" width="1" height="1" fill="#7e6444"/><rect x="23" y="6" width="1" height="2" fill="#463623"/><rect x="24" y="6" width="1" height="1" fill="#ead5c3"/><rect x="25" y="6" width="1" height="1" fill="#fefdfd"/><rect x="30" y="6" width="1" height="1" fill="#fefdfd"/><rect x="10" y="7" width="1" height="1" fill="#fefdfd"/><rect x="11" y="7" width="1" height="1" fill="#ead5c3"/><rect x="12" y="7" width="2" height="1" fill="#7e6444"/><rect x="15" y="7" width="1" height="1" fill="#a88e70"/><rect x="16" y="7" width="3" height="1" fill="#91714d"/><rect x="19" y="7" width="1" height="3" fill="#7e6444"/><rect x="20" y="7" width="1" height="1" fill="#91714d"/><rect x="22" y="7" width="1" height="3" fill="#754b25"/><rect x="24" y="7" width="1" height="1" fill="#7e6444"/><rect x="3" y="8" width="1" height="1" fill="#fefdfd"/><rect x="9" y="8" width="1" height="1" fill="#fefdfd"/><rect x="10" y="8" width="1" height="1" fill="#ead5c3"/><rect x="11" y="8" width="1" height="1" fill="#463623"/><rect x="12" y="8" width="2" height="1" fill="#91714d"/><rect x="14" y="8" width="1" height="1" fill="#463623"/><rect x="15" y="8" width="2" height="1" fill="#7e6444"/><rect x="17" y="8" width="2" height="1" fill="#91714d"/><rect x="20" y="8" width="2" height="1" fill="#7e6444"/><rect x="23" y="8" width="1" height="1" fill="#754b25"/><rect x="24" y="8" width="1" height="2" fill="#463623"/><rect x="25" y="8" width="4" height="1" fill="#fefdfd"/><rect x="9" y="9" width="1" height="1" fill="#ead5c3"/><rect x="10" y="9" width="1" height="1" fill="#463623"/><rect x="11" y="9" width="3" height="1" fill="#a88e70"/><rect x="14" y="9" width="2" height="1" fill="#91714d"/><rect x="16" y="9" width="1" height="1" fill="#a88e70"/><rect x="17" y="9" width="2" height="1" fill="#7e6444"/><rect x="20" y="9" width="1" height="1" fill="#7e6444"/><rect x="21" y="9" width="1" height="2" fill="#754b25"/><rect x="23" y="9" width="1" height="2" fill="#463623"/><rect x="25" y="9" width="2" height="1" fill="#463623"/><rect x="27" y="9" width="1" height="1" fill="#ead5c3"/><rect x="1" y="10" width="1" height="1" fill="#fefdfd"/><rect x="7" y="10" width="2" height="1" fill="#fefdfd"/><rect x="9" y="10" width="1" height="1" fill="#7e6444"/><rect x="10" y="10" width="1" height="1" fill="#91714d"/><rect x="11" y="10" width="1" height="1" fill="#a88e70"/><rect x="12" y="10" width="2" height="3" fill="#91714d"/><rect x="14" y="10" width="2" height="1" fill="#a88e70"/><rect x="16" y="10" width="2" height="1" fill="#91714d"/><rect x="18" y="10" width="1" height="2" fill="#7e6444"/><rect x="19" y="10" width="1" height="1" fill="#91714d"/><rect x="20" y="10" width="1" height="1" fill="#754b25"/><rect x="22" y="10" width="1" height="1" fill="#463623"/><rect x="24" y="10" width="2" height="2" fill="#91714d"/><rect x="26" y="10" width="1" height="1" fill="#7e6444"/><rect x="27" y="10" width="1" height="1" fill="#463623"/><rect x="28" y="10" width="1" height="1" fill="#a88e70"/><rect x="29" y="10" width="1" height="1" fill="#fefdfd"/><rect x="5" y="11" width="2" height="1" fill="#fefdfd"/><rect x="7" y="11" width="2" height="1" fill="#7e6444"/><rect x="9" y="11" width="1" height="2" fill="#463623"/><rect x="10" y="11" width="1" height="1" fill="#a88e70"/><rect x="11" y="11" width="1" height="2" fill="#91714d"/><rect x="14" y="11" width="2" height="1" fill="#91714d"/><rect x="16" y="11" width="1" height="1" fill="#7e6444"/><rect x="17" y="11" width="1" height="1" fill="#91714d"/><rect x="19" y="11" width="3" height="1" fill="#463623"/><rect x="22" y="11" width="1" height="1" fill="#7e6444"/><rect x="23" y="11" width="1" height="1" fill="#a88e70"/><rect x="26" y="11" width="1" height="2" fill="#91714d"/><rect x="27" y="11" width="1" height="1" fill="#7e6444"/><rect x="28" y="11" width="1" height="3" fill="#463623"/><rect x="29" y="11" width="1" height="2" fill="#ead5c3"/><rect x="5" y="12" width="1" height="1" fill="#ead5c3"/><rect x="6" y="12" width="1" height="1" fill="#463623"/><rect x="7" y="12" width="1" height="1" fill="#7e6444"/><rect x="8" y="12" width="1" height="1" fill="#91714d"/><rect x="10" y="12" width="1" height="1" fill="#91714d"/><rect x="14" y="12" width="1" height="2" fill="#7e6444"/><rect x="15" y="12" width="2" height="1" fill="#91714d"/><rect x="17" y="12" width="1" height="2" fill="#7e6444"/><rect x="18" y="12" width="1" height="1" fill="#463623"/><rect x="19" y="12" width="1" height="1" fill="#754b25"/><rect x="20" y="12" width="2" height="1" fill="#463623"/><rect x="22" y="12" width="1" height="1" fill="#a88e70"/><rect x="23" y="12" width="1" height="3" fill="#91714d"/><rect x="24" y="12" width="1" height="1" fill="#7e6444"/><rect x="25" y="12" width="1" height="2" fill="#91714d"/><rect x="27" y="12" width="1" height="1" fill="#754b25"/><rect x="30" y="12" width="1" height="1" fill="#fefdfd"/><rect x="4" y="13" width="1" height="1" fill="#fefdfd"/><rect x="5" y="13" width="1" height="1" fill="#463623"/><rect x="6" y="13" width="1" height="1" fill="#91714d"/><rect x="7" y="13" width="2" height="1" fill="#a88e70"/><rect x="9" y="13" width="1" height="2" fill="#91714d"/><rect x="10" y="13" width="2" height="1" fill="#7e6444"/><rect x="12" y="13" width="1" height="1" fill="#a88e70"/><rect x="13" y="13" width="1" height="4" fill="#91714d"/><rect x="15" y="13" width="1" height="1" fill="#91714d"/><rect x="16" y="13" width="1" height="1" fill="#7e6444"/><rect x="18" y="13" width="3" height="1" fill="#a88e70"/><rect x="21" y="13" width="1" height="3" fill="#7e6444"/><rect x="22" y="13" width="1" height="1" fill="#91714d"/><rect x="24" y="13" width="1" height="2" fill="#91714d"/><rect x="26" y="13" width="1" height="1" fill="#7e6444"/><rect x="27" y="13" width="1" height="1" fill="#463623"/><rect x="29" y="13" width="1" height="1" fill="#463623"/><rect x="30" y="13" width="1" height="1" fill="#ead5c3"/><rect x="1" y="14" width="1" height="1" fill="#fefdfd"/><rect x="3" y="14" width="1" height="4" fill="#fefdfd"/><rect x="4" y="14" width="1" height="4" fill="#a88e70"/><rect x="5" y="14" width="1" height="1" fill="#7e6444"/><rect x="6" y="14" width="1" height="1" fill="#a88e70"/><rect x="7" y="14" width="2" height="1" fill="#91714d"/><rect x="10" y="14" width="1" height="1" fill="#7e6444"/><rect x="11" y="14" width="2" height="1" fill="#91714d"/><rect x="14" y="14" width="1" height="1" fill="#91714d"/><rect x="15" y="14" width="1" height="1" fill="#7e6444"/><rect x="16" y="14" width="1" height="1" fill="#91714d"/><rect x="17" y="14" width="1" height="1" fill="#a88e70"/><rect x="18" y="14" width="3" height="2" fill="#91714d"/><rect x="22" y="14" width="1" height="1" fill="#7e6444"/><rect x="25" y="14" width="1" height="1" fill="#7e6444"/><rect x="26" y="14" width="4" height="1" fill="#754b25"/><rect x="30" y="14" width="1" height="1" fill="#463623"/><rect x="31" y="14" width="1" height="1" fill="#a88e70"/><rect x="5" y="15" width="2" height="1" fill="#91714d"/><rect x="7" y="15" width="1" height="3" fill="#7e6444"/><rect x="8" y="15" width="1" height="1" fill="#91714d"/><rect x="9" y="15" width="1" height="1" fill="#754b25"/><rect x="10" y="15" width="2" height="2" fill="#91714d"/><rect x="12" y="15" width="1" height="3" fill="#7e6444"/><rect x="14" y="15" width="1" height="1" fill="#7e6444"/><rect x="15" y="15" width="1" height="1" fill="#754b25"/><rect x="16" y="15" width="1" height="1" fill="#a88e70"/><rect x="17" y="15" width="1" height="2" fill="#91714d"/><rect x="22" y="15" width="1" height="1" fill="#463623"/><rect x="23" y="15" width="2" height="1" fill="#7e6444"/><rect x="25" y="15" width="1" height="1" fill="#754b25"/><rect x="26" y="15" width="4" height="1" fill="#7e6444"/><rect x="30" y="15" width="1" height="1" fill="#754b25"/><rect x="31" y="15" width="1" height="3" fill="#463623"/><rect x="5" y="16" width="1" height="1" fill="#7e6444"/><rect x="6" y="16" width="1" height="1" fill="#91714d"/><rect x="8" y="16" width="1" height="2" fill="#7e6444"/><rect x="9" y="16" width="1" height="5" fill="#463623"/><rect x="14" y="16" width="1" height="1" fill="#754b25"/><rect x="15" y="16" width="1" height="2" fill="#7e6444"/><rect x="16" y="16" width="1" height="2" fill="#91714d"/><rect x="18" y="16" width="2" height="1" fill="#91714d"/><rect x="20" y="16" width="1" height="2" fill="#7e6444"/><rect x="21" y="16" width="2" height="1" fill="#754b25"/><rect x="23" y="16" width="2" height="1" fill="#463623"/><rect x="25" y="16" width="2" height="1" fill="#7e6444"/><rect x="27" y="16" width="1" height="1" fill="#463623"/><rect x="28" y="16" width="2" height="1" fill="#754b25"/><rect x="30" y="16" width="1" height="4" fill="#463623"/><rect x="5" y="17" width="1" height="1" fill="#754b25"/><rect x="6" y="17" width="1" height="1" fill="#7e6444"/><rect x="10" y="17" width="1" height="3" fill="#463623"/><rect x="11" y="17" width="1" height="1" fill="#91714d"/><rect x="13" y="17" width="1" height="1" fill="#7e6444"/><rect x="14" y="17" width="1" height="3" fill="#463623"/><rect x="17" y="17" width="3" height="1" fill="#7e6444"/><rect x="21" y="17" width="3" height="4" fill="#463623"/><rect x="24" y="17" width="1" height="1" fill="#7e6444"/><rect x="25" y="17" width="3" height="1" fill="#754b25"/><rect x="28" y="17" width="2" height="4" fill="#463623"/><rect x="1" y="18" width="1" height="1" fill="#fefdfd"/><rect x="4" y="18" width="1" height="1" fill="#ead5c3"/><rect x="5" y="18" width="1" height="1" fill="#463623"/><rect x="6" y="18" width="2" height="1" fill="#754b25"/><rect x="8" y="18" width="1" height="3" fill="#463623"/><rect x="11" y="18" width="3" height="1" fill="#754b25"/><rect x="15" y="18" width="1" height="2" fill="#463623"/><rect x="16" y="18" width="3" height="1" fill="#7e6444"/><rect x="19" y="18" width="1" height="1" fill="#754b25"/><rect x="20" y="18" width="1" height="3" fill="#463623"/><rect x="24" y="18" width="1" height="1" fill="#754b25"/><rect x="25" y="18" width="1" height="3" fill="#463623"/><rect x="26" y="18" width="1" height="1" fill="#754b25"/><rect x="27" y="18" width="1" height="4" fill="#463623"/><rect x="31" y="18" width="1" height="1" fill="#91714d"/><rect x="4" y="19" width="1" height="1" fill="#fefdfd"/><rect x="5" y="19" width="1" height="1" fill="#a88e70"/><rect x="6" y="19" width="2" height="1" fill="#463623"/><rect x="11" y="19" width="2" height="1" fill="#463623"/><rect x="13" y="19" width="1" height="1" fill="#754b25"/><rect x="16" y="19" width="1" height="2" fill="#463623"/><rect x="17" y="19" width="2" height="1" fill="#754b25"/><rect x="19" y="19" width="1" height="3" fill="#463623"/><rect x="24" y="19" width="1" height="3" fill="#463623"/><rect x="26" y="19" width="1" height="1" fill="#463623"/><rect x="31" y="19" width="1" height="1" fill="#ead5c3"/><rect x="5" y="20" width="1" height="1" fill="#fefdfd"/><rect x="6" y="20" width="1" height="1" fill="#ead5c3"/><rect x="7" y="20" width="1" height="1" fill="#463623"/><rect x="10" y="20" width="2" height="1" fill="#754b25"/><rect x="12" y="20" width="2" height="1" fill="#463623"/><rect x="14" y="20" width="2" height="2" fill="#754b25"/><rect x="17" y="20" width="2" height="1" fill="#463623"/><rect x="26" y="20" width="1" height="1" fill="#754b25"/><rect x="30" y="20" width="1" height="1" fill="#ead5c3"/><rect x="31" y="20" width="1" height="1" fill="#fefdfd"/><rect x="6" y="21" width="1" height="1" fill="#fefdfd"/><rect x="9" y="21" width="1" height="1" fill="#a88e70"/><rect x="10" y="21" width="1" height="1" fill="#463623"/><rect x="11" y="21" width="3" height="1" fill="#754b25"/><rect x="16" y="21" width="2" height="1" fill="#754b25"/><rect x="18" y="21" width="1" height="1" fill="#463623"/><rect x="20" y="21" width="4" height="1" fill="#754b25"/><rect x="25" y="21" width="1" height="1" fill="#754b25"/><rect x="26" y="21" width="1" height="1" fill="#463623"/><rect x="28" y="21" width="1" height="1" fill="#a88e70"/><rect x="29" y="21" width="1" height="1" fill="#ead5c3"/><rect x="30" y="21" width="1" height="1" fill="#fefdfd"/><rect x="1" y="22" width="1" height="1" fill="#fefdfd"/><rect x="9" y="22" width="1" height="1" fill="#fefdfd"/><rect x="10" y="22" width="1" height="1" fill="#a88e70"/><rect x="11" y="22" width="2" height="1" fill="#463623"/><rect x="13" y="22" width="1" height="1" fill="#754b25"/><rect x="14" y="22" width="2" height="1" fill="#463623"/><rect x="16" y="22" width="1" height="2" fill="#754b25"/><rect x="17" y="22" width="3" height="1" fill="#91714d"/><rect x="20" y="22" width="3" height="1" fill="#754b25"/><rect x="23" y="22" width="1" height="1" fill="#463623"/><rect x="24" y="22" width="1" height="1" fill="#7e6444"/><rect x="25" y="22" width="1" height="1" fill="#463623"/><rect x="26" y="22" width="1" height="1" fill="#91714d"/><rect x="28" y="22" width="1" height="1" fill="#fefdfd"/><rect x="8" y="23" width="1" height="1" fill="#fefdfd"/><rect x="10" y="23" width="1" height="1" fill="#fefdfd"/><rect x="12" y="23" width="1" height="1" fill="#a88e70"/><rect x="13" y="23" width="1" height="1" fill="#7e6444"/><rect x="14" y="23" width="2" height="1" fill="#a88e70"/><rect x="17" y="23" width="3" height="1" fill="#463623"/><rect x="20" y="23" width="1" height="1" fill="#7e6444"/><rect x="21" y="23" width="1" height="1" fill="#91714d"/><rect x="22" y="23" width="1" height="1" fill="#7e6444"/><rect x="23" y="23" width="1" height="4" fill="#ead5c3"/><rect x="24" y="23" width="1" height="1" fill="#fefdfd"/><rect x="26" y="23" width="1" height="1" fill="#fefdfd"/><rect x="10" y="24" width="2" height="1" fill="#ead5c3"/><rect x="12" y="24" width="1" height="2" fill="#fefdfd"/><rect x="13" y="24" width="1" height="4" fill="#ead5c3"/><rect x="14" y="24" width="1" height="1" fill="#fefdfd"/><rect x="15" y="24" width="2" height="2" fill="#ead5c3"/><rect x="17" y="24" width="1" height="1" fill="#a88e70"/><rect x="18" y="24" width="1" height="1" fill="#ead5c3"/><rect x="19" y="24" width="1" height="1" fill="#a88e70"/><rect x="20" y="24" width="2" height="1" fill="#ead5c3"/><rect x="24" y="24" width="2" height="1" fill="#ead5c3"/><rect x="10" y="25" width="1" height="1" fill="#ead5c3"/><rect x="11" y="25" width="1" height="1" fill="#fefdfd"/><rect x="17" y="25" width="1" height="7" fill="#ead5c3"/><rect x="18" y="25" width="1" height="1" fill="#fefdfd"/><rect x="19" y="25" width="1" height="5" fill="#ead5c3"/><rect x="20" y="25" width="1" height="2" fill="#fefdfd"/><rect x="21" y="25" width="1" height="1" fill="#a88e70"/><rect x="24" y="25" width="2" height="1" fill="#fefdfd"/><rect x="28" y="25" width="1" height="1" fill="#fefdfd"/><rect x="12" y="26" width="1" height="2" fill="#ead5c3"/><rect x="15" y="26" width="1" height="4" fill="#ead5c3"/><rect x="18" y="26" width="1" height="2" fill="#ead5c3"/><rect x="21" y="26" width="2" height="2" fill="#ead5c3"/><rect x="24" y="26" width="1" height="2" fill="#ead5c3"/><rect x="1" y="27" width="1" height="1" fill="#fefdfd"/><rect x="8" y="27" width="1" height="1" fill="#fefdfd"/><rect x="11" y="27" width="1" height="1" fill="#fefdfd"/><rect x="23" y="27" width="1" height="1" fill="#fefdfd"/><rect x="30" y="27" width="1" height="1" fill="#fefdfd"/><rect x="18" y="28" width="1" height="1" fill="#fefdfd"/><rect x="20" y="28" width="1" height="2" fill="#ead5c3"/><rect x="22" y="28" width="1" height="2" fill="#ead5c3"/><rect x="3" y="29" width="1" height="1" fill="#fefdfd"/><rect x="6" y="29" width="1" height="1" fill="#fefdfd"/><rect x="10" y="29" width="1" height="1" fill="#fefdfd"/><rect x="13" y="29" width="1" height="1" fill="#fefdfd"/><rect x="18" y="29" width="1" height="2" fill="#ead5c3"/><rect x="21" y="29" width="1" height="1" fill="#fefdfd"/><rect x="24" y="29" width="1" height="1" fill="#fefdfd"/><rect x="28" y="29" width="1" height="1" fill="#fefdfd"/><rect x="16" y="30" width="1" height="1" fill="#fefdfd"/><rect x="1" y="31" width="1" height="1" fill="#fefdfd"/><rect x="8" y="31" width="1" height="1" fill="#fefdfd"/><rect x="18" y="31" width="2" height="1" fill="#fefdfd"/><rect x="26" y="31" width="1" height="1" fill="#fefdfd"/></svg>