<svg xmlns="http://www.w3.org/2000/svg" width="32" height="32" viewBox="0 0 32 32" shape-rendering="crispEdges"><rect x="11" y="0" width="1" height="1" fill="#f9fafa"/><rect x="22" y="0" width="1" height="1" fill="#f9fafa"/><rect x="29" y="0" width="1" height="1" fill="#f9fafa"/><rect x="2" y="2" width="1" height="1" fill="#f9fafa"/><rect x="8" y="2" width="2" height="1" fill="#f9fafa"/><rect x="13" y="2" width="1" height="1" fill="#f9fafa"/><rect x="20" y="2" width="1" height="1" fill="#f9fafa"/><rect x="24" y="2" width="2" height="1" fill="#f9fafa"/><rect x="31" y="2" width="1" height="1" fill="#f9fafa"/><rect x="6" y="3" width="2" height="1" fill="#f9fafa"/><rect x="8" y="3" width="1" height="1" fill="#b4aea7"/><rect x="9" y="3" width="1" height="1" fill="#f9fafa"/><rect x="24" y="3" width="2" height="1" fill="#b4aea7"/><rect x="6" y="4" width="1" height="1" fill="#f9fafa"/><rect x="7" y="4" width="1" height="11" fill="#67563e"/><rect x="8" y="4" width="1" height="1" fill="#5d472b"/><rect x="9" y="4" width="1" height="1" fill="#4c3e2b"/><rect x="11" y="4" width="1" height="2" fill="#f9fafa"/><rect x="14" y="4" width="6" height="1" fill="#f9fafa"/><rect x="22" y="4" width="1" height="2" fill="#f9fafa"/><rect x="23" y="4" width="1" height="1" fill="#876840"/><rect x="24" y="4" width="2" height="1" fill="#4c3e2b"/><rect x="26" y="4" width="1" height="1" fill="#b4aea7"/><rect x="27" y="4" width="1" height="1" fill="#f9fafa"/><rect x="29" y="4" width="1" height="1" fill="#f9fafa"/><rect x="5" y="5" width="1" height="1" fill="#f9fafa"/><rect x="6" y="5" width="1" height="1" fill="#b4aea7"/><rect x="8" y="5" width="1" height="2" fill="#876840"/><rect x="9" y="5" width="1" height="15" fill="#322819"/><rect x="10" y="5" width="1" height="1" fill="#b4aea7"/><rect x="12" y="5" width="2" height="1" fill="#f9fafa"/><rect x="14" y="5" width="6" height="1" fill="#b4aea7"/><rect x="20" y="5" width="2" height="1" fill="#f9fafa"/><rect x="23" y="5" width="1" height="1" fill="#67563e"/><rect x="24" y="5" width="1" height="5" fill="#876840"/><rect x="25" y="5" width="1" height="1" fill="#5d472b"/><rect x="26" y="5" width="1" height="1" fill="#876840"/><rect x="2" y="6" width="1" height="1" fill="#f9fafa"/><rect x="5" y="6" width="1" height="1" fill="#b4aea7"/><rect x="6" y="6" width="1" height="1" fill="#322819"/><rect x="10" y="6" width="1" height="1" fill="#4c3e2b"/><rect x="11" y="6" width="2" height="1" fill="#67563e"/><rect x="13" y="6" width="1" height="1" fill="#4c3e2b"/><rect x="14" y="6" width="2" height="1" fill="#5d472b"/><rect x="16" y="6" width="1" height="1" fill="#67563e"/><rect x="17" y="6" width="2" height="1" fill="#4c3e2b"/><rect x="19" y="6" width="1" height="1" fill="#322819"/><rect x="20" y="6" width="3" height="1" fill="#5d472b"/><rect x="23" y="6" width="1" height="1" fill="#4c3e2b"/><rect x="25" y="6" width="2" height="1" fill="#322819"/><rect x="27" y="6" width="1" height="1" fill="#67563e"/><rect x="28" y="6" width="1" height="1" fill="#f9fafa"/><rect x="31" y="6" width="1" height="1" fill="#f9fafa"/><rect x="4" y="7" width="1" height="1" fill="#f9fafa"/><rect x="5" y="7" width="1" height="1" fill="#5d472b"/><rect x="6" y="7" width="1" height="1" fill="#876840"/><rect x="8" y="7" width="1" height="1" fill="#5d472b"/><rect x="10" y="7" width="3" height="1" fill="#876840"/><rect x="13" y="7" width="1" height="1" fill="#67563e"/><rect x="14" y="7" width="5" height="1" fill="#876840"/><rect x="19" y="7" width="1" height="1" fill="#5d472b"/><rect x="20" y="7" width="3" height="1" fill="#876840"/><rect x="23" y="7" width="1" height="1" fill="#5d472b"/><rect x="25" y="7" width="1" height="1" fill="#322819"/><rect x="26" y="7" width="1" height="1" fill="#67563e"/><rect x="27" y="7" width="1" height="1" fill="#4c3e2b"/><rect x="28" y="7" width="1" height="1" fill="#b4aea7"/><rect x="29" y="7" width="1" height="2" fill="#f9fafa"/><rect x="5" y="8" width="1" height="1" fill="#67563e"/><rect x="6" y="8" width="1" height="1" fill="#322819"/><rect x="8" y="8" width="1" height="1" fill="#67563e"/><rect x="10" y="8" width="4" height="1" fill="#322819"/><rect x="14" y="8" width="1" height="1" fill="#67563e"/><rect x="15" y="8" width="2" height="1" fill="#4c3e2b"/><rect x="17" y="8" width="2" height="1" fill="#5d472b"/><rect x="19" y="8" width="5" height="1" fill="#322819"/><rect x="25" y="8" width="1" height="1" fill="#4c3e2b"/><rect x="26" y="8" width="2" height="1" fill="#322819"/><rect x="28" y="8" width="1" height="1" fill="#f9fafa"/><rect x="5" y="9" width="1" height="2" fill="#f9fafa"/><rect x="6" y="9" width="1" height="1" fill="#67563e"/><rect x="8" y="9" width="1" height="1" fill="#876840"/><rect x="10" y="9" width="1" height="1" fill="#876840"/><rect x="11" y="9" width="2" height="1" fill="#b4aea7"/><rect x="13" y="9" width="1" height="1" fill="#4c3e2b"/><rect x="14" y="9" width="5" height="1" fill="#322819"/><rect x="19" y="9" width="1" height="2" fill="#4c3e2b"/><rect x="20" y="9" width="3" height="1" fill="#b4aea7"/><rect x="23" y="9" width="1" height="1" fill="#4c3e2b"/><rect x="25" y="9" width="1" height="2" fill="#322819"/><rect x="26" y="9" width="1" height="1" fill="#4c3e2b"/><rect x="27" y="9" width="1" height="1" fill="#b4aea7"/><rect x="2" y="10" width="1" height="1" fill="#f9fafa"/><rect x="6" y="10" width="1" height="7" fill="#b4aea7"/><rect x="8" y="10" width="1" height="2" fill="#67563e"/><rect x="10" y="10" width="4" height="1" fill="#f9fafa"/><rect x="14" y="10" width="1" height="1" fill="#67563e"/><rect x="15" y="10" width="1" height="1" fill="#322819"/><rect x="16" y="10" width="3" height="1" fill="#67563e"/><rect x="20" y="10" width="3" height="1" fill="#f9fafa"/><rect x="23" y="10" width="2" height="1" fill="#67563e"/><rect x="26" y="10" width="1" height="7" fill="#876840"/><rect x="27" y="10" width="1" height="1" fill="#f9fafa"/><rect x="10" y="11" width="1" height="4" fill="#f9fafa"/><rect x="12" y="11" width="2" height="1" fill="#f9fafa"/><rect x="14" y="11" width="1" height="2" fill="#b4aea7"/><rect x="15" y="11" width="1" height="3" fill="#4c3e2b"/><rect x="17" y="11" width="1" height="2" fill="#f9fafa"/><rect x="18" y="11" width="1" height="1" fill="#b4aea7"/><rect x="19" y="11" width="1" height="1" fill="#322819"/><rect x="20" y="11" width="1" height="2" fill="#b4aea7"/><rect x="22" y="11" width="1" height="1" fill="#f9fafa"/><rect x="23" y="11" width="1" height="4" fill="#67563e"/><rect x="24" y="11" width="1" height="2" fill="#876840"/><rect x="25" y="11" width="1" height="1" fill="#4c3e2b"/><rect x="5" y="12" width="1" height="3" fill="#f9fafa"/><rect x="8" y="12" width="1" height="1" fill="#876840"/><rect x="11" y="12" width="1" height="1" fill="#f9fafa"/><rect x="13" y="12" width="1" height="1" fill="#f9fafa"/><rect x="16" y="12" width="1" height="1" fill="#876840"/><rect x="18" y="12" width="1" height="2" fill="#f9fafa"/><rect x="19" y="12" width="1" height="1" fill="#4c3e2b"/><rect x="21" y="12" width="1" height="2" fill="#f9fafa"/><rect x="25" y="12" width="1" height="2" fill="#322819"/><rect x="27" y="12" width="1" height="3" fill="#f9fafa"/><rect x="8" y="13" width="1" height="2" fill="#67563e"/><rect x="12" y="13" width="1" height="1" fill="#f9fafa"/><rect x="13" y="13" width="1" height="1" fill="#67563e"/><rect x="14" y="13" width="1" height="1" fill="#5d472b"/><rect x="16" y="13" width="1" height="2" fill="#4c3e2b"/><rect x="17" y="13" width="1" height="1" fill="#67563e"/><rect x="19" y="13" width="1" height="1" fill="#67563e"/><rect x="20" y="13" width="1" height="1" fill="#5d472b"/><rect x="22" y="13" width="1" height="2" fill="#f9fafa"/><rect x="24" y="13" width="1" height="1" fill="#67563e"/><rect x="11" y="14" width="1" height="1" fill="#f9fafa"/><rect x="12" y="14" width="1" height="1" fill="#b4aea7"/><rect x="13" y="14" width="2" height="1" fill="#4c3e2b"/><rect x="15" y="14" width="1" height="1" fill="#322819"/><rect x="17" y="14" width="1" height="2" fill="#5d472b"/><rect x="18" y="14" width="1" height="1" fill="#876840"/><rect x="19" y="14" width="1" height="1" fill="#f9fafa"/><rect x="20" y="14" width="1" height="1" fill="#4c3e2b"/><rect x="21" y="14" width="1" height="1" fill="#876840"/><rect x="24" y="14" width="1" height="4" fill="#876840"/><rect x="25" y="14" width="1" height="1" fill="#4c3e2b"/><rect x="7" y="15" width="1" height="2" fill="#5d472b"/><rect x="8" y="15" width="1" height="3" fill="#876840"/><rect x="10" y="15" width="2" height="1" fill="#b4aea7"/><rect x="12" y="15" width="1" height="1" fill="#876840"/><rect x="13" y="15" width="1" height="1" fill="#5d472b"/><rect x="14" y="15" width="1" height="1" fill="#322819"/><rect x="15" y="15" width="2" height="1" fill="#5d472b"/><rect x="18" y="15" width="1" height="1" fill="#4c3e2b"/><rect x="19" y="15" width="1" height="1" fill="#b4aea7"/><rect x="20" y="15" width="1" height="1" fill="#67563e"/><rect x="21" y="15" width="1" height="1" fill="#322819"/><rect x="22" y="15" width="1" height="1" fill="#4c3e2b"/><rect x="23" y="15" width="1" height="1" fill="#5d472b"/><rect x="25" y="15" width="1" height="2" fill="#322819"/><rect x="5" y="16" width="1" height="1" fill="#f9fafa"/><rect x="10" y="16" width="1" height="1" fill="#4c3e2b"/><rect x="11" y="16" width="1" height="1" fill="#67563e"/><rect x="12" y="16" width="1" height="1" fill="#4c3e2b"/><rect x="13" y="16" width="4" height="1" fill="#876840"/><rect x="17" y="16" width="2" height="2" fill="#322819"/><rect x="19" y="16" width="1" height="1" fill="#67563e"/><rect x="20" y="16" width="2" height="1" fill="#5d472b"/><rect x="22" y="16" width="2" height="1" fill="#322819"/><rect x="27" y="16" width="1" height="1" fill="#f9fafa"/><rect x="4" y="17" width="1" height="1" fill="#f9fafa"/><rect x="5" y="17" width="1" height="1" fill="#b4aea7"/><rect x="6" y="17" width="1" height="1" fill="#4c3e2b"/><rect x="7" y="17" width="1" height="1" fill="#67563e"/><rect x="10" y="17" width="2" height="1" fill="#876840"/><rect x="12" y="17" width="2" height="1" fill="#322819"/><rect x="14" y="17" width="2" height="1" fill="#5d472b"/><rect x="16" y="17" width="1" height="1" fill="#322819"/><rect x="19" y="17" width="2" height="1" fill="#5d472b"/><rect x="21" y="17" width="1" height="1" fill="#876840"/><rect x="22" y="17" width="1" height="1" fill="#67563e"/><rect x="23" y="17" width="1" height="3" fill="#322819"/><rect x="25" y="17" width="1" height="1" fill="#4c3e2b"/><rect x="26" y="17" width="1" height="1" fill="#322819"/><rect x="27" y="17" width="1" height="1" fill="#b4aea7"/><rect x="5" y="18" width="2" height="1" fill="#67563e"/><rect x="7" y="18" width="2" height="1" fill="#4c3e2b"/><rect x="10" y="18" width="3" height="2" fill="#322819"/><rect x="13" y="18" width="1" height="1" fill="#67563e"/><rect x="14" y="18" width="1" height="2" fill="#876840"/><rect x="15" y="18" width="1" height="1" fill="#67563e"/><rect x="16" y="18" width="2" height="1" fill="#4c3e2b"/><rect x="18" y="18" width="5" height="2" fill="#322819"/><rect x="24" y="18" width="1" height="1" fill="#5d472b"/><rect x="25" y="18" width="1" height="1" fill="#322819"/><rect x="26" y="18" width="2" height="1" fill="#4c3e2b"/><rect x="28" y="18" width="1" height="5" fill="#b4aea7"/><rect x="29" y="18" width="1" height="5" fill="#f9fafa"/><rect x="2" y="19" width="1" height="1" fill="#f9fafa"/><rect x="5" y="19" width="1" height="4" fill="#67563e"/><rect x="6" y="19" width="2" height="2" fill="#876840"/><rect x="8" y="19" width="1" height="1" fill="#67563e"/><rect x="13" y="19" width="1" height="1" fill="#4c3e2b"/><rect x="15" y="19" width="2" height="1" fill="#5d472b"/><rect x="17" y="19" width="1" height="2" fill="#322819"/><rect x="24" y="19" width="1" height="1" fill="#67563e"/><rect x="25" y="19" width="1" height="1" fill="#4c3e2b"/><rect x="26" y="19" width="1" height="2" fill="#876840"/><rect x="27" y="19" width="1" height="1" fill="#5d472b"/><rect x="8" y="20" width="1" height="1" fill="#876840"/><rect x="9" y="20" width="1" height="1" fill="#5d472b"/><rect x="10" y="20" width="1" height="1" fill="#4c3e2b"/><rect x="11" y="20" width="3" height="1" fill="#322819"/><rect x="14" y="20" width="2" height="1" fill="#5d472b"/><rect x="16" y="20" width="1" height="1" fill="#322819"/><rect x="18" y="20" width="4" height="1" fill="#322819"/><rect x="22" y="20" width="1" height="1" fill="#4c3e2b"/><rect x="23" y="20" width="1" height="1" fill="#5d472b"/><rect x="24" y="20" width="2" height="1" fill="#876840"/><rect x="27" y="20" width="1" height="3" fill="#322819"/><rect x="6" y="21" width="1" height="1" fill="#876840"/><rect x="7" y="21" width="1" height="2" fill="#5d472b"/><rect x="8" y="21" width="1" height="3" fill="#67563e"/><rect x="9" y="21" width="4" height="1" fill="#876840"/><rect x="13" y="21" width="7" height="1" fill="#4c3e2b"/><rect x="20" y="21" width="4" height="1" fill="#876840"/><rect x="24" y="21" width="1" height="3" fill="#4c3e2b"/><rect x="25" y="21" width="1" height="1" fill="#67563e"/><rect x="26" y="21" width="1" height="2" fill="#4c3e2b"/><rect x="6" y="22" width="1" height="1" fill="#67563e"/><rect x="9" y="22" width="1" height="2" fill="#876840"/><rect x="10" y="22" width="1" height="3" fill="#67563e"/><rect x="11" y="22" width="1" height="1" fill="#876840"/><rect x="12" y="22" width="1" height="1" fill="#67563e"/><rect x="13" y="22" width="1" height="1" fill="#876840"/><rect x="14" y="22" width="1" height="1" fill="#b4aea7"/><rect x="15" y="22" width="4" height="1" fill="#876840"/><rect x="19" y="22" width="1" height="1" fill="#67563e"/><rect x="20" y="22" width="2" height="1" fill="#876840"/><rect x="22" y="22" width="1" height="1" fill="#5d472b"/><rect x="23" y="22" width="1" height="3" fill="#4c3e2b"/><rect x="25" y="22" width="1" height="1" fill="#4c3e2b"/><rect x="2" y="23" width="1" height="1" fill="#f9fafa"/><rect x="4" y="23" width="1" height="3" fill="#f9fafa"/><rect x="5" y="23" width="1" height="5" fill="#b4aea7"/><rect x="6" y="23" width="1" height="1" fill="#322819"/><rect x="7" y="23" width="1" height="1" fill="#4c3e2b"/><rect x="11" y="23" width="2" height="1" fill="#5d472b"/><rect x="13" y="23" width="1" height="2" fill="#67563e"/><rect x="14" y="23" width="1" height="1" fill="#5d472b"/><rect x="15" y="23" width="2" height="1" fill="#67563e"/><rect x="17" y="23" width="1" height="1" fill="#4c3e2b"/><rect x="18" y="23" width="1" height="1" fill="#5d472b"/><rect x="19" y="23" width="1" height="2" fill="#4c3e2b"/><rect x="20" y="23" width="1" height="2" fill="#5d472b"/><rect x="21" y="23" width="2" height="1" fill="#4c3e2b"/><rect x="25" y="23" width="1" height="1" fill="#5d472b"/><rect x="26" y="23" width="1" height="5" fill="#322819"/><rect x="27" y="23" width="1" height="1" fill="#4c3e2b"/><rect x="31" y="23" width="1" height="1" fill="#f9fafa"/><rect x="6" y="24" width="1" height="1" fill="#4c3e2b"/><rect x="7" y="24" width="2" height="1" fill="#322819"/><rect x="9" y="24" width="1" height="1" fill="#4c3e2b"/><rect x="11" y="24" width="1" height="1" fill="#67563e"/><rect x="12" y="24" width="1" height="1" fill="#4c3e2b"/><rect x="14" y="24" width="1" height="1" fill="#67563e"/><rect x="15" y="24" width="1" height="1" fill="#876840"/><rect x="16" y="24" width="3" height="1" fill="#67563e"/><rect x="21" y="24" width="2" height="1" fill="#5d472b"/><rect x="24" y="24" width="2" height="2" fill="#322819"/><rect x="27" y="24" width="1" height="4" fill="#67563e"/><rect x="28" y="24" width="1" height="2" fill="#f9fafa"/><rect x="0" y="25" width="1" height="1" fill="#f9fafa"/><rect x="6" y="25" width="1" height="1" fill="#5d472b"/><rect x="7" y="25" width="1" height="1" fill="#67563e"/><rect x="8" y="25" width="1" height="1" fill="#5d472b"/><rect x="9" y="25" width="4" height="1" fill="#322819"/><rect x="13" y="25" width="1" height="2" fill="#4c3e2b"/><rect x="14" y="25" width="1" height="1" fill="#5d472b"/><rect x="15" y="25" width="4" height="1" fill="#4c3e2b"/><rect x="19" y="25" width="5" height="1" fill="#322819"/><rect x="6" y="26" width="1" height="1" fill="#322819"/><rect x="7" y="26" width="1" height="2" fill="#5d472b"/><rect x="8" y="26" width="1" height="1" fill="#876840"/><rect x="9" y="26" width="1" height="1" fill="#67563e"/><rect x="10" y="26" width="1" height="2" fill="#4c3e2b"/><rect x="11" y="26" width="2" height="1" fill="#5d472b"/><rect x="14" y="26" width="9" height="1" fill="#322819"/><rect x="23" y="26" width="1" height="2" fill="#4c3e2b"/><rect x="24" y="26" width="1" height="1" fill="#5d472b"/><rect x="25" y="26" width="1" height="1" fill="#4c3e2b"/><rect x="2" y="27" width="1" height="1" fill="#f9fafa"/><rect x="4" y="27" width="1" height="3" fill="#f9fafa"/><rect x="6" y="27" width="1" height="1" fill="#5d472b"/><rect x="8" y="27" width="1" height="1" fill="#67563e"/><rect x="9" y="27" width="1" height="2" fill="#4c3e2b"/><rect x="11" y="27" width="2" height="1" fill="#876840"/><rect x="13" y="27" width="1" height="1" fill="#67563e"/><rect x="14" y="27" width="1" height="1" fill="#4c3e2b"/><rect x="15" y="27" width="2" height="1" fill="#67563e"/><rect x="17" y="27" width="3" height="1" fill="#5d472b"/><rect x="20" y="27" width="1" height="2" fill="#4c3e2b"/><rect x="21" y="27" width="1" height="1" fill="#5d472b"/><rect x="22" y="27" width="1" height="1" fill="#4c3e2b"/><rect x="24" y="27" width="1" height="1" fill="#4c3e2b"/><rect x="25" y="27" width="1" height="1" fill="#322819"/><rect x="28" y="27" width="1" height="1" fill="#f9fafa"/><rect x="31" y="27" width="1" height="1" fill="#f9fafa"/><rect x="5" y="28" width="1" height="1" fill="#876840"/><rect x="6" y="28" width="1" height="1" fill="#4c3e2b"/><rect x="7" y="28" width="1" height="1" fill="#876840"/><rect x="8" y="28" width="1" height="1" fill="#4c3e2b"/><rect x="10" y="28" width="4" height="1" fill="#5d472b"/><rect x="14" y="28" width="1" height="1" fill="#322819"/><rect x="15" y="28" width="1" height="1" fill="#5d472b"/><rect x="16" y="28" width="1" height="1" fill="#67563e"/><rect x="17" y="28" width="2" height="1" fill="#5d472b"/><rect x="19" y="28" width="1" height="1" fill="#67563e"/><rect x="21" y="28" width="1" height="2" fill="#4c3e2b"/><rect x="22" y="28" width="3" height="1" fill="#322819"/><rect x="25" y="28" width="1" height="1" fill="#5d472b"/><rect x="26" y="28" width="2" height="1" fill="#4c3e2b"/><rect x="28" y="28" width="1" height="2" fill="#b4aea7"/><rect x="29" y="28" width="1" height="1" fill="#f9fafa"/><rect x="5" y="29" width="1" height="1" fill="#b4aea7"/><rect x="6" y="29" width="1" height="1" fill="#322819"/><rect x="7" y="29" width="2" height="1" fill="#5d472b"/><rect x="9" y="29" width="2" height="1" fill="#876840"/><rect x="11" y="29" width="1" height="1" fill="#67563e"/><rect x="12" y="29" width="1" height="1" fill="#4c3e2b"/><rect x="13" y="29" width="1" height="1" fill="#322819"/><rect x="14" y="29" width="2" height="1" fill="#4c3e2b"/><rect x="16" y="29" width="2" height="1" fill="#322819"/><rect x="18" y="29" width="1" height="1" fill="#4c3e2b"/><rect x="19" y="29" width="2" height="1" fill="#322819"/><rect x="22" y="29" width="2" height="1" fill="#5d472b"/><rect x="24" y="29" width="2" height="1" fill="#4c3e2b"/><rect x="26" y="29" width="1" height="1" fill="#322819"/><rect x="27" y="29" width="1" height="1" fill="#67563e"/><rect x="5" y="30" width="1" height="1" fill="#f9fafa"/><rect x="6" y="30" width="1" height="1" fill="#876840"/><rect x="7" y="30" width="2" height="1" fill="#322819"/><rect x="9" y="30" width="2" height="1" fill="#67563e"/><rect x="11" y="30" width="1" height="1" fill="#876840"/><rect x="12" y="30" width="1" height="1" fill="#5d472b"/><rect x="13" y="30" width="1" height="1" fill="#67563e"/><rect x="14" y="30" width="2" height="1" fill="#876840"/><rect x="16" y="30" width="3" height="1" fill="#67563e"/><rect x="19" y="30" width="1" height="2" fill="#4c3e2b"/><rect x="20" y="30" width="1" height="1" fill="#67563e"/><rect x="21" y="30" width="1" height="1" fill="#5d472b"/><rect x="22" y="30" width="2" height="1" fill="#4c3e2b"/><rect x="24" y="30" width="2" height="1" fill="#322819"/><rect x="26" y="30" width="1" height="1" fill="#4c3e2b"/><rect x="27" y="30" width="1" height="1" fill="#b4aea7"/><rect x="28" y="30" width="1" height="1" fill="#f9fafa"/><rect x="6" y="31" width="1" height="1" fill="#f9fafa"/><rect x="7" y="31" width="1" height="1" fill="#b4aea7"/><rect x="8" y="31" width="1" height="1" fill="#67563e"/><rect x="9" y="31" width="1" height="1" fill="#322819"/><rect x="10" y="31" width="1" height="1" fill="#4c3e2b"/><rect x="11" y="31" width="1" height="1" fill="#67563e"/><rect x="12" y="31" width="1" height="1" fill="#4c3e2b"/><rect x="13" y="31" width="3" height="1" fill="#5d472b"/><rect x="16" y="31" width="2" height="1" fill="#4c3e2b"/><rect x="18" y="31" width="1" height="1" fill="#5d472b"/><rect x="20" y="31" width="2" height="1" fill="#4c3e2b"/><rect x="22" y="31" width="3" height="1" fill="#322819"/><rect x="25" y="31" width="1" height="1" fill="#876840"/><rect x="26" y="31" width="2" height="1" fill="#f9fafa"/></svg>