<svg xmlns="http://www.w3.org/2000/svg" width="32" height="32" viewBox="0 0 32 32" shape-rendering="crispEdges"><rect x="13" y="1" width="1" height="1" fill="#fefefe"/><rect x="24" y="1" width="1" height="1" fill="#fefefe"/><rect x="5" y="2" width="6" height="1" fill="#fefefe"/><rect x="4" y="3" width="1" height="1" fill="#fefefe"/><rect x="5" y="3" width="1" height="1" fill="#bdbebe"/><rect x="6" y="3" width="2" height="1" fill="#71614c"/><rect x="8" y="3" width="2" height="1" fill="#bdbebe"/><rect x="10" y="3" width="2" height="1" fill="#fefefe"/><rect x="15" y="3" width="1" height="1" fill="#fefefe"/><rect x="17" y="3" width="2" height="1" fill="#fefefe"/><rect x="23" y="3" width="1" height="1" fill="#fefefe"/><rect x="3" y="4" width="1" height="1" fill="#fefefe"/><rect x="4" y="4" width="1" height="1" fill="#bdbebe"/><rect x="5" y="4" width="1" height="1" fill="#533f27"/><rect x="6" y="4" width="2" height="2" fill="#8c6d47"/><rect x="8" y="4" width="1" height="1" fill="#362c1d"/><rect x="9" y="4" width="1" height="2" fill="#533f27"/><rect x="10" y="4" width="1" height="1" fill="#8c6d47"/><rect x="11" y="4" width="1" height="2" fill="#fefefe"/><rect x="16" y="4" width="1" height="1" fill="#bdbebe"/><rect x="17" y="4" width="1" height="1" fill="#71614c"/><rect x="18" y="4" width="1" height="1" fill="#fefefe"/><rect x="20" y="4" width="1" height="1" fill="#fefefe"/><rect x="21" y="4" width="1" height="1" fill="#bdbebe"/><rect x="22" y="4" width="1" height="1" fill="#71614c"/><rect x="23" y="4" width="1" height="1" fill="#bdbebe"/><rect x="2" y="5" width="1" height="1" fill="#fefefe"/><rect x="3" y="5" width="1" height="1" fill="#bdbebe"/><rect x="4" y="5" width="1" height="1" fill="#362c1d"/><rect x="5" y="5" width="1" height="2" fill="#8c6d47"/><rect x="8" y="5" width="1" height="4" fill="#71614c"/><rect x="10" y="5" width="1" height="1" fill="#71614c"/><rect x="15" y="5" width="1" height="1" fill="#fefefe"/><rect x="16" y="5" width="1" height="1" fill="#71614c"/><rect x="17" y="5" width="1" height="1" fill="#704a22"/><rect x="18" y="5" width="1" height="1" fill="#8c6d47"/><rect x="19" y="5" width="1" height="1" fill="#fefefe"/><rect x="21" y="5" width="1" height="1" fill="#71614c"/><rect x="22" y="5" width="1" height="1" fill="#704a22"/><rect x="23" y="5" width="1" height="1" fill="#71614c"/><rect x="24" y="5" width="1" height="2" fill="#fefefe"/><rect x="1" y="6" width="1" height="1" fill="#fefefe"/><rect x="2" y="6" width="1" height="1" fill="#bdbebe"/><rect x="3" y="6" width="1" height="1" fill="#533f27"/><rect x="4" y="6" width="1" height="1" fill="#8c6d47"/><rect x="6" y="6" width="1" height="1" fill="#362c1d"/><rect x="7" y="6" width="1" height="1" fill="#533f27"/><rect x="9" y="6" width="1" height="4" fill="#362c1d"/><rect x="10" y="6" width="1" height="7" fill="#bdbebe"/><rect x="14" y="6" width="1" height="1" fill="#fefefe"/><rect x="15" y="6" width="1" height="1" fill="#bdbebe"/><rect x="16" y="6" width="1" height="1" fill="#533f27"/><rect x="17" y="6" width="2" height="1" fill="#362c1d"/><rect x="19" y="6" width="1" height="1" fill="#71614c"/><rect x="20" y="6" width="4" height="1" fill="#533f27"/><rect x="1" y="7" width="1" height="1" fill="#bdbebe"/><rect x="2" y="7" width="1" height="1" fill="#533f27"/><rect x="3" y="7" width="1" height="1" fill="#8c6d47"/><rect x="4" y="7" width="1" height="1" fill="#71614c"/><rect x="5" y="7" width="1" height="1" fill="#704a22"/><rect x="6" y="7" width="1" height="1" fill="#533f27"/><rect x="7" y="7" width="1" height="2" fill="#8c6d47"/><rect x="13" y="7" width="1" height="1" fill="#fefefe"/><rect x="14" y="7" width="1" height="1" fill="#bdbebe"/><rect x="15" y="7" width="1" height="1" fill="#362c1d"/><rect x="16" y="7" width="1" height="1" fill="#704a22"/><rect x="17" y="7" width="1" height="1" fill="#8c6d47"/><rect x="18" y="7" width="1" height="1" fill="#704a22"/><rect x="19" y="7" width="4" height="1" fill="#8c6d47"/><rect x="23" y="7" width="1" height="1" fill="#533f27"/><rect x="24" y="7" width="1" height="1" fill="#bdbebe"/><rect x="25" y="7" width="1" height="1" fill="#fefefe"/><rect x="0" y="8" width="1" height="2" fill="#fefefe"/><rect x="1" y="8" width="1" height="3" fill="#71614c"/><rect x="2" y="8" width="1" height="1" fill="#704a22"/><rect x="3" y="8" width="1" height="1" fill="#533f27"/><rect x="4" y="8" width="3" height="1" fill="#8c6d47"/><rect x="11" y="8" width="1" height="3" fill="#fefefe"/><rect x="13" y="8" width="1" height="1" fill="#bdbebe"/><rect x="14" y="8" width="1" height="2" fill="#533f27"/><rect x="15" y="8" width="1" height="2" fill="#8c6d47"/><rect x="16" y="8" width="1" height="1" fill="#533f27"/><rect x="17" y="8" width="1" height="1" fill="#704a22"/><rect x="18" y="8" width="1" height="2" fill="#8c6d47"/><rect x="19" y="8" width="1" height="8" fill="#704a22"/><rect x="20" y="8" width="1" height="1" fill="#8c6d47"/><rect x="21" y="8" width="2" height="1" fill="#704a22"/><rect x="23" y="8" width="1" height="1" fill="#8c6d47"/><rect x="24" y="8" width="1" height="1" fill="#362c1d"/><rect x="25" y="8" width="1" height="1" fill="#bdbebe"/><rect x="2" y="9" width="2" height="1" fill="#8c6d47"/><rect x="4" y="9" width="1" height="1" fill="#704a22"/><rect x="5" y="9" width="3" height="1" fill="#533f27"/><rect x="8" y="9" width="1" height="1" fill="#362c1d"/><rect x="12" y="9" width="1" height="1" fill="#fefefe"/><rect x="13" y="9" width="1" height="1" fill="#8c6d47"/><rect x="16" y="9" width="1" height="2" fill="#8c6d47"/><rect x="17" y="9" width="1" height="1" fill="#533f27"/><rect x="20" y="9" width="2" height="2" fill="#704a22"/><rect x="22" y="9" width="1" height="1" fill="#533f27"/><rect x="23" y="9" width="1" height="2" fill="#704a22"/><rect x="24" y="9" width="1" height="3" fill="#533f27"/><rect x="25" y="9" width="1" height="1" fill="#71614c"/><rect x="26" y="9" width="1" height="2" fill="#fefefe"/><rect x="2" y="10" width="6" height="1" fill="#362c1d"/><rect x="8" y="10" width="2" height="1" fill="#533f27"/><rect x="13" y="10" width="1" height="1" fill="#71614c"/><rect x="14" y="10" width="2" height="1" fill="#362c1d"/><rect x="17" y="10" width="2" height="1" fill="#704a22"/><rect x="22" y="10" width="1" height="1" fill="#704a22"/><rect x="25" y="10" width="1" height="1" fill="#533f27"/><rect x="31" y="10" width="1" height="1" fill="#fefefe"/><rect x="2" y="11" width="2" height="1" fill="#8c6d47"/><rect x="4" y="11" width="1" height="4" fill="#bdbebe"/><rect x="5" y="11" width="2" height="3" fill="#362c1d"/><rect x="7" y="11" width="1" height="1" fill="#533f27"/><rect x="8" y="11" width="1" height="1" fill="#71614c"/><rect x="9" y="11" width="1" height="2" fill="#362c1d"/><rect x="12" y="11" width="1" height="1" fill="#bdbebe"/><rect x="13" y="11" width="1" height="1" fill="#533f27"/><rect x="14" y="11" width="1" height="2" fill="#8c6d47"/><rect x="15" y="11" width="1" height="1" fill="#533f27"/><rect x="16" y="11" width="1" height="1" fill="#704a22"/><rect x="17" y="11" width="1" height="3" fill="#71614c"/><rect x="18" y="11" width="1" height="1" fill="#704a22"/><rect x="20" y="11" width="1" height="1" fill="#362c1d"/><rect x="21" y="11" width="1" height="1" fill="#533f27"/><rect x="22" y="11" width="2" height="1" fill="#362c1d"/><rect x="25" y="11" width="1" height="1" fill="#362c1d"/><rect x="26" y="11" width="1" height="1" fill="#bdbebe"/><rect x="27" y="11" width="1" height="2" fill="#fefefe"/><rect x="0" y="12" width="1" height="1" fill="#fefefe"/><rect x="2" y="12" width="2" height="1" fill="#fefefe"/><rect x="7" y="12" width="1" height="5" fill="#71614c"/><rect x="8" y="12" width="1" height="1" fill="#8c6d47"/><rect x="11" y="12" width="1" height="1" fill="#fefefe"/><rect x="12" y="12" width="1" height="1" fill="#533f27"/><rect x="13" y="12" width="1" height="5" fill="#8c6d47"/><rect x="15" y="12" width="1" height="1" fill="#704a22"/><rect x="16" y="12" width="1" height="2" fill="#362c1d"/><rect x="18" y="12" width="1" height="4" fill="#533f27"/><rect x="20" y="12" width="5" height="1" fill="#704a22"/><rect x="25" y="12" width="2" height="1" fill="#533f27"/><rect x="8" y="13" width="1" height="2" fill="#71614c"/><rect x="9" y="13" width="1" height="1" fill="#533f27"/><rect x="10" y="13" width="1" height="1" fill="#71614c"/><rect x="11" y="13" width="1" height="1" fill="#8c6d47"/><rect x="12" y="13" width="1" height="1" fill="#704a22"/><rect x="14" y="13" width="2" height="1" fill="#71614c"/><rect x="20" y="13" width="4" height="1" fill="#704a22"/><rect x="24" y="13" width="1" height="1" fill="#533f27"/><rect x="25" y="13" width="2" height="1" fill="#362c1d"/><rect x="27" y="13" width="1" height="1" fill="#bdbebe"/><rect x="3" y="14" width="1" height="1" fill="#fefefe"/><rect x="5" y="14" width="2" height="1" fill="#704a22"/><rect x="9" y="14" width="1" height="1" fill="#8c6d47"/><rect x="10" y="14" width="1" height="1" fill="#704a22"/><rect x="11" y="14" width="1" height="1" fill="#71614c"/><rect x="12" y="14" width="1" height="1" fill="#8c6d47"/><rect x="14" y="14" width="2" height="2" fill="#8c6d47"/><rect x="16" y="14" width="2" height="1" fill="#533f27"/><rect x="20" y="14" width="4" height="1" fill="#533f27"/><rect x="24" y="14" width="1" height="1" fill="#704a22"/><rect x="25" y="14" width="1" height="2" fill="#362c1d"/><rect x="26" y="14" width="1" height="1" fill="#533f27"/><rect x="27" y="14" width="1" height="1" fill="#8c6d47"/><rect x="28" y="14" width="1" height="1" fill="#fefefe"/><rect x="31" y="14" width="1" height="1" fill="#fefefe"/><rect x="5" y="15" width="1" height="1" fill="#71614c"/><rect x="6" y="15" width="1" height="1" fill="#362c1d"/><rect x="8" y="15" width="1" height="2" fill="#8c6d47"/><rect x="9" y="15" width="2" height="1" fill="#71614c"/><rect x="11" y="15" width="1" height="1" fill="#8c6d47"/><rect x="12" y="15" width="1" height="1" fill="#71614c"/><rect x="16" y="15" width="1" height="1" fill="#362c1d"/><rect x="17" y="15" width="1" height="1" fill="#533f27"/><rect x="20" y="15" width="4" height="1" fill="#704a22"/><rect x="24" y="15" width="1" height="1" fill="#533f27"/><rect x="26" y="15" width="1" height="1" fill="#8c6d47"/><rect x="27" y="15" width="1" height="5" fill="#362c1d"/><rect x="28" y="15" width="1" height="1" fill="#bdbebe"/><rect x="29" y="15" width="1" height="4" fill="#fefefe"/><rect x="0" y="16" width="1" height="1" fill="#fefefe"/><rect x="4" y="16" width="1" height="1" fill="#fefefe"/><rect x="6" y="16" width="1" height="1" fill="#533f27"/><rect x="9" y="16" width="1" height="1" fill="#71614c"/><rect x="10" y="16" width="2" height="1" fill="#704a22"/><rect x="12" y="16" width="1" height="1" fill="#8c6d47"/><rect x="14" y="16" width="1" height="3" fill="#8c6d47"/><rect x="15" y="16" width="1" height="4" fill="#71614c"/><rect x="16" y="16" width="1" height="1" fill="#704a22"/><rect x="17" y="16" width="8" height="1" fill="#362c1d"/><rect x="25" y="16" width="1" height="3" fill="#533f27"/><rect x="26" y="16" width="1" height="2" fill="#704a22"/><rect x="28" y="16" width="1" height="1" fill="#533f27"/><rect x="5" y="17" width="1" height="1" fill="#fefefe"/><rect x="6" y="17" width="1" height="1" fill="#bdbebe"/><rect x="7" y="17" width="1" height="1" fill="#533f27"/><rect x="8" y="17" width="2" height="1" fill="#704a22"/><rect x="10" y="17" width="1" height="2" fill="#71614c"/><rect x="11" y="17" width="1" height="1" fill="#8c6d47"/><rect x="12" y="17" width="1" height="1" fill="#704a22"/><rect x="13" y="17" width="1" height="1" fill="#533f27"/><rect x="16" y="17" width="1" height="2" fill="#71614c"/><rect x="17" y="17" width="1" height="4" fill="#533f27"/><rect x="18" y="17" width="1" height="5" fill="#362c1d"/><rect x="19" y="17" width="1" height="1" fill="#704a22"/><rect x="20" y="17" width="1" height="3" fill="#362c1d"/><rect x="21" y="17" width="1" height="1" fill="#533f27"/><rect x="22" y="17" width="1" height="1" fill="#362c1d"/><rect x="23" y="17" width="1" height="1" fill="#533f27"/><rect x="24" y="17" width="1" height="2" fill="#704a22"/><rect x="28" y="17" width="1" height="3" fill="#362c1d"/><rect x="30" y="17" width="1" height="3" fill="#fefefe"/><rect x="2" y="18" width="1" height="1" fill="#fefefe"/><rect x="6" y="18" width="1" height="2" fill="#fefefe"/><rect x="7" y="18" width="1" height="1" fill="#362c1d"/><rect x="8" y="18" width="1" height="1" fill="#533f27"/><rect x="9" y="18" width="1" height="1" fill="#71614c"/><rect x="11" y="18" width="1" height="1" fill="#704a22"/><rect x="12" y="18" width="1" height="1" fill="#533f27"/><rect x="13" y="18" width="1" height="6" fill="#362c1d"/><rect x="19" y="18" width="1" height="1" fill="#8c6d47"/><rect x="21" y="18" width="3" height="1" fill="#704a22"/><rect x="26" y="18" width="1" height="1" fill="#8c6d47"/><rect x="7" y="19" width="1" height="1" fill="#8c6d47"/><rect x="8" y="19" width="2" height="1" fill="#362c1d"/><rect x="10" y="19" width="1" height="2" fill="#533f27"/><rect x="11" y="19" width="2" height="3" fill="#362c1d"/><rect x="14" y="19" width="1" height="1" fill="#704a22"/><rect x="16" y="19" width="1" height="3" fill="#704a22"/><rect x="19" y="19" width="1" height="1" fill="#362c1d"/><rect x="21" y="19" width="4" height="1" fill="#362c1d"/><rect x="25" y="19" width="2" height="1" fill="#704a22"/><rect x="29" y="19" width="1" height="1" fill="#bdbebe"/><rect x="4" y="20" width="1" height="1" fill="#fefefe"/><rect x="7" y="20" width="1" height="1" fill="#fefefe"/><rect x="8" y="20" width="1" height="1" fill="#bdbebe"/><rect x="9" y="20" width="1" height="1" fill="#71614c"/><rect x="14" y="20" width="1" height="1" fill="#533f27"/><rect x="15" y="20" width="1" height="1" fill="#704a22"/><rect x="19" y="20" width="2" height="1" fill="#533f27"/><rect x="21" y="20" width="3" height="2" fill="#362c1d"/><rect x="24" y="20" width="1" height="1" fill="#704a22"/><rect x="25" y="20" width="1" height="1" fill="#71614c"/><rect x="26" y="20" width="1" height="3" fill="#533f27"/><rect x="27" y="20" width="3" height="1" fill="#71614c"/><rect x="8" y="21" width="3" height="1" fill="#fefefe"/><rect x="14" y="21" width="1" height="1" fill="#362c1d"/><rect x="15" y="21" width="1" height="1" fill="#8c6d47"/><rect x="17" y="21" width="1" height="4" fill="#362c1d"/><rect x="19" y="21" width="2" height="1" fill="#362c1d"/><rect x="24" y="21" width="1" height="1" fill="#71614c"/><rect x="25" y="21" width="1" height="1" fill="#704a22"/><rect x="27" y="21" width="2" height="1" fill="#71614c"/><rect x="29" y="21" width="1" height="2" fill="#533f27"/><rect x="10" y="22" width="1" height="1" fill="#fefefe"/><rect x="11" y="22" width="2" height="3" fill="#533f27"/><rect x="14" y="22" width="1" height="1" fill="#533f27"/><rect x="15" y="22" width="1" height="1" fill="#704a22"/><rect x="16" y="22" width="1" height="1" fill="#71614c"/><rect x="18" y="22" width="1" height="10" fill="#bdbebe"/><rect x="19" y="22" width="1" height="2" fill="#fefefe"/><rect x="20" y="22" width="1" height="1" fill="#bdbebe"/><rect x="21" y="22" width="1" height="1" fill="#533f27"/><rect x="22" y="22" width="2" height="5" fill="#362c1d"/><rect x="24" y="22" width="1" height="1" fill="#533f27"/><rect x="25" y="22" width="1" height="2" fill="#71614c"/><rect x="27" y="22" width="1" height="1" fill="#71614c"/><rect x="28" y="22" width="1" height="2" fill="#bdbebe"/><rect x="9" y="23" width="1" height="2" fill="#fefefe"/><rect x="10" y="23" width="1" height="2" fill="#bdbebe"/><rect x="14" y="23" width="1" height="1" fill="#71614c"/><rect x="15" y="23" width="1" height="1" fill="#533f27"/><rect x="16" y="23" width="1" height="3" fill="#8c6d47"/><rect x="20" y="23" width="1" height="1" fill="#fefefe"/><rect x="21" y="23" width="1" height="1" fill="#71614c"/><rect x="24" y="23" width="1" height="1" fill="#362c1d"/><rect x="26" y="23" width="1" height="2" fill="#71614c"/><rect x="27" y="23" width="1" height="1" fill="#362c1d"/><rect x="29" y="23" width="1" height="2" fill="#fefefe"/><rect x="13" y="24" width="1" height="1" fill="#533f27"/><rect x="15" y="24" width="1" height="3" fill="#71614c"/><rect x="21" y="24" width="1" height="2" fill="#bdbebe"/><rect x="24" y="24" width="1" height="2" fill="#71614c"/><rect x="25" y="24" width="1" height="1" fill="#533f27"/><rect x="27" y="24" width="1" height="2" fill="#533f27"/><rect x="28" y="24" width="1" height="2" fill="#8c6d47"/><rect x="10" y="25" width="1" height="3" fill="#71614c"/><rect x="11" y="25" width="1" height="1" fill="#8c6d47"/><rect x="12" y="25" width="1" height="3" fill="#362c1d"/><rect x="13" y="25" width="1" height="1" fill="#71614c"/><rect x="17" y="25" width="1" height="1" fill="#533f27"/><rect x="19" y="25" width="1" height="2" fill="#fefefe"/><rect x="25" y="25" width="1" height="1" fill="#71614c"/><rect x="26" y="25" width="1" height="1" fill="#704a22"/><rect x="11" y="26" width="1" height="3" fill="#704a22"/><rect x="13" y="26" width="1" height="1" fill="#bdbebe"/><rect x="14" y="26" width="1" height="3" fill="#fefefe"/><rect x="16" y="26" width="1" height="1" fill="#704a22"/><rect x="17" y="26" width="1" height="1" fill="#362c1d"/><rect x="20" y="26" width="1" height="3" fill="#fefefe"/><rect x="21" y="26" width="1" height="1" fill="#8c6d47"/><rect x="24" y="26" width="1" height="1" fill="#8c6d47"/><rect x="25" y="26" width="1" height="2" fill="#bdbebe"/><rect x="26" y="26" width="1" height="2" fill="#533f27"/><rect x="27" y="26" width="1" height="2" fill="#362c1d"/><rect x="28" y="26" width="1" height="1" fill="#71614c"/><rect x="29" y="26" width="1" height="4" fill="#fefefe"/><rect x="13" y="27" width="1" height="1" fill="#fefefe"/><rect x="15" y="27" width="1" height="1" fill="#8c6d47"/><rect x="16" y="27" width="2" height="1" fill="#533f27"/><rect x="21" y="27" width="1" height="1" fill="#71614c"/><rect x="22" y="27" width="1" height="2" fill="#533f27"/><rect x="23" y="27" width="1" height="1" fill="#362c1d"/><rect x="24" y="27" width="1" height="1" fill="#bdbebe"/><rect x="28" y="27" width="1" height="3" fill="#bdbebe"/><rect x="9" y="28" width="1" height="2" fill="#bdbebe"/><rect x="10" y="28" width="1" height="1" fill="#533f27"/><rect x="12" y="28" width="1" height="1" fill="#533f27"/><rect x="15" y="28" width="1" height="1" fill="#bdbebe"/><rect x="16" y="28" width="1" height="1" fill="#8c6d47"/><rect x="17" y="28" width="1" height="1" fill="#533f27"/><rect x="21" y="28" width="1" height="4" fill="#533f27"/><rect x="23" y="28" width="1" height="1" fill="#533f27"/><rect x="25" y="28" width="1" height="1" fill="#8c6d47"/><rect x="26" y="28" width="1" height="1" fill="#704a22"/><rect x="27" y="28" width="1" height="1" fill="#533f27"/><rect x="4" y="29" width="1" height="1" fill="#fefefe"/><rect x="8" y="29" width="1" height="2" fill="#fefefe"/><rect x="10" y="29" width="1" height="1" fill="#704a22"/><rect x="11" y="29" width="1" height="1" fill="#533f27"/><rect x="12" y="29" width="1" height="2" fill="#71614c"/><rect x="13" y="29" width="1" height="2" fill="#fefefe"/><rect x="15" y="29" width="1" height="1" fill="#8c6d47"/><rect x="16" y="29" width="1" height="1" fill="#71614c"/><rect x="17" y="29" width="1" height="3" fill="#362c1d"/><rect x="19" y="29" width="1" height="1" fill="#fefefe"/><rect x="20" y="29" width="1" height="1" fill="#bdbebe"/><rect x="22" y="29" width="1" height="3" fill="#362c1d"/><rect x="23" y="29" width="1" height="1" fill="#71614c"/><rect x="24" y="29" width="1" height="2" fill="#fefefe"/><rect x="25" y="29" width="2" height="1" fill="#71614c"/><rect x="27" y="29" width="1" height="2" fill="#362c1d"/><rect x="9" y="30" width="1" height="1" fill="#71614c"/><rect x="10" y="30" width="1" height="1" fill="#8c6d47"/><rect x="11" y="30" width="1" height="2" fill="#362c1d"/><rect x="15" y="30" width="1" height="1" fill="#533f27"/><rect x="16" y="30" width="1" height="1" fill="#8c6d47"/><rect x="19" y="30" width="1" height="1" fill="#bdbebe"/><rect x="20" y="30" width="1" height="2" fill="#533f27"/><rect x="23" y="30" width="1" height="2" fill="#bdbebe"/><rect x="25" y="30" width="1" height="2" fill="#533f27"/><rect x="26" y="30" width="1" height="1" fill="#704a22"/><rect x="28" y="30" width="1" height="2" fill="#fefefe"/><rect x="2" y="31" width="1" height="1" fill="#fefefe"/><rect x="7" y="31" width="1" height="1" fill="#fefefe"/><rect x="8" y="31" width="1" height="1" fill="#533f27"/><rect x="9" y="31" width="1" height="1" fill="#704a22"/><rect x="10" y="31" width="1" height="1" fill="#71614c"/><rect x="12" y="31" width="1" height="1" fill="#bdbebe"/><rect x="14" y="31" width="1" height="1" fill="#bdbebe"/><rect x="15" y="31" width="1" height="1" fill="#362c1d"/><rect x="16" y="31" width="1" height="1" fill="#533f27"/><rect x="19" y="31" width="1" height="1" fill="#71614c"/><rect x="24" y="31" width="1" height="1" fill="#71614c"/><rect x="26" y="31" width="2" height="1" fill="#533f27"/></svg>