<svg xmlns="http://www.w3.org/2000/svg" width="32" height="32" viewBox="0 0 32 32" shape-rendering="crispEdges"><rect x="4" y="0" width="1" height="1" fill="#bbbcbb"/><rect x="5" y="0" width="1" height="1" fill="#fefefe"/><rect x="12" y="0" width="2" height="1" fill="#fefefe"/><rect x="4" y="1" width="2" height="1" fill="#54422c"/><rect x="11" y="1" width="1" height="2" fill="#fefefe"/><rect x="12" y="1" width="1" height="1" fill="#bbbcbb"/><rect x="13" y="1" width="1" height="1" fill="#705e48"/><rect x="14" y="1" width="1" height="2" fill="#bbbcbb"/><rect x="17" y="1" width="1" height="1" fill="#fefefe"/><rect x="21" y="1" width="1" height="1" fill="#fefefe"/><rect x="28" y="1" width="1" height="1" fill="#fefefe"/><rect x="2" y="2" width="2" height="1" fill="#fefefe"/><rect x="4" y="2" width="3" height="1" fill="#705e48"/><rect x="7" y="2" width="1" height="1" fill="#fefefe"/><rect x="10" y="2" width="1" height="2" fill="#fefefe"/><rect x="12" y="2" width="1" height="1" fill="#705e48"/><rect x="13" y="2" width="1" height="1" fill="#54422c"/><rect x="15" y="2" width="1" height="3" fill="#fefefe"/><rect x="4" y="3" width="1" height="1" fill="#54422c"/><rect x="5" y="3" width="1" height="1" fill="#8b6c48"/><rect x="6" y="3" width="1" height="1" fill="#54422c"/><rect x="7" y="3" width="1" height="1" fill="#bbbcbb"/><rect x="8" y="3" width="1" height="2" fill="#fefefe"/><rect x="11" y="3" width="1" height="3" fill="#705e48"/><rect x="12" y="3" width="1" height="1" fill="#8b6c48"/><rect x="13" y="3" width="1" height="2" fill="#342a1b"/><rect x="14" y="3" width="1" height="1" fill="#8b6c48"/><rect x="19" y="3" width="1" height="1" fill="#fefefe"/><rect x="26" y="3" width="1" height="1" fill="#fefefe"/><rect x="3" y="4" width="1" height="2" fill="#fefefe"/><rect x="4" y="4" width="1" height="1" fill="#8b6c48"/><rect x="5" y="4" width="1" height="1" fill="#54422c"/><rect x="6" y="4" width="1" height="1" fill="#8b6c48"/><rect x="7" y="4" width="1" height="2" fill="#342a1b"/><rect x="9" y="4" width="1" height="1" fill="#fefefe"/><rect x="10" y="4" width="1" height="1" fill="#705e48"/><rect x="12" y="4" width="1" height="1" fill="#705e48"/><rect x="14" y="4" width="1" height="1" fill="#bbbcbb"/><rect x="4" y="5" width="1" height="1" fill="#bbbcbb"/><rect x="5" y="5" width="1" height="1" fill="#342a1b"/><rect x="6" y="5" width="1" height="1" fill="#705e48"/><rect x="8" y="5" width="1" height="1" fill="#54422c"/><rect x="9" y="5" width="1" height="1" fill="#8b6c48"/><rect x="10" y="5" width="1" height="1" fill="#6d4a25"/><rect x="12" y="5" width="1" height="5" fill="#342a1b"/><rect x="13" y="5" width="1" height="1" fill="#705e48"/><rect x="14" y="5" width="1" height="3" fill="#fefefe"/><rect x="17" y="5" width="1" height="1" fill="#fefefe"/><rect x="4" y="6" width="1" height="2" fill="#fefefe"/><rect x="5" y="6" width="1" height="1" fill="#54422c"/><rect x="6" y="6" width="1" height="3" fill="#342a1b"/><rect x="7" y="6" width="1" height="3" fill="#54422c"/><rect x="8" y="6" width="2" height="2" fill="#342a1b"/><rect x="10" y="6" width="1" height="1" fill="#8b6c48"/><rect x="11" y="6" width="1" height="2" fill="#54422c"/><rect x="13" y="6" width="1" height="2" fill="#bbbcbb"/><rect x="5" y="7" width="1" height="2" fill="#bbbcbb"/><rect x="10" y="7" width="1" height="1" fill="#6d4a25"/><rect x="8" y="8" width="1" height="1" fill="#705e48"/><rect x="9" y="8" width="1" height="1" fill="#8b6c48"/><rect x="10" y="8" width="1" height="3" fill="#54422c"/><rect x="11" y="8" width="1" height="1" fill="#342a1b"/><rect x="13" y="8" width="1" height="1" fill="#54422c"/><rect x="14" y="8" width="1" height="1" fill="#bbbcbb"/><rect x="16" y="8" width="8" height="1" fill="#fefefe"/><rect x="26" y="8" width="1" height="1" fill="#fefefe"/><rect x="4" y="9" width="1" height="2" fill="#fefefe"/><rect x="5" y="9" width="1" height="1" fill="#8b6c48"/><rect x="6" y="9" width="1" height="1" fill="#705e48"/><rect x="7" y="9" width="2" height="1" fill="#8b6c48"/><rect x="9" y="9" width="1" height="1" fill="#705e48"/><rect x="11" y="9" width="1" height="1" fill="#54422c"/><rect x="13" y="9" width="1" height="2" fill="#342a1b"/><rect x="14" y="9" width="1" height="1" fill="#705e48"/><rect x="15" y="9" width="1" height="1" fill="#fefefe"/><rect x="16" y="9" width="1" height="1" fill="#bbbcbb"/><rect x="17" y="9" width="1" height="1" fill="#705e48"/><rect x="18" y="9" width="1" height="1" fill="#8b6c48"/><rect x="19" y="9" width="3" height="1" fill="#bbbcbb"/><rect x="22" y="9" width="1" height="1" fill="#705e48"/><rect x="23" y="9" width="1" height="1" fill="#bbbcbb"/><rect x="24" y="9" width="1" height="1" fill="#fefefe"/><rect x="3" y="10" width="1" height="1" fill="#fefefe"/><rect x="5" y="10" width="1" height="1" fill="#705e48"/><rect x="6" y="10" width="1" height="1" fill="#8b6c48"/><rect x="7" y="10" width="1" height="1" fill="#705e48"/><rect x="8" y="10" width="2" height="1" fill="#8b6c48"/><rect x="11" y="10" width="1" height="1" fill="#705e48"/><rect x="12" y="10" width="1" height="1" fill="#6d4a25"/><rect x="14" y="10" width="1" height="2" fill="#342a1b"/><rect x="15" y="10" width="1" height="1" fill="#8b6c48"/><rect x="16" y="10" width="1" height="1" fill="#342a1b"/><rect x="17" y="10" width="1" height="1" fill="#8b6c48"/><rect x="18" y="10" width="1" height="1" fill="#6d4a25"/><rect x="19" y="10" width="1" height="1" fill="#54422c"/><rect x="20" y="10" width="1" height="1" fill="#705e48"/><rect x="21" y="10" width="1" height="1" fill="#54422c"/><rect x="22" y="10" width="1" height="2" fill="#8b6c48"/><rect x="23" y="10" width="1" height="1" fill="#54422c"/><rect x="24" y="10" width="1" height="1" fill="#bbbcbb"/><rect x="25" y="10" width="1" height="1" fill="#fefefe"/><rect x="28" y="10" width="1" height="1" fill="#fefefe"/><rect x="4" y="11" width="1" height="1" fill="#bbbcbb"/><rect x="5" y="11" width="1" height="2" fill="#54422c"/><rect x="6" y="11" width="1" height="1" fill="#705e48"/><rect x="7" y="11" width="1" height="2" fill="#8b6c48"/><rect x="8" y="11" width="2" height="1" fill="#54422c"/><rect x="10" y="11" width="1" height="2" fill="#705e48"/><rect x="11" y="11" width="1" height="1" fill="#6d4a25"/><rect x="12" y="11" width="1" height="1" fill="#705e48"/><rect x="13" y="11" width="1" height="1" fill="#54422c"/><rect x="15" y="11" width="1" height="2" fill="#342a1b"/><rect x="16" y="11" width="1" height="1" fill="#705e48"/><rect x="17" y="11" width="1" height="1" fill="#54422c"/><rect x="18" y="11" width="1" height="1" fill="#8b6c48"/><rect x="19" y="11" width="1" height="3" fill="#6d4a25"/><rect x="20" y="11" width="2" height="1" fill="#8b6c48"/><rect x="23" y="11" width="1" height="2" fill="#8b6c48"/><rect x="24" y="11" width="1" height="1" fill="#54422c"/><rect x="25" y="11" width="1" height="1" fill="#8b6c48"/><rect x="26" y="11" width="1" height="1" fill="#bbbcbb"/><rect x="27" y="11" width="1" height="1" fill="#fefefe"/><rect x="1" y="12" width="1" height="1" fill="#fefefe"/><rect x="4" y="12" width="1" height="1" fill="#fefefe"/><rect x="6" y="12" width="1" height="2" fill="#8b6c48"/><rect x="8" y="12" width="1" height="1" fill="#342a1b"/><rect x="9" y="12" width="1" height="1" fill="#54422c"/><rect x="11" y="12" width="2" height="2" fill="#54422c"/><rect x="13" y="12" width="2" height="3" fill="#705e48"/><rect x="16" y="12" width="1" height="1" fill="#6d4a25"/><rect x="17" y="12" width="1" height="1" fill="#705e48"/><rect x="18" y="12" width="1" height="2" fill="#6d4a25"/><rect x="20" y="12" width="1" height="3" fill="#6d4a25"/><rect x="21" y="12" width="1" height="2" fill="#8b6c48"/><rect x="22" y="12" width="1" height="2" fill="#6d4a25"/><rect x="24" y="12" width="1" height="2" fill="#342a1b"/><rect x="25" y="12" width="2" height="1" fill="#54422c"/><rect x="27" y="12" width="1" height="1" fill="#8b6c48"/><rect x="3" y="13" width="1" height="3" fill="#fefefe"/><rect x="4" y="13" width="1" height="2" fill="#bbbcbb"/><rect x="5" y="13" width="1" height="1" fill="#705e48"/><rect x="7" y="13" width="1" height="2" fill="#705e48"/><rect x="8" y="13" width="2" height="1" fill="#8b6c48"/><rect x="10" y="13" width="1" height="1" fill="#54422c"/><rect x="15" y="13" width="1" height="1" fill="#705e48"/><rect x="16" y="13" width="1" height="1" fill="#342a1b"/><rect x="17" y="13" width="1" height="1" fill="#8b6c48"/><rect x="23" y="13" width="1" height="7" fill="#6d4a25"/><rect x="25" y="13" width="2" height="1" fill="#8b6c48"/><rect x="27" y="13" width="1" height="1" fill="#342a1b"/><rect x="28" y="13" width="1" height="1" fill="#8b6c48"/><rect x="29" y="13" width="1" height="1" fill="#fefefe"/><rect x="5" y="14" width="1" height="2" fill="#6d4a25"/><rect x="6" y="14" width="1" height="1" fill="#705e48"/><rect x="8" y="14" width="1" height="1" fill="#6d4a25"/><rect x="9" y="14" width="1" height="1" fill="#705e48"/><rect x="10" y="14" width="1" height="1" fill="#6d4a25"/><rect x="11" y="14" width="1" height="2" fill="#342a1b"/><rect x="12" y="14" width="1" height="2" fill="#54422c"/><rect x="15" y="14" width="1" height="4" fill="#8b6c48"/><rect x="16" y="14" width="1" height="3" fill="#54422c"/><rect x="17" y="14" width="1" height="1" fill="#705e48"/><rect x="18" y="14" width="1" height="1" fill="#54422c"/><rect x="19" y="14" width="1" height="1" fill="#8b6c48"/><rect x="21" y="14" width="1" height="4" fill="#6d4a25"/><rect x="22" y="14" width="1" height="1" fill="#54422c"/><rect x="24" y="14" width="1" height="6" fill="#6d4a25"/><rect x="25" y="14" width="1" height="1" fill="#54422c"/><rect x="26" y="14" width="2" height="1" fill="#8b6c48"/><rect x="28" y="14" width="1" height="2" fill="#342a1b"/><rect x="29" y="14" width="1" height="1" fill="#bbbcbb"/><rect x="4" y="15" width="1" height="1" fill="#705e48"/><rect x="6" y="15" width="2" height="1" fill="#6d4a25"/><rect x="8" y="15" width="3" height="1" fill="#54422c"/><rect x="13" y="15" width="1" height="1" fill="#6d4a25"/><rect x="14" y="15" width="1" height="5" fill="#705e48"/><rect x="17" y="15" width="3" height="2" fill="#6d4a25"/><rect x="20" y="15" width="1" height="3" fill="#54422c"/><rect x="22" y="15" width="1" height="2" fill="#6d4a25"/><rect x="25" y="15" width="1" height="5" fill="#342a1b"/><rect x="26" y="15" width="1" height="3" fill="#705e48"/><rect x="27" y="15" width="1" height="1" fill="#8b6c48"/><rect x="29" y="15" width="1" height="1" fill="#705e48"/><rect x="30" y="15" width="1" height="2" fill="#fefefe"/><rect x="2" y="16" width="1" height="3" fill="#fefefe"/><rect x="3" y="16" width="1" height="3" fill="#bbbcbb"/><rect x="4" y="16" width="1" height="1" fill="#54422c"/><rect x="5" y="16" width="1" height="3" fill="#8b6c48"/><rect x="6" y="16" width="1" height="1" fill="#705e48"/><rect x="7" y="16" width="2" height="1" fill="#6d4a25"/><rect x="9" y="16" width="2" height="1" fill="#342a1b"/><rect x="11" y="16" width="1" height="2" fill="#54422c"/><rect x="12" y="16" width="1" height="1" fill="#6d4a25"/><rect x="13" y="16" width="1" height="2" fill="#705e48"/><rect x="27" y="16" width="1" height="1" fill="#705e48"/><rect x="28" y="16" width="1" height="3" fill="#54422c"/><rect x="29" y="16" width="1" height="5" fill="#342a1b"/><rect x="4" y="17" width="1" height="1" fill="#705e48"/><rect x="6" y="17" width="2" height="1" fill="#54422c"/><rect x="8" y="17" width="1" height="1" fill="#342a1b"/><rect x="9" y="17" width="1" height="1" fill="#54422c"/><rect x="10" y="17" width="1" height="1" fill="#342a1b"/><rect x="12" y="17" width="1" height="3" fill="#54422c"/><rect x="16" y="17" width="1" height="6" fill="#6d4a25"/><rect x="17" y="17" width="2" height="3" fill="#54422c"/><rect x="19" y="17" width="1" height="3" fill="#6d4a25"/><rect x="22" y="17" width="1" height="1" fill="#54422c"/><rect x="27" y="17" width="1" height="2" fill="#6d4a25"/><rect x="30" y="17" width="1" height="1" fill="#bbbcbb"/><rect x="31" y="17" width="1" height="4" fill="#fefefe"/><rect x="4" y="18" width="1" height="1" fill="#6d4a25"/><rect x="6" y="18" width="1" height="1" fill="#705e48"/><rect x="7" y="18" width="1" height="1" fill="#54422c"/><rect x="8" y="18" width="1" height="1" fill="#705e48"/><rect x="10" y="18" width="1" height="2" fill="#8b6c48"/><rect x="11" y="18" width="1" height="2" fill="#342a1b"/><rect x="13" y="18" width="1" height="1" fill="#6d4a25"/><rect x="15" y="18" width="1" height="1" fill="#705e48"/><rect x="20" y="18" width="3" height="1" fill="#342a1b"/><rect x="26" y="18" width="1" height="5" fill="#6d4a25"/><rect x="30" y="18" width="1" height="2" fill="#8b6c48"/><rect x="3" y="19" width="1" height="2" fill="#fefefe"/><rect x="4" y="19" width="1" height="1" fill="#342a1b"/><rect x="5" y="19" width="1" height="1" fill="#54422c"/><rect x="6" y="19" width="1" height="1" fill="#6d4a25"/><rect x="7" y="19" width="1" height="1" fill="#342a1b"/><rect x="8" y="19" width="1" height="1" fill="#bbbcbb"/><rect x="9" y="19" width="1" height="1" fill="#fefefe"/><rect x="13" y="19" width="1" height="1" fill="#705e48"/><rect x="15" y="19" width="1" height="1" fill="#8b6c48"/><rect x="20" y="19" width="3" height="1" fill="#6d4a25"/><rect x="27" y="19" width="1" height="1" fill="#705e48"/><rect x="28" y="19" width="1" height="1" fill="#342a1b"/><rect x="1" y="20" width="1" height="1" fill="#fefefe"/><rect x="4" y="20" width="1" height="1" fill="#bbbcbb"/><rect x="5" y="20" width="1" height="1" fill="#705e48"/><rect x="6" y="20" width="1" height="1" fill="#54422c"/><rect x="7" y="20" width="1" height="1" fill="#bbbcbb"/><rect x="10" y="20" width="1" height="1" fill="#bbbcbb"/><rect x="11" y="20" width="1" height="2" fill="#54422c"/><rect x="12" y="20" width="1" height="1" fill="#6d4a25"/><rect x="13" y="20" width="2" height="3" fill="#54422c"/><rect x="15" y="20" width="1" height="1" fill="#705e48"/><rect x="17" y="20" width="1" height="1" fill="#342a1b"/><rect x="18" y="20" width="1" height="1" fill="#54422c"/><rect x="19" y="20" width="6" height="2" fill="#342a1b"/><rect x="25" y="20" width="1" height="1" fill="#54422c"/><rect x="27" y="20" width="2" height="1" fill="#54422c"/><rect x="30" y="20" width="1" height="1" fill="#705e48"/><rect x="4" y="21" width="4" height="1" fill="#fefefe"/><rect x="10" y="21" width="1" height="2" fill="#fefefe"/><rect x="12" y="21" width="1" height="1" fill="#54422c"/><rect x="15" y="21" width="1" height="1" fill="#8b6c48"/><rect x="17" y="21" width="1" height="1" fill="#54422c"/><rect x="18" y="21" width="1" height="3" fill="#342a1b"/><rect x="25" y="21" width="1" height="1" fill="#6d4a25"/><rect x="27" y="21" width="1" height="2" fill="#342a1b"/><rect x="28" y="21" width="2" height="1" fill="#705e48"/><rect x="30" y="21" width="1" height="4" fill="#342a1b"/><rect x="31" y="21" width="1" height="4" fill="#bbbcbb"/><rect x="3" y="22" width="1" height="1" fill="#fefefe"/><rect x="11" y="22" width="1" height="2" fill="#bbbcbb"/><rect x="12" y="22" width="1" height="2" fill="#342a1b"/><rect x="15" y="22" width="1" height="2" fill="#6d4a25"/><rect x="17" y="22" width="1" height="1" fill="#6d4a25"/><rect x="19" y="22" width="1" height="1" fill="#54422c"/><rect x="20" y="22" width="1" height="1" fill="#8b6c48"/><rect x="21" y="22" width="1" height="1" fill="#6d4a25"/><rect x="22" y="22" width="1" height="3" fill="#342a1b"/><rect x="23" y="22" width="1" height="1" fill="#8b6c48"/><rect x="24" y="22" width="1" height="3" fill="#342a1b"/><rect x="25" y="22" width="1" height="1" fill="#54422c"/><rect x="28" y="22" width="1" height="1" fill="#8b6c48"/><rect x="29" y="22" width="1" height="2" fill="#705e48"/><rect x="13" y="23" width="2" height="1" fill="#342a1b"/><rect x="16" y="23" width="1" height="4" fill="#8b6c48"/><rect x="17" y="23" width="1" height="1" fill="#54422c"/><rect x="19" y="23" width="1" height="1" fill="#342a1b"/><rect x="20" y="23" width="1" height="1" fill="#6d4a25"/><rect x="21" y="23" width="1" height="2" fill="#342a1b"/><rect x="23" y="23" width="1" height="1" fill="#6d4a25"/><rect x="25" y="23" width="1" height="2" fill="#342a1b"/><rect x="26" y="23" width="1" height="1" fill="#705e48"/><rect x="27" y="23" width="1" height="1" fill="#54422c"/><rect x="28" y="23" width="1" height="1" fill="#705e48"/><rect x="8" y="24" width="1" height="1" fill="#fefefe"/><rect x="10" y="24" width="1" height="6" fill="#fefefe"/><rect x="11" y="24" width="1" height="1" fill="#705e48"/><rect x="12" y="24" width="2" height="1" fill="#54422c"/><rect x="14" y="24" width="1" height="1" fill="#342a1b"/><rect x="15" y="24" width="1" height="1" fill="#54422c"/><rect x="17" y="24" width="1" height="6" fill="#342a1b"/><rect x="18" y="24" width="1" height="1" fill="#705e48"/><rect x="19" y="24" width="1" height="1" fill="#8b6c48"/><rect x="20" y="24" width="1" height="1" fill="#342a1b"/><rect x="23" y="24" width="1" height="4" fill="#342a1b"/><rect x="26" y="24" width="1" height="1" fill="#54422c"/><rect x="27" y="24" width="1" height="1" fill="#6d4a25"/><rect x="28" y="24" width="1" height="4" fill="#342a1b"/><rect x="29" y="24" width="1" height="7" fill="#bbbcbb"/><rect x="11" y="25" width="1" height="3" fill="#8b6c48"/><rect x="12" y="25" width="1" height="1" fill="#705e48"/><rect x="13" y="25" width="1" height="4" fill="#342a1b"/><rect x="14" y="25" width="2" height="1" fill="#705e48"/><rect x="18" y="25" width="1" height="1" fill="#bbbcbb"/><rect x="19" y="25" width="1" height="1" fill="#fefefe"/><rect x="20" y="25" width="1" height="1" fill="#bbbcbb"/><rect x="21" y="25" width="1" height="2" fill="#fefefe"/><rect x="22" y="25" width="1" height="1" fill="#8b6c48"/><rect x="24" y="25" width="2" height="1" fill="#54422c"/><rect x="26" y="25" width="1" height="1" fill="#342a1b"/><rect x="27" y="25" width="1" height="1" fill="#705e48"/><rect x="30" y="25" width="1" height="2" fill="#fefefe"/><rect x="12" y="26" width="1" height="2" fill="#54422c"/><rect x="14" y="26" width="2" height="1" fill="#8b6c48"/><rect x="18" y="26" width="1" height="1" fill="#8b6c48"/><rect x="22" y="26" width="1" height="1" fill="#bbbcbb"/><rect x="24" y="26" width="1" height="3" fill="#342a1b"/><rect x="25" y="26" width="1" height="2" fill="#bbbcbb"/><rect x="26" y="26" width="1" height="1" fill="#705e48"/><rect x="27" y="26" width="1" height="3" fill="#6d4a25"/><rect x="14" y="27" width="1" height="1" fill="#bbbcbb"/><rect x="15" y="27" width="1" height="2" fill="#705e48"/><rect x="16" y="27" width="1" height="2" fill="#54422c"/><rect x="18" y="27" width="1" height="1" fill="#bbbcbb"/><rect x="22" y="27" width="1" height="1" fill="#8b6c48"/><rect x="26" y="27" width="1" height="2" fill="#8b6c48"/><rect x="11" y="28" width="1" height="1" fill="#705e48"/><rect x="12" y="28" width="1" height="1" fill="#6d4a25"/><rect x="14" y="28" width="1" height="1" fill="#fefefe"/><rect x="18" y="28" width="2" height="1" fill="#fefefe"/><rect x="22" y="28" width="1" height="1" fill="#705e48"/><rect x="23" y="28" width="1" height="1" fill="#54422c"/><rect x="28" y="28" width="1" height="1" fill="#54422c"/><rect x="30" y="28" width="1" height="2" fill="#fefefe"/><rect x="1" y="29" width="1" height="1" fill="#fefefe"/><rect x="9" y="29" width="1" height="2" fill="#fefefe"/><rect x="11" y="29" width="1" height="2" fill="#54422c"/><rect x="12" y="29" width="1" height="1" fill="#705e48"/><rect x="13" y="29" width="1" height="2" fill="#54422c"/><rect x="15" y="29" width="1" height="1" fill="#8b6c48"/><rect x="16" y="29" width="1" height="1" fill="#705e48"/><rect x="18" y="29" width="1" height="3" fill="#bbbcbb"/><rect x="19" y="29" width="2" height="1" fill="#fefefe"/><rect x="21" y="29" width="1" height="1" fill="#bbbcbb"/><rect x="22" y="29" width="1" height="1" fill="#54422c"/><rect x="23" y="29" width="1" height="3" fill="#342a1b"/><rect x="24" y="29" width="1" height="1" fill="#705e48"/><rect x="26" y="29" width="1" height="1" fill="#705e48"/><rect x="27" y="29" width="1" height="1" fill="#8b6c48"/><rect x="28" y="29" width="1" height="3" fill="#342a1b"/><rect x="10" y="30" width="1" height="1" fill="#bbbcbb"/><rect x="12" y="30" width="1" height="1" fill="#54422c"/><rect x="14" y="30" width="1" height="1" fill="#fefefe"/><rect x="15" y="30" width="1" height="1" fill="#705e48"/><rect x="16" y="30" width="1" height="1" fill="#8b6c48"/><rect x="17" y="30" width="1" height="1" fill="#54422c"/><rect x="19" y="30" width="1" height="1" fill="#fefefe"/><rect x="21" y="30" width="1" height="1" fill="#705e48"/><rect x="22" y="30" width="1" height="1" fill="#342a1b"/><rect x="24" y="30" width="1" height="1" fill="#8b6c48"/><rect x="26" y="30" width="1" height="2" fill="#54422c"/><rect x="27" y="30" width="1" height="1" fill="#705e48"/><rect x="6" y="31" width="1" height="1" fill="#fefefe"/><rect x="9" y="31" width="1" height="1" fill="#bbbcbb"/><rect x="10" y="31" width="1" height="1" fill="#54422c"/><rect x="11" y="31" width="1" height="1" fill="#6d4a25"/><rect x="12" y="31" width="1" height="1" fill="#342a1b"/><rect x="13" y="31" width="2" height="1" fill="#bbbcbb"/><rect x="15" y="31" width="1" height="1" fill="#342a1b"/><rect x="16" y="31" width="1" height="1" fill="#54422c"/><rect x="17" y="31" width="1" height="1" fill="#342a1b"/><rect x="20" y="31" width="1" height="1" fill="#bbbcbb"/><rect x="21" y="31" width="1" height="1" fill="#342a1b"/><rect x="22" y="31" width="1" height="1" fill="#54422c"/><rect x="24" y="31" width="2" height="1" fill="#bbbcbb"/><rect x="27" y="31" width="1" height="1" fill="#54422c"/><rect x="29" y="31" width="1" height="1" fill="#fefefe"/></svg>