<svg xmlns="http://www.w3.org/2000/svg" width="32" height="32" viewBox="0 0 32 32" shape-rendering="crispEdges"><rect x="18" y="0" width="1" height="1" fill="#eee1d4"/><rect x="19" y="0" width="1" height="1" fill="#deab79"/><rect x="15" y="1" width="1" height="1" fill="#deab79"/><rect x="16" y="1" width="1" height="2" fill="#eee1d4"/><rect x="17" y="1" width="1" height="1" fill="#ffffff"/><rect x="18" y="1" width="2" height="1" fill="#cd7b35"/><rect x="5" y="2" width="1" height="1" fill="#ffffff"/><rect x="12" y="2" width="1" height="1" fill="#ffffff"/><rect x="15" y="2" width="1" height="1" fill="#eee1d4"/><rect x="17" y="2" width="1" height="1" fill="#eee1d4"/><rect x="18" y="2" width="1" height="2" fill="#b84605"/><rect x="19" y="2" width="1" height="1" fill="#eee1d4"/><rect x="21" y="2" width="1" height="1" fill="#eee1d4"/><rect x="23" y="2" width="1" height="1" fill="#ffffff"/><rect x="17" y="3" width="1" height="2" fill="#deab79"/><rect x="19" y="3" width="1" height="1" fill="#cd7b35"/><rect x="20" y="3" width="1" height="1" fill="#ffffff"/><rect x="21" y="3" width="1" height="1" fill="#deab79"/><rect x="3" y="4" width="1" height="1" fill="#ffffff"/><rect x="7" y="4" width="1" height="1" fill="#ffffff"/><rect x="13" y="4" width="2" height="1" fill="#eee1d4"/><rect x="16" y="4" width="1" height="2" fill="#deab79"/><rect x="18" y="4" width="1" height="6" fill="#ce6110"/><rect x="19" y="4" width="1" height="1" fill="#b84605"/><rect x="20" y="4" width="1" height="1" fill="#deab79"/><rect x="21" y="4" width="1" height="2" fill="#ffffff"/><rect x="28" y="4" width="1" height="1" fill="#ffffff"/><rect x="12" y="5" width="1" height="2" fill="#ffffff"/><rect x="13" y="5" width="2" height="1" fill="#deab79"/><rect x="15" y="5" width="1" height="1" fill="#ffffff"/><rect x="17" y="5" width="1" height="1" fill="#ce6110"/><rect x="19" y="5" width="1" height="7" fill="#ce6110"/><rect x="20" y="5" width="1" height="4" fill="#b84605"/><rect x="22" y="5" width="1" height="2" fill="#deab79"/><rect x="23" y="5" width="1" height="2" fill="#eee1d4"/><rect x="1" y="6" width="1" height="1" fill="#ffffff"/><rect x="5" y="6" width="1" height="1" fill="#ffffff"/><rect x="13" y="6" width="1" height="1" fill="#eee1d4"/><rect x="14" y="6" width="1" height="1" fill="#deab79"/><rect x="15" y="6" width="2" height="1" fill="#eee1d4"/><rect x="17" y="6" width="1" height="2" fill="#b84605"/><rect x="21" y="6" width="1" height="1" fill="#deab79"/><rect x="30" y="6" width="1" height="1" fill="#ffffff"/><rect x="14" y="7" width="1" height="1" fill="#eee1d4"/><rect x="15" y="7" width="1" height="1" fill="#deab79"/><rect x="16" y="7" width="1" height="1" fill="#eee1d4"/><rect x="21" y="7" width="1" height="1" fill="#cd7b35"/><rect x="22" y="7" width="1" height="1" fill="#eee1d4"/><rect x="23" y="7" width="1" height="1" fill="#ffffff"/><rect x="3" y="8" width="1" height="1" fill="#ffffff"/><rect x="7" y="8" width="1" height="1" fill="#ffffff"/><rect x="10" y="8" width="1" height="1" fill="#ffffff"/><rect x="13" y="8" width="1" height="2" fill="#ffffff"/><rect x="14" y="8" width="1" height="1" fill="#deab79"/><rect x="15" y="8" width="1" height="1" fill="#cd7b35"/><rect x="16" y="8" width="1" height="4" fill="#b84605"/><rect x="17" y="8" width="1" height="4" fill="#ce6110"/><rect x="21" y="8" width="1" height="3" fill="#b84605"/><rect x="22" y="8" width="1" height="1" fill="#cd7b35"/><rect x="23" y="8" width="1" height="1" fill="#eee1d4"/><rect x="28" y="8" width="1" height="1" fill="#ffffff"/><rect x="14" y="9" width="1" height="1" fill="#ce6110"/><rect x="15" y="9" width="1" height="1" fill="#b84605"/><rect x="20" y="9" width="1" height="2" fill="#ce6110"/><rect x="22" y="9" width="1" height="3" fill="#b84605"/><rect x="23" y="9" width="1" height="3" fill="#deab79"/><rect x="1" y="10" width="1" height="1" fill="#ffffff"/><rect x="5" y="10" width="1" height="1" fill="#ffffff"/><rect x="12" y="10" width="1" height="1" fill="#ffffff"/><rect x="14" y="10" width="1" height="1" fill="#cd7b35"/><rect x="15" y="10" width="1" height="1" fill="#ce6110"/><rect x="18" y="10" width="1" height="1" fill="#cd7b35"/><rect x="24" y="10" width="1" height="1" fill="#ffffff"/><rect x="26" y="10" width="1" height="1" fill="#ffffff"/><rect x="30" y="10" width="1" height="1" fill="#ffffff"/><rect x="13" y="11" width="1" height="1" fill="#eee1d4"/><rect x="14" y="11" width="1" height="2" fill="#deab79"/><rect x="15" y="11" width="1" height="2" fill="#b84605"/><rect x="18" y="11" width="1" height="1" fill="#deab79"/><rect x="20" y="11" width="1" height="1" fill="#b84605"/><rect x="21" y="11" width="1" height="4" fill="#ce6110"/><rect x="24" y="11" width="1" height="1" fill="#eee1d4"/><rect x="3" y="12" width="1" height="1" fill="#ffffff"/><rect x="7" y="12" width="1" height="1" fill="#ffffff"/><rect x="10" y="12" width="2" height="1" fill="#ffffff"/><rect x="12" y="12" width="1" height="2" fill="#eee1d4"/><rect x="13" y="12" width="1" height="1" fill="#cd7b35"/><rect x="16" y="12" width="1" height="1" fill="#ce6110"/><rect x="17" y="12" width="1" height="1" fill="#b84605"/><rect x="18" y="12" width="2" height="2" fill="#cd7b35"/><rect x="20" y="12" width="1" height="3" fill="#ce6110"/><rect x="22" y="12" width="1" height="2" fill="#cd7b35"/><rect x="23" y="12" width="1" height="1" fill="#eee1d4"/><rect x="24" y="12" width="1" height="2" fill="#deab79"/><rect x="25" y="12" width="1" height="1" fill="#ffffff"/><rect x="28" y="12" width="1" height="1" fill="#ffffff"/><rect x="11" y="13" width="1" height="1" fill="#ffffff"/><rect x="13" y="13" width="2" height="1" fill="#b84605"/><rect x="15" y="13" width="1" height="1" fill="#ce6110"/><rect x="16" y="13" width="1" height="1" fill="#cd7b35"/><rect x="17" y="13" width="1" height="2" fill="#ce6110"/><rect x="23" y="13" width="1" height="1" fill="#cd7b35"/><rect x="1" y="14" width="1" height="1" fill="#ffffff"/><rect x="5" y="14" width="1" height="1" fill="#ffffff"/><rect x="13" y="14" width="1" height="1" fill="#cd7b35"/><rect x="14" y="14" width="1" height="1" fill="#ce6110"/><rect x="15" y="14" width="1" height="1" fill="#b84605"/><rect x="16" y="14" width="1" height="2" fill="#ce6110"/><rect x="18" y="14" width="1" height="8" fill="#deab79"/><rect x="19" y="14" width="1" height="2" fill="#ce6110"/><rect x="22" y="14" width="2" height="1" fill="#b84605"/><rect x="24" y="14" width="1" height="1" fill="#ce6110"/><rect x="26" y="14" width="1" height="1" fill="#ffffff"/><rect x="30" y="14" width="1" height="1" fill="#ffffff"/><rect x="13" y="15" width="1" height="1" fill="#eee1d4"/><rect x="14" y="15" width="1" height="2" fill="#b84605"/><rect x="15" y="15" width="1" height="7" fill="#ce6110"/><rect x="17" y="15" width="1" height="1" fill="#cd7b35"/><rect x="20" y="15" width="1" height="1" fill="#cd7b35"/><rect x="21" y="15" width="1" height="2" fill="#b84605"/><rect x="22" y="15" width="1" height="3" fill="#ce6110"/><rect x="23" y="15" width="1" height="6" fill="#b84605"/><rect x="24" y="15" width="1" height="1" fill="#deab79"/><rect x="25" y="15" width="1" height="1" fill="#ffffff"/><rect x="3" y="16" width="1" height="1" fill="#ffffff"/><rect x="7" y="16" width="1" height="1" fill="#ffffff"/><rect x="11" y="16" width="1" height="1" fill="#ffffff"/><rect x="12" y="16" width="1" height="1" fill="#deab79"/><rect x="13" y="16" width="1" height="2" fill="#ce6110"/><rect x="16" y="16" width="1" height="3" fill="#cd7b35"/><rect x="17" y="16" width="1" height="1" fill="#ce6110"/><rect x="19" y="16" width="1" height="2" fill="#deab79"/><rect x="20" y="16" width="1" height="2" fill="#ce6110"/><rect x="24" y="16" width="1" height="1" fill="#ffffff"/><rect x="28" y="16" width="1" height="1" fill="#ffffff"/><rect x="12" y="17" width="1" height="1" fill="#eee1d4"/><rect x="14" y="17" width="1" height="1" fill="#ce6110"/><rect x="17" y="17" width="1" height="1" fill="#cd7b35"/><rect x="21" y="17" width="1" height="1" fill="#ce6110"/><rect x="24" y="17" width="1" height="1" fill="#cd7b35"/><rect x="5" y="18" width="1" height="1" fill="#ffffff"/><rect x="12" y="18" width="1" height="1" fill="#ffffff"/><rect x="13" y="18" width="1" height="1" fill="#cd7b35"/><rect x="14" y="18" width="1" height="2" fill="#b84605"/><rect x="17" y="18" width="1" height="1" fill="#deab79"/><rect x="19" y="18" width="3" height="1" fill="#cd7b35"/><rect x="22" y="18" width="1" height="2" fill="#b84605"/><rect x="24" y="18" width="1" height="2" fill="#eee1d4"/><rect x="30" y="18" width="1" height="1" fill="#ffffff"/><rect x="12" y="19" width="1" height="2" fill="#eee1d4"/><rect x="13" y="19" width="1" height="1" fill="#b84605"/><rect x="16" y="19" width="1" height="1" fill="#ce6110"/><rect x="17" y="19" width="1" height="1" fill="#cd7b35"/><rect x="19" y="19" width="1" height="2" fill="#deab79"/><rect x="20" y="19" width="1" height="2" fill="#cd7b35"/><rect x="21" y="19" width="1" height="1" fill="#ce6110"/><rect x="13" y="20" width="1" height="1" fill="#cd7b35"/><rect x="14" y="20" width="1" height="1" fill="#ce6110"/><rect x="16" y="20" width="1" height="1" fill="#deab79"/><rect x="17" y="20" width="1" height="1" fill="#ce6110"/><rect x="21" y="20" width="1" height="1" fill="#b84605"/><rect x="22" y="20" width="1" height="1" fill="#ce6110"/><rect x="24" y="20" width="1" height="1" fill="#deab79"/><rect x="25" y="20" width="1" height="1" fill="#ffffff"/><rect x="12" y="21" width="1" height="1" fill="#ffffff"/><rect x="13" y="21" width="1" height="1" fill="#eee1d4"/><rect x="14" y="21" width="1" height="1" fill="#b84605"/><rect x="16" y="21" width="1" height="1" fill="#ce6110"/><rect x="17" y="21" width="1" height="1" fill="#cd7b35"/><rect x="19" y="21" width="1" height="1" fill="#cd7b35"/><rect x="20" y="21" width="2" height="1" fill="#ce6110"/><rect x="22" y="21" width="1" height="1" fill="#b84605"/><rect x="23" y="21" width="1" height="1" fill="#cd7b35"/><rect x="24" y="21" width="1" height="1" fill="#ffffff"/><rect x="13" y="22" width="1" height="1" fill="#deab79"/><rect x="14" y="22" width="1" height="7" fill="#543e23"/><rect x="15" y="22" width="2" height="1" fill="#b84605"/><rect x="17" y="22" width="1" height="1" fill="#ce6110"/><rect x="18" y="22" width="1" height="1" fill="#cd7b35"/><rect x="19" y="22" width="2" height="1" fill="#ce6110"/><rect x="21" y="22" width="1" height="1" fill="#b84605"/><rect x="22" y="22" width="2" height="10" fill="#543e23"/><rect x="24" y="22" width="1" height="1" fill="#eee1d4"/><rect x="5" y="23" width="1" height="1" fill="#ffffff"/><rect x="11" y="23" width="1" height="2" fill="#ffffff"/><rect x="12" y="23" width="1" height="2" fill="#eee1d4"/><rect x="13" y="23" width="1" height="2" fill="#543e23"/><rect x="15" y="23" width="2" height="1" fill="#543e23"/><rect x="17" y="23" width="3" height="1" fill="#b84605"/><rect x="20" y="23" width="2" height="1" fill="#543e23"/><rect x="24" y="23" width="1" height="2" fill="#543e23"/><rect x="15" y="24" width="1" height="1" fill="#cd7b35"/><rect x="16" y="24" width="1" height="1" fill="#b84605"/><rect x="17" y="24" width="3" height="1" fill="#543e23"/><rect x="20" y="24" width="1" height="1" fill="#b84605"/><rect x="21" y="24" width="1" height="6" fill="#543e23"/><rect x="25" y="24" width="1" height="2" fill="#ffffff"/><rect x="3" y="25" width="1" height="1" fill="#ffffff"/><rect x="10" y="25" width="1" height="1" fill="#ffffff"/><rect x="12" y="25" width="1" height="2" fill="#ffffff"/><rect x="13" y="25" width="1" height="1" fill="#cd7b35"/><rect x="15" y="25" width="2" height="2" fill="#543e23"/><rect x="17" y="25" width="3" height="1" fill="#cd7b35"/><rect x="20" y="25" width="1" height="5" fill="#543e23"/><rect x="24" y="25" width="1" height="1" fill="#eee1d4"/><rect x="28" y="25" width="1" height="1" fill="#ffffff"/><rect x="13" y="26" width="1" height="1" fill="#deab79"/><rect x="17" y="26" width="3" height="4" fill="#543e23"/><rect x="24" y="26" width="1" height="1" fill="#ffffff"/><rect x="5" y="27" width="1" height="1" fill="#ffffff"/><rect x="11" y="27" width="1" height="1" fill="#ffffff"/><rect x="13" y="27" width="1" height="5" fill="#543e23"/><rect x="15" y="27" width="1" height="1" fill="#cd7b35"/><rect x="16" y="27" width="1" height="3" fill="#543e23"/><rect x="24" y="27" width="1" height="1" fill="#eee1d4"/><rect x="25" y="27" width="1" height="1" fill="#ffffff"/><rect x="30" y="27" width="1" height="1" fill="#ffffff"/><rect x="11" y="28" width="1" height="1" fill="#eee1d4"/><rect x="12" y="28" width="1" height="1" fill="#543e23"/><rect x="15" y="28" width="1" height="4" fill="#543e23"/><rect x="24" y="28" width="1" height="1" fill="#543e23"/><rect x="25" y="28" width="1" height="1" fill="#deab79"/><rect x="3" y="29" width="1" height="1" fill="#ffffff"/><rect x="11" y="29" width="1" height="2" fill="#543e23"/><rect x="12" y="29" width="1" height="1" fill="#cd7b35"/><rect x="14" y="29" width="1" height="1" fill="#cd7b35"/><rect x="24" y="29" width="1" height="1" fill="#b84605"/><rect x="25" y="29" width="1" height="3" fill="#543e23"/><rect x="26" y="29" width="1" height="2" fill="#eee1d4"/><rect x="10" y="30" width="1" height="1" fill="#ffffff"/><rect x="12" y="30" width="1" height="2" fill="#543e23"/><rect x="14" y="30" width="1" height="2" fill="#543e23"/><rect x="16" y="30" width="1" height="1" fill="#cd7b35"/><rect x="17" y="30" width="1" height="2" fill="#543e23"/><rect x="18" y="30" width="1" height="1" fill="#cd7b35"/><rect x="19" y="30" width="1" height="2" fill="#543e23"/><rect x="20" y="30" width="1" height="1" fill="#cd7b35"/><rect x="21" y="30" width="1" height="1" fill="#b84605"/><rect x="24" y="30" width="1" height="2" fill="#543e23"/><rect x="27" y="30" width="1" height="1" fill="#ffffff"/><rect x="11" y="31" width="1" height="1" fill="#deab79"/><rect x="16" y="31" width="1" height="1" fill="#543e23"/><rect x="18" y="31" width="1" height="1" fill="#543e23"/><rect x="20" y="31" width="2" height="1" fill="#543e23"/><rect x="30" y="31" width="1" height="1" fill="#ffffff"/></svg>