<svg xmlns="http://www.w3.org/2000/svg" width="32" height="32" viewBox="0 0 32 32" shape-rendering="crispEdges"><rect x="5" y="0" width="1" height="1" fill="#ffffff"/><rect x="12" y="0" width="1" height="1" fill="#ffffff"/><rect x="19" y="0" width="1" height="1" fill="#ffffff"/><rect x="30" y="0" width="1" height="1" fill="#ffffff"/><rect x="22" y="1" width="6" height="1" fill="#ffffff"/><rect x="3" y="2" width="1" height="1" fill="#ffffff"/><rect x="7" y="2" width="1" height="1" fill="#ffffff"/><rect x="10" y="2" width="1" height="1" fill="#ffffff"/><rect x="14" y="2" width="1" height="1" fill="#ffffff"/><rect x="17" y="2" width="1" height="1" fill="#ffffff"/><rect x="21" y="2" width="1" height="1" fill="#ffffff"/><rect x="22" y="2" width="5" height="1" fill="#8b6f4c"/><rect x="27" y="2" width="1" height="1" fill="#cacbcb"/><rect x="28" y="2" width="1" height="1" fill="#ffffff"/><rect x="20" y="3" width="1" height="1" fill="#ffffff"/><rect x="21" y="3" width="1" height="1" fill="#8b6f4c"/><rect x="22" y="3" width="1" height="1" fill="#463520"/><rect x="23" y="3" width="2" height="2" fill="#8b6f4c"/><rect x="25" y="3" width="2" height="1" fill="#685a46"/><rect x="27" y="3" width="1" height="1" fill="#463520"/><rect x="28" y="3" width="1" height="1" fill="#cacbcb"/><rect x="29" y="3" width="1" height="1" fill="#ffffff"/><rect x="1" y="4" width="1" height="1" fill="#ffffff"/><rect x="5" y="4" width="1" height="1" fill="#ffffff"/><rect x="12" y="4" width="1" height="1" fill="#ffffff"/><rect x="19" y="4" width="1" height="1" fill="#ffffff"/><rect x="20" y="4" width="1" height="1" fill="#8b6f4c"/><rect x="21" y="4" width="1" height="1" fill="#685a46"/><rect x="22" y="4" width="1" height="2" fill="#8b6f4c"/><rect x="25" y="4" width="3" height="1" fill="#8b6f4c"/><rect x="28" y="4" width="1" height="2" fill="#463520"/><rect x="29" y="4" width="1" height="1" fill="#cacbcb"/><rect x="30" y="4" width="1" height="2" fill="#ffffff"/><rect x="19" y="5" width="1" height="1" fill="#cacbcb"/><rect x="20" y="5" width="1" height="1" fill="#463520"/><rect x="21" y="5" width="1" height="2" fill="#8b6f4c"/><rect x="23" y="5" width="1" height="1" fill="#685a46"/><rect x="24" y="5" width="2" height="1" fill="#463520"/><rect x="26" y="5" width="1" height="1" fill="#685a46"/><rect x="27" y="5" width="1" height="2" fill="#8b6f4c"/><rect x="29" y="5" width="1" height="1" fill="#8b6f4c"/><rect x="3" y="6" width="1" height="1" fill="#ffffff"/><rect x="7" y="6" width="1" height="1" fill="#ffffff"/><rect x="10" y="6" width="1" height="1" fill="#ffffff"/><rect x="14" y="6" width="1" height="1" fill="#ffffff"/><rect x="18" y="6" width="1" height="1" fill="#fffffe"/><rect x="19" y="6" width="1" height="1" fill="#8b6f4c"/><rect x="20" y="6" width="1" height="1" fill="#685a46"/><rect x="22" y="6" width="2" height="1" fill="#463520"/><rect x="24" y="6" width="1" height="1" fill="#685a46"/><rect x="25" y="6" width="2" height="1" fill="#463520"/><rect x="28" y="6" width="1" height="4" fill="#685a46"/><rect x="29" y="6" width="1" height="4" fill="#463520"/><rect x="30" y="6" width="1" height="4" fill="#feffff"/><rect x="18" y="7" width="1" height="1" fill="#ffffff"/><rect x="19" y="7" width="1" height="4" fill="#685a46"/><rect x="20" y="7" width="1" height="3" fill="#8b6f4c"/><rect x="21" y="7" width="1" height="1" fill="#685a46"/><rect x="22" y="7" width="1" height="1" fill="#463520"/><rect x="23" y="7" width="1" height="1" fill="#8b6f4c"/><rect x="24" y="7" width="1" height="1" fill="#ffffff"/><rect x="25" y="7" width="1" height="1" fill="#cacbcb"/><rect x="26" y="7" width="1" height="1" fill="#463520"/><rect x="27" y="7" width="1" height="1" fill="#685a46"/><rect x="31" y="7" width="1" height="1" fill="#ffffff"/><rect x="1" y="8" width="1" height="1" fill="#ffffff"/><rect x="5" y="8" width="1" height="1" fill="#ffffff"/><rect x="12" y="8" width="1" height="1" fill="#ffffff"/><rect x="18" y="8" width="1" height="3" fill="#cacbcb"/><rect x="21" y="8" width="1" height="2" fill="#463520"/><rect x="22" y="8" width="1" height="1" fill="#8b6f4c"/><rect x="23" y="8" width="1" height="1" fill="#ffffff"/><rect x="24" y="8" width="1" height="1" fill="#feffff"/><rect x="25" y="8" width="1" height="2" fill="#ffffff"/><rect x="26" y="8" width="1" height="1" fill="#cacbcb"/><rect x="27" y="8" width="1" height="1" fill="#463520"/><rect x="31" y="8" width="1" height="1" fill="#fffffe"/><rect x="17" y="9" width="1" height="3" fill="#ffffff"/><rect x="22" y="9" width="1" height="1" fill="#cacbcb"/><rect x="26" y="9" width="1" height="2" fill="#685a46"/><rect x="27" y="9" width="1" height="2" fill="#8b6f4c"/><rect x="31" y="9" width="1" height="1" fill="#ffffff"/><rect x="3" y="10" width="1" height="1" fill="#ffffff"/><rect x="14" y="10" width="1" height="1" fill="#ffffff"/><rect x="20" y="10" width="2" height="1" fill="#685a46"/><rect x="22" y="10" width="1" height="2" fill="#feffff"/><rect x="23" y="10" width="1" height="1" fill="#ffffff"/><rect x="24" y="10" width="1" height="1" fill="#cacbcb"/><rect x="25" y="10" width="1" height="2" fill="#685a46"/><rect x="28" y="10" width="1" height="2" fill="#463520"/><rect x="29" y="10" width="1" height="1" fill="#685a46"/><rect x="18" y="11" width="2" height="1" fill="#8b6f4c"/><rect x="20" y="11" width="1" height="1" fill="#685a46"/><rect x="21" y="11" width="1" height="1" fill="#463520"/><rect x="23" y="11" width="1" height="1" fill="#cacbcb"/><rect x="24" y="11" width="1" height="1" fill="#463520"/><rect x="26" y="11" width="1" height="1" fill="#8b6f4c"/><rect x="27" y="11" width="1" height="2" fill="#463520"/><rect x="29" y="11" width="1" height="1" fill="#cacbcb"/><rect x="30" y="11" width="1" height="1" fill="#ffffff"/><rect x="18" y="12" width="1" height="3" fill="#685a46"/><rect x="19" y="12" width="1" height="3" fill="#8b6f4c"/><rect x="20" y="12" width="1" height="6" fill="#463520"/><rect x="21" y="12" width="1" height="1" fill="#685a46"/><rect x="23" y="12" width="1" height="1" fill="#685a46"/><rect x="24" y="12" width="2" height="1" fill="#8b6f4c"/><rect x="26" y="12" width="1" height="2" fill="#463520"/><rect x="28" y="12" width="1" height="1" fill="#8b6f4c"/><rect x="29" y="12" width="1" height="1" fill="#ffffff"/><rect x="16" y="13" width="1" height="2" fill="#ffffff"/><rect x="17" y="13" width="1" height="2" fill="#cacbcb"/><rect x="21" y="13" width="2" height="2" fill="#cacbcb"/><rect x="23" y="13" width="1" height="4" fill="#463520"/><rect x="24" y="13" width="1" height="1" fill="#8b6f4c"/><rect x="25" y="13" width="1" height="3" fill="#463520"/><rect x="27" y="13" width="1" height="1" fill="#cacbcb"/><rect x="28" y="13" width="1" height="1" fill="#ffffff"/><rect x="24" y="14" width="1" height="1" fill="#685a46"/><rect x="26" y="14" width="1" height="1" fill="#feffff"/><rect x="27" y="14" width="1" height="1" fill="#ffffff"/><rect x="16" y="15" width="1" height="2" fill="#feffff"/><rect x="17" y="15" width="1" height="1" fill="#685a46"/><rect x="18" y="15" width="2" height="1" fill="#463520"/><rect x="22" y="15" width="1" height="1" fill="#cacbcb"/><rect x="24" y="15" width="1" height="1" fill="#8b6f4c"/><rect x="26" y="15" width="1" height="1" fill="#cacbcb"/><rect x="15" y="16" width="1" height="1" fill="#fffffe"/><rect x="17" y="16" width="1" height="3" fill="#463520"/><rect x="18" y="16" width="1" height="1" fill="#8b6f4c"/><rect x="19" y="16" width="1" height="3" fill="#463520"/><rect x="21" y="16" width="2" height="1" fill="#feffff"/><rect x="24" y="16" width="3" height="1" fill="#685a46"/><rect x="27" y="16" width="1" height="2" fill="#ffffff"/><rect x="15" y="17" width="1" height="1" fill="#ffffff"/><rect x="16" y="17" width="1" height="1" fill="#cacbcb"/><rect x="18" y="17" width="1" height="1" fill="#463520"/><rect x="21" y="17" width="1" height="1" fill="#feffff"/><rect x="22" y="17" width="1" height="1" fill="#ffffff"/><rect x="23" y="17" width="1" height="1" fill="#cacbcb"/><rect x="24" y="17" width="2" height="1" fill="#463520"/><rect x="26" y="17" width="1" height="1" fill="#8b6f4c"/><rect x="30" y="17" width="1" height="1" fill="#ffffff"/><rect x="15" y="18" width="1" height="1" fill="#feffff"/><rect x="16" y="18" width="1" height="1" fill="#463520"/><rect x="18" y="18" width="1" height="1" fill="#685a46"/><rect x="20" y="18" width="1" height="1" fill="#cacbcb"/><rect x="21" y="18" width="1" height="1" fill="#ffffff"/><rect x="24" y="18" width="1" height="1" fill="#cacbcb"/><rect x="25" y="18" width="1" height="1" fill="#8b6f4c"/><rect x="3" y="19" width="1" height="1" fill="#ffffff"/><rect x="10" y="19" width="1" height="1" fill="#feffff"/><rect x="14" y="19" width="1" height="4" fill="#ffffff"/><rect x="15" y="19" width="1" height="2" fill="#cacbcb"/><rect x="16" y="19" width="1" height="1" fill="#685a46"/><rect x="17" y="19" width="1" height="1" fill="#8b6f4c"/><rect x="18" y="19" width="1" height="3" fill="#463520"/><rect x="19" y="19" width="1" height="2" fill="#685a46"/><rect x="20" y="19" width="1" height="1" fill="#ffffff"/><rect x="24" y="19" width="2" height="1" fill="#ffffff"/><rect x="28" y="19" width="1" height="1" fill="#ffffff"/><rect x="16" y="20" width="2" height="1" fill="#463520"/><rect x="20" y="20" width="1" height="1" fill="#feffff"/><rect x="5" y="21" width="1" height="1" fill="#ffffff"/><rect x="12" y="21" width="1" height="1" fill="#ffffff"/><rect x="15" y="21" width="1" height="1" fill="#8b6f4c"/><rect x="16" y="21" width="1" height="2" fill="#685a46"/><rect x="17" y="21" width="1" height="1" fill="#463520"/><rect x="19" y="21" width="1" height="1" fill="#cacbcb"/><rect x="23" y="21" width="1" height="1" fill="#ffffff"/><rect x="26" y="21" width="1" height="1" fill="#ffffff"/><rect x="30" y="21" width="1" height="1" fill="#ffffff"/><rect x="15" y="22" width="1" height="4" fill="#685a46"/><rect x="17" y="22" width="2" height="1" fill="#685a46"/><rect x="19" y="22" width="1" height="1" fill="#ffffff"/><rect x="0" y="23" width="1" height="1" fill="#cacbcb"/><rect x="1" y="23" width="1" height="1" fill="#ffffff"/><rect x="3" y="23" width="1" height="1" fill="#ffffff"/><rect x="7" y="23" width="1" height="1" fill="#fffffe"/><rect x="10" y="23" width="1" height="1" fill="#ffffff"/><rect x="14" y="23" width="1" height="1" fill="#feffff"/><rect x="16" y="23" width="1" height="2" fill="#8b6f4c"/><rect x="17" y="23" width="1" height="3" fill="#463520"/><rect x="18" y="23" width="1" height="1" fill="#8b6f4c"/><rect x="21" y="23" width="1" height="1" fill="#ffffff"/><rect x="28" y="23" width="1" height="1" fill="#ffffff"/><rect x="0" y="24" width="1" height="2" fill="#685a46"/><rect x="13" y="24" width="1" height="1" fill="#ffffff"/><rect x="14" y="24" width="1" height="1" fill="#cacbcb"/><rect x="18" y="24" width="1" height="1" fill="#cacbcb"/><rect x="19" y="24" width="1" height="1" fill="#ffffff"/><rect x="1" y="25" width="1" height="1" fill="#ffffff"/><rect x="5" y="25" width="1" height="1" fill="#feffff"/><rect x="14" y="25" width="1" height="1" fill="#8b6f4c"/><rect x="16" y="25" width="1" height="1" fill="#685a46"/><rect x="18" y="25" width="1" height="1" fill="#feffff"/><rect x="19" y="25" width="1" height="1" fill="#fffffe"/><rect x="23" y="25" width="1" height="1" fill="#ffffff"/><rect x="26" y="25" width="1" height="1" fill="#ffffff"/><rect x="30" y="25" width="1" height="1" fill="#ffffff"/><rect x="0" y="26" width="1" height="1" fill="#463520"/><rect x="1" y="26" width="1" height="1" fill="#cacbcb"/><rect x="2" y="26" width="1" height="1" fill="#ffffff"/><rect x="12" y="26" width="1" height="1" fill="#fffffe"/><rect x="14" y="26" width="1" height="3" fill="#685a46"/><rect x="15" y="26" width="1" height="2" fill="#8b6f4c"/><rect x="16" y="26" width="1" height="3" fill="#463520"/><rect x="17" y="26" width="1" height="1" fill="#8b6f4c"/><rect x="18" y="26" width="1" height="2" fill="#ffffff"/><rect x="0" y="27" width="1" height="1" fill="#685a46"/><rect x="1" y="27" width="1" height="2" fill="#463520"/><rect x="2" y="27" width="1" height="1" fill="#feffff"/><rect x="3" y="27" width="1" height="1" fill="#ffffff"/><rect x="10" y="27" width="1" height="1" fill="#ffffff"/><rect x="13" y="27" width="1" height="1" fill="#cacbcb"/><rect x="17" y="27" width="1" height="1" fill="#cacbcb"/><rect x="21" y="27" width="1" height="1" fill="#ffffff"/><rect x="28" y="27" width="1" height="1" fill="#ffffff"/><rect x="0" y="28" width="1" height="1" fill="#463520"/><rect x="2" y="28" width="1" height="1" fill="#cacbcb"/><rect x="12" y="28" width="1" height="1" fill="#ffffff"/><rect x="13" y="28" width="1" height="1" fill="#8b6f4c"/><rect x="15" y="28" width="1" height="1" fill="#685a46"/><rect x="17" y="28" width="1" height="1" fill="#feffff"/><rect x="0" y="29" width="1" height="1" fill="#8b6f4c"/><rect x="1" y="29" width="1" height="1" fill="#cacbcb"/><rect x="2" y="29" width="1" height="1" fill="#ffffff"/><rect x="5" y="29" width="1" height="1" fill="#ffffff"/><rect x="12" y="29" width="1" height="1" fill="#feffff"/><rect x="13" y="29" width="1" height="1" fill="#685a46"/><rect x="14" y="29" width="1" height="2" fill="#8b6f4c"/><rect x="15" y="29" width="1" height="3" fill="#463520"/><rect x="16" y="29" width="1" height="1" fill="#8b6f4c"/><rect x="19" y="29" width="1" height="1" fill="#ffffff"/><rect x="23" y="29" width="1" height="1" fill="#ffffff"/><rect x="30" y="29" width="1" height="1" fill="#ffffff"/><rect x="0" y="30" width="2" height="1" fill="#ffffff"/><rect x="11" y="30" width="1" height="2" fill="#ffffff"/><rect x="12" y="30" width="1" height="1" fill="#cacbcb"/><rect x="13" y="30" width="1" height="1" fill="#463520"/><rect x="16" y="30" width="1" height="1" fill="#cacbcb"/><rect x="17" y="30" width="1" height="1" fill="#ffffff"/><rect x="3" y="31" width="1" height="1" fill="#fffffe"/><rect x="12" y="31" width="1" height="1" fill="#8b6f4c"/><rect x="13" y="31" width="1" height="1" fill="#685a46"/><rect x="14" y="31" width="1" height="1" fill="#463520"/><rect x="21" y="31" width="1" height="1" fill="#ffffff"/><rect x="28" y="31" width="1" height="1" fill="#ffffff"/></svg>