<svg xmlns="http://www.w3.org/2000/svg" width="32" height="32" viewBox="0 0 32 32" shape-rendering="crispEdges"><rect x="1" y="0" width="1" height="1" fill="#ffffff"/><rect x="8" y="0" width="1" height="1" fill="#ffffff"/><rect x="12" y="0" width="1" height="1" fill="#ffffff"/><rect x="19" y="0" width="1" height="1" fill="#ffffff"/><rect x="26" y="0" width="1" height="1" fill="#ffffff"/><rect x="3" y="2" width="1" height="1" fill="#ffffff"/><rect x="6" y="2" width="1" height="1" fill="#ffffff"/><rect x="10" y="2" width="1" height="1" fill="#ffffff"/><rect x="14" y="2" width="1" height="1" fill="#ffffff"/><rect x="17" y="2" width="1" height="1" fill="#ffffff"/><rect x="24" y="2" width="1" height="1" fill="#ffffff"/><rect x="28" y="2" width="1" height="1" fill="#ffffff"/><rect x="1" y="4" width="1" height="1" fill="#ffffff"/><rect x="8" y="4" width="1" height="1" fill="#ffffff"/><rect x="12" y="4" width="1" height="1" fill="#ffffff"/><rect x="15" y="4" width="1" height="1" fill="#ffffff"/><rect x="19" y="4" width="5" height="1" fill="#ffffff"/><rect x="26" y="4" width="1" height="1" fill="#ffffff"/><rect x="30" y="4" width="1" height="1" fill="#ffffff"/><rect x="18" y="5" width="1" height="1" fill="#ffffff"/><rect x="20" y="5" width="4" height="1" fill="#b3a695"/><rect x="24" y="5" width="1" height="1" fill="#ffffff"/><rect x="3" y="6" width="1" height="1" fill="#ffffff"/><rect x="6" y="6" width="1" height="1" fill="#ffffff"/><rect x="10" y="6" width="1" height="1" fill="#ffffff"/><rect x="15" y="6" width="2" height="1" fill="#ffffff"/><rect x="18" y="6" width="1" height="1" fill="#b3a695"/><rect x="19" y="6" width="1" height="1" fill="#4e3f2b"/><rect x="20" y="6" width="1" height="1" fill="#624a2c"/><rect x="21" y="6" width="1" height="1" fill="#725f46"/><rect x="22" y="6" width="1" height="1" fill="#624a2c"/><rect x="23" y="6" width="1" height="1" fill="#392e1d"/><rect x="24" y="6" width="1" height="1" fill="#b3a695"/><rect x="25" y="6" width="1" height="1" fill="#ffffff"/><rect x="28" y="6" width="1" height="1" fill="#ffffff"/><rect x="14" y="7" width="1" height="1" fill="#ffffff"/><rect x="15" y="7" width="1" height="1" fill="#b3a695"/><rect x="16" y="7" width="2" height="1" fill="#725f46"/><rect x="18" y="7" width="1" height="1" fill="#624a2c"/><rect x="19" y="7" width="4" height="2" fill="#8b6a42"/><rect x="23" y="7" width="1" height="3" fill="#725f46"/><rect x="24" y="7" width="1" height="1" fill="#392e1d"/><rect x="25" y="7" width="1" height="1" fill="#b3a695"/><rect x="1" y="8" width="1" height="1" fill="#ffffff"/><rect x="8" y="8" width="1" height="1" fill="#ffffff"/><rect x="14" y="8" width="1" height="1" fill="#b3a695"/><rect x="15" y="8" width="1" height="1" fill="#4e3f2b"/><rect x="16" y="8" width="3" height="1" fill="#8b6a42"/><rect x="24" y="8" width="2" height="1" fill="#4e3f2b"/><rect x="26" y="8" width="1" height="2" fill="#ffffff"/><rect x="30" y="8" width="1" height="1" fill="#ffffff"/><rect x="13" y="9" width="1" height="1" fill="#ffffff"/><rect x="14" y="9" width="1" height="1" fill="#725f46"/><rect x="15" y="9" width="1" height="3" fill="#8b6a42"/><rect x="16" y="9" width="1" height="1" fill="#b3a695"/><rect x="17" y="9" width="4" height="1" fill="#8b6a42"/><rect x="21" y="9" width="2" height="1" fill="#725f46"/><rect x="24" y="9" width="2" height="1" fill="#392e1d"/><rect x="27" y="9" width="1" height="2" fill="#ffffff"/><rect x="3" y="10" width="1" height="1" fill="#ffffff"/><rect x="6" y="10" width="1" height="1" fill="#ffffff"/><rect x="10" y="10" width="1" height="1" fill="#ffffff"/><rect x="13" y="10" width="1" height="1" fill="#b3a695"/><rect x="14" y="10" width="1" height="1" fill="#4e3f2b"/><rect x="16" y="10" width="1" height="1" fill="#725f46"/><rect x="17" y="10" width="3" height="1" fill="#8b6a42"/><rect x="20" y="10" width="1" height="1" fill="#624a2c"/><rect x="21" y="10" width="4" height="1" fill="#4e3f2b"/><rect x="25" y="10" width="1" height="3" fill="#392e1d"/><rect x="26" y="10" width="1" height="1" fill="#b3a695"/><rect x="12" y="11" width="1" height="2" fill="#ffffff"/><rect x="13" y="11" width="2" height="1" fill="#725f46"/><rect x="16" y="11" width="1" height="1" fill="#624a2c"/><rect x="17" y="11" width="1" height="1" fill="#725f46"/><rect x="18" y="11" width="1" height="2" fill="#624a2c"/><rect x="19" y="11" width="1" height="1" fill="#392e1d"/><rect x="20" y="11" width="2" height="1" fill="#8b6a42"/><rect x="22" y="11" width="2" height="1" fill="#392e1d"/><rect x="24" y="11" width="1" height="1" fill="#624a2c"/><rect x="26" y="11" width="1" height="2" fill="#725f46"/><rect x="1" y="12" width="1" height="1" fill="#ffffff"/><rect x="8" y="12" width="1" height="1" fill="#ffffff"/><rect x="13" y="12" width="2" height="1" fill="#4e3f2b"/><rect x="15" y="12" width="1" height="1" fill="#725f46"/><rect x="16" y="12" width="1" height="1" fill="#8b6a42"/><rect x="17" y="12" width="1" height="1" fill="#624a2c"/><rect x="19" y="12" width="2" height="2" fill="#8b6a42"/><rect x="21" y="12" width="1" height="2" fill="#624a2c"/><rect x="22" y="12" width="3" height="1" fill="#4e3f2b"/><rect x="27" y="12" width="1" height="1" fill="#ffffff"/><rect x="30" y="12" width="1" height="1" fill="#ffffff"/><rect x="11" y="13" width="1" height="1" fill="#ffffff"/><rect x="12" y="13" width="1" height="1" fill="#b3a695"/><rect x="13" y="13" width="1" height="1" fill="#624a2c"/><rect x="14" y="13" width="1" height="2" fill="#8b6a42"/><rect x="15" y="13" width="1" height="1" fill="#4e3f2b"/><rect x="16" y="13" width="1" height="1" fill="#725f46"/><rect x="17" y="13" width="1" height="1" fill="#4e3f2b"/><rect x="18" y="13" width="1" height="1" fill="#8b6a42"/><rect x="22" y="13" width="2" height="1" fill="#4e3f2b"/><rect x="24" y="13" width="1" height="1" fill="#392e1d"/><rect x="25" y="13" width="1" height="1" fill="#4e3f2b"/><rect x="26" y="13" width="1" height="2" fill="#392e1d"/><rect x="27" y="13" width="1" height="1" fill="#b3a695"/><rect x="28" y="13" width="1" height="1" fill="#ffffff"/><rect x="6" y="14" width="1" height="1" fill="#ffffff"/><rect x="12" y="14" width="2" height="1" fill="#725f46"/><rect x="15" y="14" width="1" height="4" fill="#8b6a42"/><rect x="16" y="14" width="1" height="1" fill="#392e1d"/><rect x="17" y="14" width="1" height="1" fill="#624a2c"/><rect x="18" y="14" width="3" height="1" fill="#725f46"/><rect x="21" y="14" width="2" height="2" fill="#4e3f2b"/><rect x="23" y="14" width="1" height="1" fill="#392e1d"/><rect x="24" y="14" width="1" height="1" fill="#4e3f2b"/><rect x="25" y="14" width="1" height="2" fill="#392e1d"/><rect x="27" y="14" width="1" height="1" fill="#392e1d"/><rect x="28" y="14" width="1" height="1" fill="#725f46"/><rect x="10" y="15" width="2" height="1" fill="#ffffff"/><rect x="12" y="15" width="1" height="1" fill="#725f46"/><rect x="13" y="15" width="1" height="1" fill="#8b6a42"/><rect x="14" y="15" width="1" height="1" fill="#725f46"/><rect x="16" y="15" width="1" height="1" fill="#624a2c"/><rect x="17" y="15" width="3" height="1" fill="#8b6a42"/><rect x="20" y="15" width="1" height="3" fill="#624a2c"/><rect x="23" y="15" width="1" height="1" fill="#4e3f2b"/><rect x="24" y="15" width="1" height="2" fill="#392e1d"/><rect x="26" y="15" width="1" height="2" fill="#624a2c"/><rect x="27" y="15" width="1" height="2" fill="#725f46"/><rect x="28" y="15" width="1" height="3" fill="#392e1d"/><rect x="29" y="15" width="1" height="1" fill="#b3a695"/><rect x="30" y="15" width="1" height="6" fill="#ffffff"/><rect x="9" y="16" width="2" height="1" fill="#ffffff"/><rect x="11" y="16" width="1" height="1" fill="#b3a695"/><rect x="12" y="16" width="1" height="1" fill="#392e1d"/><rect x="13" y="16" width="1" height="2" fill="#4e3f2b"/><rect x="14" y="16" width="1" height="1" fill="#8b6a42"/><rect x="16" y="16" width="1" height="1" fill="#4e3f2b"/><rect x="17" y="16" width="1" height="1" fill="#725f46"/><rect x="18" y="16" width="2" height="1" fill="#8b6a42"/><rect x="21" y="16" width="1" height="2" fill="#4e3f2b"/><rect x="22" y="16" width="1" height="1" fill="#624a2c"/><rect x="23" y="16" width="1" height="1" fill="#392e1d"/><rect x="25" y="16" width="1" height="1" fill="#8b6a42"/><rect x="29" y="16" width="1" height="2" fill="#725f46"/><rect x="8" y="17" width="2" height="1" fill="#ffffff"/><rect x="10" y="17" width="1" height="1" fill="#4e3f2b"/><rect x="11" y="17" width="1" height="1" fill="#624a2c"/><rect x="12" y="17" width="1" height="2" fill="#8b6a42"/><rect x="14" y="17" width="1" height="2" fill="#4e3f2b"/><rect x="16" y="17" width="1" height="3" fill="#624a2c"/><rect x="17" y="17" width="1" height="4" fill="#8b6a42"/><rect x="18" y="17" width="1" height="8" fill="#725f46"/><rect x="19" y="17" width="1" height="3" fill="#8b6a42"/><rect x="22" y="17" width="1" height="2" fill="#392e1d"/><rect x="23" y="17" width="1" height="1" fill="#624a2c"/><rect x="24" y="17" width="1" height="2" fill="#8b6a42"/><rect x="25" y="17" width="1" height="1" fill="#725f46"/><rect x="26" y="17" width="1" height="1" fill="#8b6a42"/><rect x="27" y="17" width="1" height="1" fill="#4e3f2b"/><rect x="9" y="18" width="1" height="1" fill="#725f46"/><rect x="10" y="18" width="2" height="1" fill="#8b6a42"/><rect x="13" y="18" width="1" height="1" fill="#8b6a42"/><rect x="15" y="18" width="1" height="4" fill="#4e3f2b"/><rect x="20" y="18" width="1" height="1" fill="#725f46"/><rect x="21" y="18" width="1" height="2" fill="#392e1d"/><rect x="23" y="18" width="1" height="1" fill="#725f46"/><rect x="25" y="18" width="1" height="1" fill="#8b6a42"/><rect x="26" y="18" width="1" height="1" fill="#4e3f2b"/><rect x="27" y="18" width="1" height="1" fill="#392e1d"/><rect x="28" y="18" width="1" height="2" fill="#4e3f2b"/><rect x="29" y="18" width="1" height="4" fill="#392e1d"/><rect x="7" y="19" width="1" height="5" fill="#ffffff"/><rect x="8" y="19" width="1" height="3" fill="#b3a695"/><rect x="9" y="19" width="1" height="1" fill="#392e1d"/><rect x="10" y="19" width="1" height="1" fill="#b3a695"/><rect x="11" y="19" width="1" height="2" fill="#8b6a42"/><rect x="12" y="19" width="2" height="1" fill="#725f46"/><rect x="14" y="19" width="1" height="2" fill="#8b6a42"/><rect x="20" y="19" width="1" height="1" fill="#624a2c"/><rect x="22" y="19" width="1" height="1" fill="#624a2c"/><rect x="23" y="19" width="1" height="2" fill="#392e1d"/><rect x="24" y="19" width="2" height="1" fill="#624a2c"/><rect x="26" y="19" width="1" height="1" fill="#392e1d"/><rect x="27" y="19" width="1" height="4" fill="#4e3f2b"/><rect x="9" y="20" width="1" height="3" fill="#624a2c"/><rect x="10" y="20" width="1" height="1" fill="#8b6a42"/><rect x="12" y="20" width="2" height="2" fill="#8b6a42"/><rect x="16" y="20" width="1" height="1" fill="#4e3f2b"/><rect x="19" y="20" width="1" height="1" fill="#725f46"/><rect x="20" y="20" width="1" height="2" fill="#4e3f2b"/><rect x="21" y="20" width="1" height="2" fill="#624a2c"/><rect x="22" y="20" width="1" height="1" fill="#725f46"/><rect x="24" y="20" width="1" height="1" fill="#4e3f2b"/><rect x="25" y="20" width="1" height="2" fill="#624a2c"/><rect x="26" y="20" width="1" height="4" fill="#4e3f2b"/><rect x="28" y="20" width="1" height="3" fill="#392e1d"/><rect x="31" y="20" width="1" height="1" fill="#ffffff"/><rect x="1" y="21" width="1" height="1" fill="#ffffff"/><rect x="10" y="21" width="1" height="3" fill="#725f46"/><rect x="11" y="21" width="1" height="1" fill="#624a2c"/><rect x="14" y="21" width="1" height="1" fill="#392e1d"/><rect x="16" y="21" width="1" height="5" fill="#392e1d"/><rect x="17" y="21" width="1" height="1" fill="#725f46"/><rect x="19" y="21" width="1" height="1" fill="#8b6a42"/><rect x="22" y="21" width="1" height="1" fill="#624a2c"/><rect x="23" y="21" width="1" height="1" fill="#4e3f2b"/><rect x="24" y="21" width="1" height="3" fill="#392e1d"/><rect x="30" y="21" width="1" height="3" fill="#4e3f2b"/><rect x="31" y="21" width="1" height="1" fill="#b3a695"/><rect x="8" y="22" width="1" height="1" fill="#725f46"/><rect x="11" y="22" width="2" height="1" fill="#725f46"/><rect x="13" y="22" width="2" height="1" fill="#4e3f2b"/><rect x="15" y="22" width="1" height="1" fill="#624a2c"/><rect x="17" y="22" width="1" height="1" fill="#624a2c"/><rect x="19" y="22" width="1" height="1" fill="#725f46"/><rect x="20" y="22" width="1" height="1" fill="#624a2c"/><rect x="21" y="22" width="1" height="1" fill="#8b6a42"/><rect x="22" y="22" width="1" height="1" fill="#4e3f2b"/><rect x="23" y="22" width="1" height="2" fill="#392e1d"/><rect x="25" y="22" width="1" height="2" fill="#4e3f2b"/><rect x="29" y="22" width="1" height="1" fill="#624a2c"/><rect x="31" y="22" width="1" height="2" fill="#392e1d"/><rect x="3" y="23" width="1" height="1" fill="#ffffff"/><rect x="8" y="23" width="1" height="1" fill="#4e3f2b"/><rect x="9" y="23" width="1" height="2" fill="#8b6a42"/><rect x="11" y="23" width="1" height="2" fill="#624a2c"/><rect x="12" y="23" width="1" height="1" fill="#725f46"/><rect x="13" y="23" width="1" height="5" fill="#624a2c"/><rect x="14" y="23" width="2" height="1" fill="#4e3f2b"/><rect x="17" y="23" width="1" height="1" fill="#4e3f2b"/><rect x="19" y="23" width="1" height="1" fill="#8b6a42"/><rect x="20" y="23" width="1" height="1" fill="#4e3f2b"/><rect x="21" y="23" width="2" height="1" fill="#392e1d"/><rect x="27" y="23" width="1" height="2" fill="#392e1d"/><rect x="28" y="23" width="1" height="1" fill="#624a2c"/><rect x="29" y="23" width="1" height="1" fill="#8b6a42"/><rect x="6" y="24" width="1" height="1" fill="#ffffff"/><rect x="7" y="24" width="1" height="1" fill="#b3a695"/><rect x="8" y="24" width="1" height="2" fill="#392e1d"/><rect x="10" y="24" width="1" height="1" fill="#624a2c"/><rect x="12" y="24" width="1" height="3" fill="#624a2c"/><rect x="14" y="24" width="1" height="5" fill="#4e3f2b"/><rect x="15" y="24" width="1" height="1" fill="#624a2c"/><rect x="17" y="24" width="1" height="4" fill="#392e1d"/><rect x="19" y="24" width="1" height="1" fill="#4e3f2b"/><rect x="20" y="24" width="1" height="1" fill="#392e1d"/><rect x="21" y="24" width="1" height="1" fill="#624a2c"/><rect x="22" y="24" width="2" height="2" fill="#8b6a42"/><rect x="24" y="24" width="1" height="1" fill="#624a2c"/><rect x="25" y="24" width="2" height="2" fill="#392e1d"/><rect x="28" y="24" width="1" height="1" fill="#8b6a42"/><rect x="29" y="24" width="1" height="1" fill="#624a2c"/><rect x="30" y="24" width="1" height="1" fill="#392e1d"/><rect x="31" y="24" width="1" height="2" fill="#4e3f2b"/><rect x="1" y="25" width="1" height="1" fill="#ffffff"/><rect x="5" y="25" width="1" height="1" fill="#ffffff"/><rect x="6" y="25" width="1" height="1" fill="#b3a695"/><rect x="7" y="25" width="1" height="1" fill="#725f46"/><rect x="9" y="25" width="1" height="2" fill="#392e1d"/><rect x="10" y="25" width="1" height="1" fill="#4e3f2b"/><rect x="11" y="25" width="1" height="2" fill="#725f46"/><rect x="15" y="25" width="1" height="2" fill="#4e3f2b"/><rect x="18" y="25" width="1" height="1" fill="#4e3f2b"/><rect x="19" y="25" width="1" height="1" fill="#624a2c"/><rect x="20" y="25" width="2" height="1" fill="#8b6a42"/><rect x="24" y="25" width="1" height="1" fill="#8b6a42"/><rect x="27" y="25" width="2" height="1" fill="#624a2c"/><rect x="29" y="25" width="1" height="1" fill="#392e1d"/><rect x="30" y="25" width="1" height="2" fill="#4e3f2b"/><rect x="4" y="26" width="1" height="1" fill="#ffffff"/><rect x="5" y="26" width="1" height="1" fill="#b3a695"/><rect x="6" y="26" width="1" height="1" fill="#4e3f2b"/><rect x="7" y="26" width="2" height="1" fill="#8b6a42"/><rect x="10" y="26" width="1" height="2" fill="#392e1d"/><rect x="16" y="26" width="1" height="1" fill="#4e3f2b"/><rect x="18" y="26" width="1" height="1" fill="#624a2c"/><rect x="19" y="26" width="1" height="1" fill="#b3a695"/><rect x="20" y="26" width="1" height="2" fill="#8b6a42"/><rect x="21" y="26" width="1" height="1" fill="#725f46"/><rect x="22" y="26" width="1" height="2" fill="#8b6a42"/><rect x="23" y="26" width="1" height="1" fill="#725f46"/><rect x="24" y="26" width="1" height="5" fill="#392e1d"/><rect x="25" y="26" width="1" height="3" fill="#4e3f2b"/><rect x="26" y="26" width="2" height="3" fill="#392e1d"/><rect x="28" y="26" width="2" height="1" fill="#4e3f2b"/><rect x="31" y="26" width="1" height="1" fill="#392e1d"/><rect x="5" y="27" width="1" height="2" fill="#725f46"/><rect x="6" y="27" width="2" height="1" fill="#8b6a42"/><rect x="8" y="27" width="1" height="1" fill="#725f46"/><rect x="9" y="27" width="1" height="1" fill="#624a2c"/><rect x="11" y="27" width="2" height="1" fill="#392e1d"/><rect x="15" y="27" width="2" height="2" fill="#392e1d"/><rect x="18" y="27" width="1" height="1" fill="#8b6a42"/><rect x="19" y="27" width="1" height="1" fill="#624a2c"/><rect x="21" y="27" width="1" height="1" fill="#8b6a42"/><rect x="23" y="27" width="1" height="2" fill="#392e1d"/><rect x="28" y="27" width="3" height="1" fill="#392e1d"/><rect x="31" y="27" width="1" height="1" fill="#725f46"/><rect x="6" y="28" width="1" height="1" fill="#392e1d"/><rect x="7" y="28" width="1" height="1" fill="#624a2c"/><rect x="8" y="28" width="2" height="1" fill="#392e1d"/><rect x="10" y="28" width="1" height="1" fill="#624a2c"/><rect x="11" y="28" width="1" height="1" fill="#725f46"/><rect x="12" y="28" width="1" height="1" fill="#392e1d"/><rect x="13" y="28" width="1" height="1" fill="#4e3f2b"/><rect x="17" y="28" width="1" height="2" fill="#4e3f2b"/><rect x="18" y="28" width="4" height="1" fill="#725f46"/><rect x="22" y="28" width="1" height="1" fill="#4e3f2b"/><rect x="28" y="28" width="1" height="1" fill="#392e1d"/><rect x="29" y="28" width="1" height="1" fill="#624a2c"/><rect x="30" y="28" width="2" height="1" fill="#392e1d"/><rect x="1" y="29" width="1" height="1" fill="#ffffff"/><rect x="5" y="29" width="1" height="2" fill="#ffffff"/><rect x="6" y="29" width="1" height="1" fill="#725f46"/><rect x="7" y="29" width="2" height="1" fill="#4e3f2b"/><rect x="9" y="29" width="1" height="1" fill="#8b6a42"/><rect x="10" y="29" width="3" height="1" fill="#b3a695"/><rect x="13" y="29" width="1" height="1" fill="#725f46"/><rect x="14" y="29" width="1" height="1" fill="#392e1d"/><rect x="15" y="29" width="2" height="1" fill="#4e3f2b"/><rect x="18" y="29" width="3" height="1" fill="#725f46"/><rect x="21" y="29" width="1" height="1" fill="#4e3f2b"/><rect x="22" y="29" width="1" height="1" fill="#392e1d"/><rect x="23" y="29" width="1" height="1" fill="#4e3f2b"/><rect x="25" y="29" width="2" height="1" fill="#392e1d"/><rect x="27" y="29" width="1" height="2" fill="#8b6a42"/><rect x="28" y="29" width="2" height="1" fill="#725f46"/><rect x="30" y="29" width="2" height="1" fill="#b3a695"/><rect x="6" y="30" width="4" height="1" fill="#ffffff"/><rect x="10" y="30" width="1" height="1" fill="#725f46"/><rect x="11" y="30" width="1" height="1" fill="#624a2c"/><rect x="12" y="30" width="1" height="1" fill="#725f46"/><rect x="13" y="30" width="1" height="1" fill="#ffffff"/><rect x="14" y="30" width="1" height="1" fill="#b3a695"/><rect x="15" y="30" width="1" height="2" fill="#ffffff"/><rect x="16" y="30" width="1" height="1" fill="#b3a695"/><rect x="17" y="30" width="2" height="1" fill="#392e1d"/><rect x="19" y="30" width="2" height="1" fill="#624a2c"/><rect x="21" y="30" width="1" height="2" fill="#392e1d"/><rect x="22" y="30" width="1" height="1" fill="#4e3f2b"/><rect x="23" y="30" width="1" height="1" fill="#392e1d"/><rect x="25" y="30" width="1" height="1" fill="#392e1d"/><rect x="26" y="30" width="1" height="1" fill="#8b6a42"/><rect x="28" y="30" width="1" height="1" fill="#624a2c"/><rect x="29" y="30" width="1" height="2" fill="#392e1d"/><rect x="30" y="30" width="1" height="1" fill="#725f46"/><rect x="31" y="30" width="1" height="1" fill="#ffffff"/><rect x="8" y="31" width="1" height="1" fill="#ffffff"/><rect x="9" y="31" width="1" height="1" fill="#b3a695"/><rect x="10" y="31" width="1" height="1" fill="#4e3f2b"/><rect x="11" y="31" width="1" height="1" fill="#8b6a42"/><rect x="12" y="31" width="1" height="1" fill="#392e1d"/><rect x="13" y="31" width="1" height="1" fill="#725f46"/><rect x="14" y="31" width="1" height="1" fill="#ffffff"/><rect x="17" y="31" width="1" height="1" fill="#ffffff"/><rect x="18" y="31" width="1" height="1" fill="#725f46"/><rect x="19" y="31" width="2" height="1" fill="#392e1d"/><rect x="22" y="31" width="1" height="1" fill="#392e1d"/><rect x="23" y="31" width="1" height="1" fill="#4e3f2b"/><rect x="24" y="31" width="1" height="1" fill="#b3a695"/><rect x="25" y="31" width="1" height="1" fill="#8b6a42"/><rect x="26" y="31" width="1" height="1" fill="#392e1d"/><rect x="27" y="31" width="1" height="1" fill="#4e3f2b"/><rect x="28" y="31" width="1" height="1" fill="#392e1d"/><rect x="30" y="31" width="1" height="1" fill="#b3a695"/></svg>