<svg xmlns="http://www.w3.org/2000/svg" width="32" height="32" viewBox="0 0 32 32" shape-rendering="crispEdges"><rect x="0" y="0" width="1" height="1" fill="#ffffff"/><rect x="7" y="0" width="1" height="1" fill="#ffffff"/><rect x="18" y="0" width="1" height="1" fill="#ffffff"/><rect x="25" y="0" width="1" height="1" fill="#ffffff"/><rect x="2" y="2" width="1" height="1" fill="#ffffff"/><rect x="5" y="2" width="1" height="1" fill="#ffffff"/><rect x="9" y="2" width="1" height="1" fill="#ffffff"/><rect x="16" y="2" width="1" height="1" fill="#ffffff"/><rect x="20" y="2" width="1" height="1" fill="#ffffff"/><rect x="23" y="2" width="1" height="1" fill="#ffffff"/><rect x="27" y="2" width="1" height="1" fill="#ffffff"/><rect x="0" y="4" width="1" height="1" fill="#ffffff"/><rect x="4" y="4" width="1" height="1" fill="#ffffff"/><rect x="7" y="4" width="1" height="1" fill="#ffffff"/><rect x="11" y="4" width="1" height="1" fill="#ffffff"/><rect x="14" y="4" width="1" height="1" fill="#ffffff"/><rect x="18" y="4" width="1" height="1" fill="#ffffff"/><rect x="25" y="4" width="1" height="1" fill="#ffffff"/><rect x="29" y="4" width="1" height="1" fill="#ffffff"/><rect x="2" y="6" width="1" height="1" fill="#ffffff"/><rect x="9" y="6" width="1" height="1" fill="#ffffff"/><rect x="16" y="6" width="1" height="1" fill="#ffffff"/><rect x="23" y="6" width="1" height="1" fill="#ffffff"/><rect x="27" y="6" width="1" height="1" fill="#ffffff"/><rect x="13" y="7" width="1" height="1" fill="#ffffff"/><rect x="19" y="7" width="1" height="2" fill="#ffffff"/><rect x="0" y="8" width="1" height="1" fill="#ffffff"/><rect x="4" y="8" width="1" height="1" fill="#ffffff"/><rect x="7" y="8" width="1" height="1" fill="#ffffff"/><rect x="11" y="8" width="1" height="1" fill="#ffffff"/><rect x="12" y="8" width="1" height="1" fill="#715d44"/><rect x="13" y="8" width="1" height="1" fill="#bab4ac"/><rect x="18" y="8" width="1" height="1" fill="#ffffff"/><rect x="20" y="8" width="2" height="1" fill="#ffffff"/><rect x="25" y="8" width="1" height="1" fill="#ffffff"/><rect x="29" y="8" width="1" height="1" fill="#ffffff"/><rect x="10" y="9" width="1" height="1" fill="#ffffff"/><rect x="11" y="9" width="1" height="2" fill="#bab4ac"/><rect x="12" y="9" width="1" height="1" fill="#654a29"/><rect x="13" y="9" width="1" height="2" fill="#342918"/><rect x="14" y="9" width="1" height="1" fill="#bab4ac"/><rect x="15" y="9" width="1" height="2" fill="#ffffff"/><rect x="18" y="9" width="1" height="1" fill="#bab4ac"/><rect x="19" y="9" width="1" height="1" fill="#654a29"/><rect x="20" y="9" width="1" height="1" fill="#715d44"/><rect x="2" y="10" width="1" height="1" fill="#ffffff"/><rect x="12" y="10" width="1" height="1" fill="#342918"/><rect x="14" y="10" width="1" height="1" fill="#715d44"/><rect x="16" y="10" width="2" height="1" fill="#ffffff"/><rect x="18" y="10" width="1" height="1" fill="#715d44"/><rect x="19" y="10" width="1" height="1" fill="#8b6b45"/><rect x="20" y="10" width="1" height="2" fill="#52432e"/><rect x="21" y="10" width="1" height="2" fill="#ffffff"/><rect x="27" y="10" width="1" height="1" fill="#ffffff"/><rect x="10" y="11" width="1" height="1" fill="#ffffff"/><rect x="11" y="11" width="3" height="1" fill="#715d44"/><rect x="14" y="11" width="2" height="1" fill="#52432e"/><rect x="16" y="11" width="2" height="1" fill="#bab4ac"/><rect x="18" y="11" width="2" height="1" fill="#342918"/><rect x="7" y="12" width="1" height="1" fill="#ffffff"/><rect x="10" y="12" width="1" height="1" fill="#bab4ac"/><rect x="11" y="12" width="1" height="1" fill="#52432e"/><rect x="12" y="12" width="1" height="1" fill="#8b6b45"/><rect x="13" y="12" width="1" height="1" fill="#52432e"/><rect x="14" y="12" width="2" height="1" fill="#8b6b45"/><rect x="16" y="12" width="1" height="1" fill="#342918"/><rect x="17" y="12" width="1" height="1" fill="#654a29"/><rect x="18" y="12" width="1" height="2" fill="#8b6b45"/><rect x="19" y="12" width="1" height="1" fill="#715d44"/><rect x="20" y="12" width="1" height="1" fill="#342918"/><rect x="21" y="12" width="1" height="1" fill="#bab4ac"/><rect x="22" y="12" width="1" height="1" fill="#ffffff"/><rect x="9" y="13" width="1" height="1" fill="#ffffff"/><rect x="10" y="13" width="3" height="1" fill="#715d44"/><rect x="13" y="13" width="1" height="2" fill="#8b6b45"/><rect x="14" y="13" width="1" height="2" fill="#654a29"/><rect x="15" y="13" width="1" height="1" fill="#715d44"/><rect x="16" y="13" width="2" height="1" fill="#8b6b45"/><rect x="19" y="13" width="2" height="1" fill="#52432e"/><rect x="21" y="13" width="1" height="1" fill="#342918"/><rect x="22" y="13" width="1" height="1" fill="#bab4ac"/><rect x="7" y="14" width="2" height="1" fill="#ffffff"/><rect x="9" y="14" width="1" height="1" fill="#bab4ac"/><rect x="10" y="14" width="1" height="1" fill="#52432e"/><rect x="11" y="14" width="1" height="3" fill="#8b6b45"/><rect x="12" y="14" width="1" height="2" fill="#715d44"/><rect x="15" y="14" width="2" height="1" fill="#8b6b45"/><rect x="17" y="14" width="1" height="1" fill="#654a29"/><rect x="18" y="14" width="1" height="2" fill="#715d44"/><rect x="19" y="14" width="1" height="15" fill="#342918"/><rect x="20" y="14" width="3" height="1" fill="#52432e"/><rect x="23" y="14" width="1" height="1" fill="#ffffff"/><rect x="8" y="15" width="1" height="1" fill="#ffffff"/><rect x="9" y="15" width="1" height="1" fill="#52432e"/><rect x="10" y="15" width="1" height="2" fill="#8b6b45"/><rect x="13" y="15" width="1" height="1" fill="#654a29"/><rect x="14" y="15" width="2" height="1" fill="#8b6b45"/><rect x="16" y="15" width="1" height="1" fill="#654a29"/><rect x="17" y="15" width="1" height="2" fill="#8b6b45"/><rect x="20" y="15" width="1" height="1" fill="#342918"/><rect x="21" y="15" width="1" height="1" fill="#654a29"/><rect x="22" y="15" width="1" height="1" fill="#342918"/><rect x="23" y="15" width="1" height="1" fill="#bab4ac"/><rect x="24" y="15" width="1" height="2" fill="#ffffff"/><rect x="8" y="16" width="2" height="1" fill="#715d44"/><rect x="12" y="16" width="1" height="1" fill="#52432e"/><rect x="13" y="16" width="2" height="1" fill="#8b6b45"/><rect x="15" y="16" width="2" height="1" fill="#715d44"/><rect x="18" y="16" width="1" height="1" fill="#52432e"/><rect x="20" y="16" width="1" height="2" fill="#52432e"/><rect x="21" y="16" width="1" height="1" fill="#342918"/><rect x="22" y="16" width="1" height="1" fill="#715d44"/><rect x="23" y="16" width="1" height="1" fill="#52432e"/><rect x="6" y="17" width="1" height="1" fill="#ffffff"/><rect x="7" y="17" width="1" height="1" fill="#8b6b45"/><rect x="8" y="17" width="1" height="1" fill="#715d44"/><rect x="9" y="17" width="1" height="1" fill="#8b6b45"/><rect x="10" y="17" width="1" height="1" fill="#715d44"/><rect x="11" y="17" width="1" height="1" fill="#654a29"/><rect x="12" y="17" width="2" height="2" fill="#8b6b45"/><rect x="14" y="17" width="1" height="2" fill="#654a29"/><rect x="15" y="17" width="1" height="1" fill="#715d44"/><rect x="16" y="17" width="1" height="2" fill="#8b6b45"/><rect x="17" y="17" width="1" height="1" fill="#715d44"/><rect x="18" y="17" width="1" height="1" fill="#342918"/><rect x="21" y="17" width="2" height="1" fill="#52432e"/><rect x="23" y="17" width="1" height="1" fill="#654a29"/><rect x="24" y="17" width="1" height="1" fill="#52432e"/><rect x="5" y="18" width="1" height="1" fill="#ffffff"/><rect x="6" y="18" width="1" height="1" fill="#bab4ac"/><rect x="7" y="18" width="1" height="1" fill="#654a29"/><rect x="8" y="18" width="1" height="1" fill="#8b6b45"/><rect x="9" y="18" width="1" height="1" fill="#715d44"/><rect x="10" y="18" width="1" height="1" fill="#52432e"/><rect x="11" y="18" width="1" height="3" fill="#8b6b45"/><rect x="15" y="18" width="1" height="3" fill="#8b6b45"/><rect x="17" y="18" width="2" height="1" fill="#52432e"/><rect x="20" y="18" width="1" height="11" fill="#342918"/><rect x="21" y="18" width="1" height="3" fill="#654a29"/><rect x="22" y="18" width="1" height="1" fill="#342918"/><rect x="23" y="18" width="1" height="1" fill="#715d44"/><rect x="24" y="18" width="1" height="1" fill="#342918"/><rect x="25" y="18" width="1" height="1" fill="#715d44"/><rect x="26" y="18" width="1" height="1" fill="#ffffff"/><rect x="2" y="19" width="1" height="1" fill="#ffffff"/><rect x="4" y="19" width="1" height="1" fill="#ffffff"/><rect x="5" y="19" width="1" height="1" fill="#bab4ac"/><rect x="6" y="19" width="1" height="1" fill="#52432e"/><rect x="7" y="19" width="1" height="1" fill="#8b6b45"/><rect x="8" y="19" width="2" height="1" fill="#654a29"/><rect x="10" y="19" width="1" height="2" fill="#8b6b45"/><rect x="12" y="19" width="1" height="1" fill="#715d44"/><rect x="13" y="19" width="1" height="1" fill="#52432e"/><rect x="14" y="19" width="1" height="2" fill="#8b6b45"/><rect x="16" y="19" width="1" height="1" fill="#715d44"/><rect x="17" y="19" width="1" height="2" fill="#342918"/><rect x="18" y="19" width="1" height="1" fill="#52432e"/><rect x="22" y="19" width="1" height="1" fill="#52432e"/><rect x="23" y="19" width="1" height="1" fill="#342918"/><rect x="24" y="19" width="1" height="1" fill="#715d44"/><rect x="25" y="19" width="1" height="1" fill="#342918"/><rect x="26" y="19" width="1" height="1" fill="#bab4ac"/><rect x="27" y="19" width="1" height="1" fill="#ffffff"/><rect x="3" y="20" width="1" height="2" fill="#ffffff"/><rect x="4" y="20" width="1" height="1" fill="#bab4ac"/><rect x="5" y="20" width="1" height="1" fill="#52432e"/><rect x="6" y="20" width="1" height="1" fill="#8b6b45"/><rect x="7" y="20" width="1" height="1" fill="#52432e"/><rect x="8" y="20" width="1" height="1" fill="#715d44"/><rect x="9" y="20" width="1" height="2" fill="#8b6b45"/><rect x="12" y="20" width="1" height="1" fill="#52432e"/><rect x="13" y="20" width="1" height="4" fill="#8b6b45"/><rect x="16" y="20" width="1" height="1" fill="#52432e"/><rect x="18" y="20" width="1" height="1" fill="#715d44"/><rect x="22" y="20" width="1" height="5" fill="#654a29"/><rect x="23" y="20" width="1" height="1" fill="#52432e"/><rect x="24" y="20" width="1" height="2" fill="#342918"/><rect x="25" y="20" width="1" height="1" fill="#715d44"/><rect x="26" y="20" width="1" height="1" fill="#342918"/><rect x="27" y="20" width="1" height="1" fill="#bab4ac"/><rect x="4" y="21" width="1" height="1" fill="#715d44"/><rect x="5" y="21" width="2" height="1" fill="#654a29"/><rect x="7" y="21" width="2" height="1" fill="#8b6b45"/><rect x="10" y="21" width="1" height="1" fill="#654a29"/><rect x="11" y="21" width="1" height="1" fill="#52432e"/><rect x="12" y="21" width="1" height="3" fill="#8b6b45"/><rect x="14" y="21" width="2" height="1" fill="#715d44"/><rect x="16" y="21" width="1" height="1" fill="#342918"/><rect x="17" y="21" width="1" height="1" fill="#52432e"/><rect x="18" y="21" width="1" height="3" fill="#654a29"/><rect x="21" y="21" width="1" height="8" fill="#342918"/><rect x="23" y="21" width="1" height="1" fill="#654a29"/><rect x="25" y="21" width="1" height="2" fill="#342918"/><rect x="26" y="21" width="1" height="1" fill="#654a29"/><rect x="27" y="21" width="1" height="2" fill="#52432e"/><rect x="0" y="22" width="3" height="1" fill="#ffffff"/><rect x="3" y="22" width="1" height="1" fill="#8b6b45"/><rect x="4" y="22" width="1" height="1" fill="#654a29"/><rect x="5" y="22" width="1" height="2" fill="#342918"/><rect x="6" y="22" width="1" height="2" fill="#52432e"/><rect x="7" y="22" width="1" height="1" fill="#715d44"/><rect x="8" y="22" width="1" height="1" fill="#8b6b45"/><rect x="9" y="22" width="1" height="1" fill="#654a29"/><rect x="10" y="22" width="1" height="1" fill="#52432e"/><rect x="11" y="22" width="1" height="2" fill="#8b6b45"/><rect x="14" y="22" width="1" height="1" fill="#8b6b45"/><rect x="15" y="22" width="1" height="2" fill="#342918"/><rect x="16" y="22" width="1" height="1" fill="#52432e"/><rect x="17" y="22" width="1" height="3" fill="#654a29"/><rect x="23" y="22" width="1" height="1" fill="#52432e"/><rect x="24" y="22" width="1" height="1" fill="#715d44"/><rect x="26" y="22" width="1" height="3" fill="#342918"/><rect x="28" y="22" width="3" height="1" fill="#ffffff"/><rect x="0" y="23" width="1" height="1" fill="#bab4ac"/><rect x="1" y="23" width="1" height="1" fill="#8b6b45"/><rect x="2" y="23" width="1" height="1" fill="#bab4ac"/><rect x="3" y="23" width="1" height="1" fill="#715d44"/><rect x="4" y="23" width="1" height="1" fill="#342918"/><rect x="7" y="23" width="1" height="1" fill="#342918"/><rect x="8" y="23" width="2" height="1" fill="#52432e"/><rect x="10" y="23" width="1" height="1" fill="#8b6b45"/><rect x="14" y="23" width="1" height="1" fill="#654a29"/><rect x="16" y="23" width="1" height="1" fill="#654a29"/><rect x="23" y="23" width="3" height="1" fill="#654a29"/><rect x="27" y="23" width="1" height="3" fill="#342918"/><rect x="28" y="23" width="1" height="1" fill="#bab4ac"/><rect x="29" y="23" width="3" height="1" fill="#ffffff"/><rect x="0" y="24" width="2" height="2" fill="#654a29"/><rect x="2" y="24" width="1" height="2" fill="#52432e"/><rect x="3" y="24" width="1" height="1" fill="#654a29"/><rect x="4" y="24" width="1" height="1" fill="#715d44"/><rect x="5" y="24" width="1" height="1" fill="#52432e"/><rect x="6" y="24" width="1" height="1" fill="#715d44"/><rect x="7" y="24" width="2" height="1" fill="#654a29"/><rect x="9" y="24" width="2" height="2" fill="#342918"/><rect x="11" y="24" width="3" height="1" fill="#715d44"/><rect x="14" y="24" width="1" height="2" fill="#342918"/><rect x="15" y="24" width="1" height="1" fill="#52432e"/><rect x="16" y="24" width="1" height="1" fill="#715d44"/><rect x="18" y="24" width="1" height="1" fill="#52432e"/><rect x="23" y="24" width="1" height="1" fill="#654a29"/><rect x="24" y="24" width="1" height="2" fill="#52432e"/><rect x="25" y="24" width="1" height="1" fill="#654a29"/><rect x="28" y="24" width="3" height="1" fill="#654a29"/><rect x="31" y="24" width="1" height="2" fill="#bab4ac"/><rect x="3" y="25" width="1" height="3" fill="#bab4ac"/><rect x="4" y="25" width="1" height="1" fill="#8b6b45"/><rect x="5" y="25" width="1" height="1" fill="#715d44"/><rect x="6" y="25" width="1" height="1" fill="#52432e"/><rect x="7" y="25" width="1" height="1" fill="#715d44"/><rect x="8" y="25" width="1" height="1" fill="#52432e"/><rect x="11" y="25" width="2" height="1" fill="#342918"/><rect x="13" y="25" width="1" height="1" fill="#52432e"/><rect x="15" y="25" width="2" height="1" fill="#654a29"/><rect x="17" y="25" width="1" height="1" fill="#715d44"/><rect x="18" y="25" width="1" height="5" fill="#342918"/><rect x="22" y="25" width="1" height="4" fill="#342918"/><rect x="23" y="25" width="1" height="1" fill="#715d44"/><rect x="25" y="25" width="1" height="1" fill="#715d44"/><rect x="26" y="25" width="1" height="1" fill="#52432e"/><rect x="28" y="25" width="1" height="1" fill="#52432e"/><rect x="29" y="25" width="2" height="1" fill="#654a29"/><rect x="0" y="26" width="1" height="1" fill="#715d44"/><rect x="1" y="26" width="1" height="1" fill="#342918"/><rect x="2" y="26" width="1" height="1" fill="#715d44"/><rect x="4" y="26" width="1" height="1" fill="#342918"/><rect x="5" y="26" width="3" height="1" fill="#654a29"/><rect x="8" y="26" width="1" height="2" fill="#342918"/><rect x="9" y="26" width="1" height="2" fill="#715d44"/><rect x="10" y="26" width="1" height="1" fill="#8b6b45"/><rect x="11" y="26" width="1" height="2" fill="#654a29"/><rect x="12" y="26" width="1" height="1" fill="#52432e"/><rect x="13" y="26" width="1" height="1" fill="#654a29"/><rect x="14" y="26" width="1" height="2" fill="#52432e"/><rect x="15" y="26" width="1" height="2" fill="#715d44"/><rect x="16" y="26" width="1" height="2" fill="#52432e"/><rect x="17" y="26" width="1" height="2" fill="#8b6b45"/><rect x="23" y="26" width="2" height="1" fill="#654a29"/><rect x="25" y="26" width="1" height="1" fill="#52432e"/><rect x="26" y="26" width="1" height="2" fill="#654a29"/><rect x="27" y="26" width="1" height="1" fill="#52432e"/><rect x="28" y="26" width="1" height="1" fill="#715d44"/><rect x="29" y="26" width="1" height="2" fill="#342918"/><rect x="30" y="26" width="1" height="2" fill="#52432e"/><rect x="31" y="26" width="1" height="1" fill="#ffffff"/><rect x="0" y="27" width="1" height="1" fill="#bab4ac"/><rect x="1" y="27" width="1" height="1" fill="#52432e"/><rect x="2" y="27" width="1" height="1" fill="#8b6b45"/><rect x="4" y="27" width="1" height="1" fill="#52432e"/><rect x="5" y="27" width="1" height="1" fill="#342918"/><rect x="6" y="27" width="1" height="1" fill="#715d44"/><rect x="7" y="27" width="1" height="1" fill="#52432e"/><rect x="10" y="27" width="1" height="1" fill="#715d44"/><rect x="12" y="27" width="1" height="1" fill="#715d44"/><rect x="13" y="27" width="1" height="5" fill="#342918"/><rect x="23" y="27" width="1" height="1" fill="#52432e"/><rect x="24" y="27" width="1" height="1" fill="#654a29"/><rect x="25" y="27" width="1" height="2" fill="#342918"/><rect x="27" y="27" width="1" height="1" fill="#342918"/><rect x="28" y="27" width="1" height="1" fill="#52432e"/><rect x="0" y="28" width="2" height="1" fill="#ffffff"/><rect x="3" y="28" width="1" height="1" fill="#ffffff"/><rect x="4" y="28" width="3" height="1" fill="#654a29"/><rect x="7" y="28" width="1" height="2" fill="#342918"/><rect x="8" y="28" width="1" height="1" fill="#715d44"/><rect x="9" y="28" width="1" height="1" fill="#654a29"/><rect x="10" y="28" width="2" height="1" fill="#52432e"/><rect x="12" y="28" width="1" height="1" fill="#8b6b45"/><rect x="14" y="28" width="1" height="3" fill="#654a29"/><rect x="15" y="28" width="1" height="1" fill="#52432e"/><rect x="16" y="28" width="1" height="1" fill="#715d44"/><rect x="17" y="28" width="1" height="2" fill="#654a29"/><rect x="23" y="28" width="1" height="1" fill="#342918"/><rect x="24" y="28" width="1" height="1" fill="#8b6b45"/><rect x="26" y="28" width="1" height="1" fill="#342918"/><rect x="27" y="28" width="1" height="1" fill="#715d44"/><rect x="28" y="28" width="1" height="1" fill="#bab4ac"/><rect x="29" y="28" width="1" height="1" fill="#52432e"/><rect x="30" y="28" width="1" height="1" fill="#bab4ac"/><rect x="4" y="29" width="1" height="1" fill="#715d44"/><rect x="5" y="29" width="1" height="1" fill="#654a29"/><rect x="6" y="29" width="1" height="1" fill="#52432e"/><rect x="8" y="29" width="1" height="1" fill="#342918"/><rect x="9" y="29" width="1" height="1" fill="#52432e"/><rect x="10" y="29" width="1" height="1" fill="#342918"/><rect x="11" y="29" width="1" height="1" fill="#52432e"/><rect x="12" y="29" width="1" height="1" fill="#654a29"/><rect x="15" y="29" width="1" height="1" fill="#342918"/><rect x="16" y="29" width="1" height="1" fill="#8b6b45"/><rect x="19" y="29" width="1" height="1" fill="#52432e"/><rect x="20" y="29" width="1" height="1" fill="#715d44"/><rect x="21" y="29" width="2" height="1" fill="#bab4ac"/><rect x="23" y="29" width="1" height="1" fill="#8b6b45"/><rect x="24" y="29" width="1" height="1" fill="#342918"/><rect x="25" y="29" width="1" height="1" fill="#715d44"/><rect x="26" y="29" width="1" height="1" fill="#bab4ac"/><rect x="28" y="29" width="2" height="1" fill="#ffffff"/><rect x="3" y="30" width="1" height="1" fill="#ffffff"/><rect x="4" y="30" width="1" height="1" fill="#8b6b45"/><rect x="5" y="30" width="1" height="1" fill="#342918"/><rect x="6" y="30" width="1" height="1" fill="#715d44"/><rect x="7" y="30" width="1" height="1" fill="#bab4ac"/><rect x="8" y="30" width="1" height="1" fill="#715d44"/><rect x="9" y="30" width="1" height="1" fill="#342918"/><rect x="10" y="30" width="1" height="1" fill="#8b6b45"/><rect x="11" y="30" width="1" height="1" fill="#654a29"/><rect x="12" y="30" width="1" height="2" fill="#342918"/><rect x="15" y="30" width="1" height="1" fill="#52432e"/><rect x="16" y="30" width="1" height="1" fill="#654a29"/><rect x="17" y="30" width="1" height="1" fill="#342918"/><rect x="18" y="30" width="1" height="1" fill="#715d44"/><rect x="19" y="30" width="6" height="1" fill="#ffffff"/><rect x="26" y="30" width="1" height="1" fill="#ffffff"/><rect x="4" y="31" width="1" height="1" fill="#bab4ac"/><rect x="5" y="31" width="1" height="1" fill="#8b6b45"/><rect x="6" y="31" width="1" height="1" fill="#bab4ac"/><rect x="7" y="31" width="2" height="1" fill="#ffffff"/><rect x="9" y="31" width="1" height="1" fill="#8b6b45"/><rect x="10" y="31" width="1" height="1" fill="#654a29"/><rect x="11" y="31" width="1" height="1" fill="#52432e"/><rect x="14" y="31" width="1" height="1" fill="#52432e"/><rect x="15" y="31" width="1" height="1" fill="#342918"/><rect x="16" y="31" width="1" height="1" fill="#52432e"/><rect x="17" y="31" width="1" height="1" fill="#bab4ac"/><rect x="19" y="31" width="1" height="1" fill="#ffffff"/><rect x="24" y="31" width="1" height="1" fill="#ffffff"/></svg>